<svg width="14" height="14" viewBox="0 0 14 14" fill="none" xmlns="http://www.w3.org/2000/svg">
<path d="M7.00004 0.583252C5.73095 0.583252 4.49035 0.959583 3.43513 1.66466C2.37992 2.36973 1.55748 3.37187 1.07182 4.54437C0.586154 5.71686 0.459083 7.00704 0.706671 8.25175C0.95426 9.49646 1.56539 10.6398 2.46278 11.5372C3.36016 12.4346 4.5035 13.0457 5.74821 13.2933C6.99293 13.5409 8.2831 13.4138 9.4556 12.9281C10.6281 12.4425 11.6302 11.62 12.3353 10.5648C13.0404 9.50961 13.4167 8.26902 13.4167 6.99992C13.4147 5.29873 12.738 3.66779 11.5351 2.46487C10.3322 1.26194 8.70123 0.585259 7.00004 0.583252ZM9.16246 9.16234C9.05307 9.27169 8.90472 9.33313 8.75004 9.33313C8.59536 9.33313 8.44702 9.27169 8.33763 9.16234L6.58763 7.41234C6.47822 7.30296 6.41674 7.15462 6.41671 6.99992V3.49992C6.41671 3.34521 6.47817 3.19684 6.58756 3.08744C6.69696 2.97804 6.84533 2.91659 7.00004 2.91659C7.15475 2.91659 7.30313 2.97804 7.41252 3.08744C7.52192 3.19684 7.58338 3.34521 7.58338 3.49992V6.75842L9.16246 8.3375C9.27182 8.44689 9.33325 8.59524 9.33325 8.74992C9.33325 8.9046 9.27182 9.05294 9.16246 9.16234Z" fill="#ABABAB"/>
</svg>
