<svg width="25" height="25" viewBox="0 0 25 25" fill="none" xmlns="http://www.w3.org/2000/svg">
<path d="M17.1014 6.84106C16.1924 5.96236 15.0332 5.36371 13.771 5.121C12.5087 4.8783 11.2002 5.00245 10.0112 5.47773C8.82216 5.95301 7.80623 6.75801 7.09215 7.79072C6.37806 8.82342 5.99797 10.0373 6.00005 11.2786C5.99654 12.1026 6.16254 12.919 6.48842 13.6807C6.81431 14.4425 7.29362 15.1343 7.89861 15.7161L12.228 19.8913C12.2637 19.9258 12.3061 19.9531 12.3528 19.9717C12.3995 19.9904 12.4495 20 12.5 20C12.5506 20 12.6006 19.9904 12.6473 19.9717C12.6939 19.9531 12.7363 19.9258 12.7721 19.8913L17.1014 15.7161C18.3174 14.537 19 12.9416 19 11.2786C19 9.6156 18.3174 8.02021 17.1014 6.84106ZM12.5 15.2543C10.2046 15.2543 8.33719 13.4534 8.33719 11.2398C8.33719 9.02612 10.2046 7.22518 12.5 7.22518C14.7954 7.22518 16.6629 9.02609 16.6629 11.2398C16.6629 13.4534 14.7954 15.2543 12.5 15.2543Z" fill="#ABABAB"/>
<path d="M12.5 15.2543C10.2046 15.2543 8.33719 13.4534 8.33719 11.2398C8.33719 9.02612 10.2046 7.22518 12.5 7.22518C14.7954 7.22518 16.6629 9.02609 16.6629 11.2398C16.6629 13.4534 14.7954 15.2543 12.5 15.2543Z" fill="#ABABAB"/>
</svg>
