<svg width="26" height="26" viewBox="0 0 26 26" fill="none" xmlns="http://www.w3.org/2000/svg">
<mask id="mask0_1_3662" style="mask-type:alpha" maskUnits="userSpaceOnUse" x="0" y="0" width="26" height="26">
<path fill-rule="evenodd" clip-rule="evenodd" d="M21.0504 7.24769C21.3585 6.93962 21.3581 6.42072 21.0378 6.10045L19.8995 4.96216C19.5656 4.62819 19.0656 4.63626 18.7523 4.94959L12.9999 10.702L7.24744 4.94959C6.93938 4.64153 6.42048 4.64189 6.1002 4.96216L4.96192 6.10045C4.62795 6.43442 4.63601 6.93436 4.94934 7.24769L10.7018 13.0001L4.94934 18.7526C4.64128 19.0606 4.64164 19.5795 4.96192 19.8998L6.1002 21.0381C6.43417 21.372 6.93411 21.364 7.24744 21.0507L12.9999 15.2982L18.7523 21.0507C19.0604 21.3587 19.5793 21.3583 19.8995 21.0381L21.0378 19.8998C21.3718 19.5658 21.3637 19.0659 21.0504 18.7526L15.298 13.0001L21.0504 7.24769Z" fill="#333333"/>
</mask>
<g mask="url(#mask0_1_3662)">
<rect width="26" height="26" fill="#333333"/>
</g>
</svg>
