<svg width="36" height="36" viewBox="0 0 36 36" fill="none" xmlns="http://www.w3.org/2000/svg">
  <path d="M18 33C15.875 33 13.9 32.6188 12.075 31.8563C10.25 31.0938 8.6625 30.0375 7.3125 28.6875C5.9625 27.3375 4.90625 25.75 4.14375 23.925C3.38125 22.1 3 20.125 3 18C3 15.9 3.38125 13.9375 4.14375 12.1125C4.90625 10.2875 5.9625 8.7 7.3125 7.35C8.6625 6 10.25 4.9375 12.075 4.1625C13.9 3.3875 15.875 3 18 3C19.5 3 20.9625 3.21875 22.3875 3.65625C23.8125 4.09375 25.15 4.7375 26.4 5.5875C26.675 5.7625 26.8438 6 26.9062 6.3C26.9688 6.6 26.9 6.875 26.7 7.125C26.5 7.375 26.25 7.5125 25.95 7.5375C25.65 7.5625 25.3625 7.4875 25.0875 7.3125C24.0375 6.6375 22.9125 6.125 21.7125 5.775C20.5125 5.425 19.275 5.25 18 5.25C14.375 5.25 11.3438 6.46875 8.90625 8.90625C6.46875 11.3438 5.25 14.375 5.25 18C5.25 21.625 6.46875 24.6562 8.90625 27.0938C11.3438 29.5313 14.375 30.75 18 30.75C21.625 30.75 24.6562 29.5313 27.0938 27.0938C29.5313 24.6562 30.75 21.625 30.75 18C30.75 17.525 30.7313 17.0625 30.6938 16.6125C30.6563 16.1625 30.5875 15.725 30.4875 15.3C30.4375 14.975 30.4875 14.675 30.6375 14.4C30.7875 14.125 31.0125 13.9625 31.3125 13.9125C31.6375 13.8375 31.9375 13.8938 32.2125 14.0813C32.4875 14.2688 32.65 14.525 32.7 14.85C32.8 15.35 32.875 15.8625 32.925 16.3875C32.975 16.9125 33 17.45 33 18C33 20.125 32.6125 22.1 31.8375 23.925C31.0625 25.75 30 27.3375 28.65 28.6875C27.3 30.0375 25.7125 31.0938 23.8875 31.8563C22.0625 32.6188 20.1 33 18 33ZM15.7875 21.4125L30.4875 6.7125C30.7125 6.4875 30.9875 6.375 31.3125 6.375C31.6375 6.375 31.925 6.4875 32.175 6.7125C32.425 6.9625 32.55 7.25 32.55 7.575C32.55 7.9 32.425 8.1875 32.175 8.4375L16.575 24.0375C16.35 24.2625 16.0875 24.375 15.7875 24.375C15.4875 24.375 15.225 24.2625 15 24.0375L10.425 19.425C10.2 19.2 10.0938 18.9188 10.1063 18.5813C10.1188 18.2438 10.2375 17.9625 10.4625 17.7375C10.6875 17.5125 10.9688 17.4 11.3063 17.4C11.6438 17.4 11.925 17.5125 12.15 17.7375L15.7875 21.4125Z" fill="#F86800" />
</svg>