<svg width="328" height="120" viewBox="0 0 328 120" fill="none" xmlns="http://www.w3.org/2000/svg">
<path d="M0.00132751 0.00273132H119.999V120H0.00132751V0.00273132Z" fill="#30547D"/>
<path d="M0 0.000518799C2.89686e-06 66.2731 53.7245 119.998 119.997 119.998L119.997 0.000513554L0 0.000518799Z" fill="#2C4F77"/>
<path d="M31.3435 -4.57764e-05C31.3435 48.9624 71.0354 88.6552 119.998 88.6552V59.9394C86.8939 59.9391 60.0583 33.1039 60.0583 -4.57764e-05H31.3435Z" fill="#30547D"/>
<path d="M239.996 0.00267029H119.999V120H239.996V0.00267029Z" fill="#30547D"/>
<path d="M239.998 0.000442505C239.998 66.273 186.273 119.998 120 119.998L120 0.00043726L239.998 0.000442505Z" fill="#2C4F77"/>
<path d="M208.655 -0.000106812C208.655 48.9622 168.963 88.655 120.001 88.6552V59.9393C153.104 59.9388 179.94 33.1037 179.94 -0.000106812H208.655Z" fill="#30547D"/>
<path d="M359.284 119.63C326.365 119.63 299.657 92.907 299.657 60.0078C299.657 27.0917 326.382 0.385314 359.284 0.385315L359.284 119.647L359.284 119.63Z" fill="#30547D"/>
<path d="M239.997 0.369719C272.916 0.369721 299.624 27.093 299.624 59.9922C299.624 92.9082 272.899 119.615 239.997 119.615L239.997 0.352875L239.997 0.369719Z" fill="#30547D"/>
</svg>
