<svg width="36" height="36" viewBox="0 0 36 36" fill="none" xmlns="http://www.w3.org/2000/svg">
  <path d="M6.00098 15.75L8.10098 7.5H27.901L30.001 15.75" stroke="#FF7500" stroke-width="3" stroke-linecap="round" stroke-linejoin="round" />
  <path d="M7.49902 15.75H28.499V27C28.499 27.7956 28.183 28.5587 27.6203 29.1213C27.0577 29.6839 26.2947 30 25.499 30H10.499C9.70337 30 8.94031 29.6839 8.3777 29.1213C7.81509 28.5587 7.49902 27.7956 7.49902 27V15.75Z" stroke="#FF7500" stroke-width="3" stroke-linecap="round" stroke-linejoin="round" />
  <path d="M13.5 30V22.5H22.5V30" stroke="#FF7500" stroke-width="3" stroke-linecap="round" stroke-linejoin="round" />
  <path d="M6.00098 15.75C6.00098 16.5456 6.31705 17.3087 6.87966 17.8713C7.44227 18.4339 8.20533 18.75 9.00098 18.75C9.79663 18.75 10.5597 18.4339 11.1223 17.8713C11.6849 17.3087 12.001 16.5456 12.001 15.75C12.001 16.5456 12.317 17.3087 12.8797 17.8713C13.4423 18.4339 14.2053 18.75 15.001 18.75C15.7966 18.75 16.5597 18.4339 17.1223 17.8713C17.6849 17.3087 18.001 16.5456 18.001 15.75C18.001 16.5456 18.317 17.3087 18.8797 17.8713C19.4423 18.4339 20.2053 18.75 21.001 18.75C21.7966 18.75 22.5597 18.4339 23.1223 17.8713C23.6849 17.3087 24.001 16.5456 24.001 15.75C24.001 16.5456 24.317 17.3087 24.8797 17.8713C25.4423 18.4339 26.2053 18.75 27.001 18.75C27.7966 18.75 28.5597 18.4339 29.1223 17.8713C29.6849 17.3087 30.001 16.5456 30.001 15.75" stroke="#FF7500" stroke-width="3" stroke-linecap="round" stroke-linejoin="round" />
</svg>