<svg width="24" height="24" viewBox="0 0 24 24" fill="none" xmlns="http://www.w3.org/2000/svg">
  <path d="M8.725 17.75H15.275C15.4875 17.75 15.6657 17.6777 15.8095 17.533C15.9532 17.3885 16.025 17.2093 16.025 16.9955C16.025 16.7818 15.9532 16.6042 15.8095 16.4625C15.6657 16.3208 15.4875 16.25 15.275 16.25H8.725C8.5125 16.25 8.33442 16.3223 8.19075 16.467C8.04692 16.6115 7.975 16.7907 7.975 17.0045C7.975 17.2182 8.04692 17.3958 8.19075 17.5375C8.33442 17.6792 8.5125 17.75 8.725 17.75ZM8.725 13.5H15.275C15.4875 13.5 15.6657 13.4277 15.8095 13.283C15.9532 13.1385 16.025 12.9593 16.025 12.7455C16.025 12.5318 15.9532 12.3542 15.8095 12.2125C15.6657 12.0708 15.4875 12 15.275 12H8.725C8.5125 12 8.33442 12.0723 8.19075 12.217C8.04692 12.3615 7.975 12.5407 7.975 12.7545C7.975 12.9682 8.04692 13.1458 8.19075 13.2875C8.33442 13.4292 8.5125 13.5 8.725 13.5ZM5.5 22C5.1 22 4.75 21.85 4.45 21.55C4.15 21.25 4 20.9 4 20.5V3.5C4 3.1 4.15 2.75 4.45 2.45C4.75 2.15 5.1 2 5.5 2H13.9C14.1073 2 14.305 2.04167 14.493 2.125C14.681 2.20833 14.8417 2.31667 14.975 2.45L19.55 7.025C19.6833 7.15833 19.7917 7.319 19.875 7.507C19.9583 7.695 20 7.89267 20 8.1V20.5C20 20.9 19.85 21.25 19.55 21.55C19.25 21.85 18.9 22 18.5 22H5.5ZM13.775 7.4V3.5H5.5V20.5H18.5V8.15H14.525C14.3125 8.15 14.1344 8.07808 13.9908 7.93425C13.8469 7.79058 13.775 7.6125 13.775 7.4Z" fill="#FF7500" />
</svg>