<svg width="36" height="36" viewBox="0 0 36 36" fill="none" xmlns="http://www.w3.org/2000/svg">
  <path d="M31.7609 10.2181C32.554 9.42522 32.9996 8.34978 32.9997 7.22836C32.9999 6.10694 32.5545 5.0314 31.7617 4.23833C30.9688 3.44527 29.8934 2.99965 28.7719 2.99951C27.6505 2.99937 26.575 3.44472 25.7819 4.23758L5.7629 24.2611C5.41463 24.6083 5.15707 25.0359 5.0129 25.5061L3.0314 32.0341C2.99263 32.1638 2.98971 32.3016 3.02293 32.4329C3.05615 32.5641 3.12428 32.6839 3.2201 32.7796C3.31591 32.8752 3.43583 32.9432 3.56714 32.9762C3.69845 33.0092 3.83624 33.0061 3.9659 32.9671L10.4954 30.9871C10.9652 30.8442 11.3927 30.5882 11.7404 30.2416L31.7609 10.2181Z" stroke="#FF7500" stroke-width="3" stroke-linecap="round" stroke-linejoin="round" />
  <path d="M22.5 7.5L28.5 13.5" stroke="#FF7500" stroke-width="3" stroke-linecap="round" stroke-linejoin="round" />
</svg>