<svg width="558" height="440" viewBox="0 0 558 440" fill="none" xmlns="http://www.w3.org/2000/svg">
<rect width="558" height="558" transform="translate(0 -59)" fill="#096744"/>
<g clip-path="url(#clip0_53_17737)">
<path fill-rule="evenodd" clip-rule="evenodd" d="M272.497 70.623L312.293 93.4638L183.269 167.516V222.39C183.269 224.582 184.362 226.465 186.273 227.562L216.18 244.727C217.135 245.275 218.229 245.275 219.184 244.727C220.14 244.178 220.686 243.237 220.686 242.141V188.992L349.711 114.939L389.507 137.78C393.328 139.972 395.515 143.738 395.515 148.123V216.763C384.71 213.14 373.278 211.186 361.859 210.493V205.891C361.859 200.878 358.98 196.382 354.411 194.261C349.842 192.14 344.525 192.831 340.659 196.047L294.849 234.162C291.049 237.324 288.973 241.934 289.131 246.857C289.29 251.801 291.642 256.238 295.654 259.164L341.309 292.462C343.231 293.87 345.509 294.719 347.889 294.914C350.268 295.108 352.656 294.64 354.783 293.562C359.15 291.363 361.86 286.978 361.86 282.112V277.031C371.362 278.158 380.768 281.062 388.492 286.621C389.986 287.694 391.403 288.868 392.733 290.136C391.849 291.166 390.767 292.059 389.509 292.781L272.497 359.938C268.676 362.131 264.303 362.131 260.482 359.938L143.472 292.781C139.651 290.589 137.465 286.823 137.465 282.437V148.124C137.465 143.738 139.651 139.972 143.472 137.78L260.483 70.623C264.303 68.4304 268.676 68.4304 272.497 70.623Z" fill="#FF7500"/>
<path d="M395.515 216.763C384.71 213.14 373.278 211.186 361.859 210.493V205.891C361.859 200.878 358.98 196.382 354.411 194.261C349.842 192.14 344.525 192.831 340.659 196.047L294.849 234.162C291.049 237.324 288.973 241.934 289.131 246.857C289.29 251.801 291.642 256.238 295.654 259.164L341.309 292.462C343.231 293.87 345.509 294.719 347.889 294.914C350.268 295.108 352.656 294.64 354.783 293.562C359.15 291.363 361.86 286.978 361.86 282.112V277.031C371.362 278.158 380.768 281.062 388.492 286.621C389.986 287.694 391.403 288.868 392.733 290.136C395.491 287.394 395.737 283.861 395.515 282.437V216.763Z" fill="#FF7500"/>
<path d="M356.039 370.495C413.934 340.338 393.96 273.242 323.475 273.242V290.211C323.475 291.509 322.789 292.623 321.627 293.21C320.465 293.797 319.159 293.69 318.108 292.921L268.024 256.299C266.296 255.036 265.34 253.228 265.271 251.093C265.203 248.959 266.041 247.094 267.684 245.723L317.938 203.803C318.967 202.945 320.315 202.769 321.53 203.335C322.745 203.9 323.475 205.044 323.475 206.38V221.875C445.978 221.875 452.702 348.166 356.514 371.746C356.191 371.827 355.868 371.666 355.732 371.363C355.662 371.207 355.655 371.029 355.712 370.868C355.769 370.706 355.886 370.573 356.039 370.495Z" fill="white"/>
</g>
<defs>
<clipPath id="clip0_53_17737">
<rect width="286.29" height="304.344" fill="white" transform="translate(135.631 68)"/>
</clipPath>
</defs>
</svg>
