<svg width="36" height="36" viewBox="0 0 36 36" fill="none" xmlns="http://www.w3.org/2000/svg">
  <path d="M21 19.5C19.75 19.5 18.6875 19.0625 17.8125 18.1875C16.9375 17.3125 16.5 16.25 16.5 15C16.5 13.75 16.9375 12.6875 17.8125 11.8125C18.6875 10.9375 19.75 10.5 21 10.5C22.25 10.5 23.3125 10.9375 24.1875 11.8125C25.0625 12.6875 25.5 13.75 25.5 15C25.5 16.25 25.0625 17.3125 24.1875 18.1875C23.3125 19.0625 22.25 19.5 21 19.5ZM10.5 24C9.675 24 8.96875 23.7063 8.38125 23.1188C7.79375 22.5312 7.5 21.825 7.5 21V9C7.5 8.175 7.79375 7.46875 8.38125 6.88125C8.96875 6.29375 9.675 6 10.5 6H31.5C32.325 6 33.0313 6.29375 33.6188 6.88125C34.2063 7.46875 34.5 8.175 34.5 9V21C34.5 21.825 34.2063 22.5312 33.6188 23.1188C33.0313 23.7063 32.325 24 31.5 24H10.5ZM13.5 21H28.5C28.5 20.175 28.7938 19.4688 29.3813 18.8813C29.9688 18.2938 30.675 18 31.5 18V12C30.675 12 29.9688 11.7063 29.3813 11.1188C28.7938 10.5312 28.5 9.825 28.5 9H13.5C13.5 9.825 13.2063 10.5312 12.6188 11.1188C12.0312 11.7063 11.325 12 10.5 12V18C11.325 18 12.0312 18.2938 12.6188 18.8813C13.2063 19.4688 13.5 20.175 13.5 21ZM28.5 30H4.5C3.675 30 2.96875 29.7063 2.38125 29.1188C1.79375 28.5312 1.5 27.825 1.5 27V12C1.5 11.575 1.64375 11.2188 1.93125 10.9313C2.21875 10.6438 2.575 10.5 3 10.5C3.425 10.5 3.78125 10.6438 4.06875 10.9313C4.35625 11.2188 4.5 11.575 4.5 12V27H28.5C28.925 27 29.2813 27.1438 29.5688 27.4313C29.8563 27.7188 30 28.075 30 28.5C30 28.925 29.8563 29.2812 29.5688 29.5688C29.2813 29.8563 28.925 30 28.5 30Z" fill="#FF7500" />
</svg>