<svg width="84" height="36" viewBox="0 0 84 36" fill="none" xmlns="http://www.w3.org/2000/svg">
<g clip-path="url(#clip0_53_16933)">
<path fill-rule="evenodd" clip-rule="evenodd" d="M24.7111 21.9049C22.637 21.9049 20.9481 20.176 20.9481 18.0148C20.9481 15.8536 22.6074 14.0938 24.6815 14.0938C26.7555 14.0938 28.4445 15.8227 28.4445 17.9839C28.4445 20.1451 26.7555 21.9049 24.7111 21.9049ZM24.7111 9.92578C20.4445 9.92578 16.9481 13.538 16.9481 17.9839C16.9481 22.4298 20.3852 26.042 24.6519 26.0729C26.9333 26.0729 29.1259 25.0232 30.5778 23.2016C30.0741 24.1896 29.3333 25.0232 28.4741 25.548V25.9494H32.3852V17.9531C32.3852 13.538 28.9482 9.95666 24.7111 9.92578ZM61.8371 21.9975H56.7407V19.3733H61.7482C62.3704 19.3733 63.1111 19.9907 63.1111 20.6699C63.0815 21.1948 62.6963 21.9975 61.8371 21.9975ZM56.7407 14.032H61.0074C61.4815 14.032 62.2222 14.526 62.2222 15.3287C62.2222 15.9771 61.7185 16.6563 60.8592 16.6563H56.7111L56.7407 14.032ZM65.3037 17.5208C66.2222 16.0388 66.3111 14.032 65.4815 12.5501C64.6222 11.0373 63.0815 10.111 61.3926 10.0802H52.8297V25.9494H62.4C65.3926 25.9494 67.0815 23.356 67.0815 21.1948C67.0815 19.0954 65.9259 18.0457 65.3037 17.5208ZM48.9482 15.9154C50.2222 19.5276 50.3111 22.8002 50.3111 25.9494H46.3407C46.3407 23.4177 46.2519 21.1022 45.7482 19.0027C45.0667 16.1932 43.7926 14.1555 42.6074 14.1555C41.4222 14.1555 40.1482 16.1932 39.4666 19.0027C38.9629 21.1022 38.8741 23.356 38.8741 25.9494H34.9037C34.9037 23.109 34.9629 19.5276 36.2667 15.9154C37.4519 12.5501 39.7037 9.92578 42.637 9.92578C45.5704 9.92578 47.7629 12.5501 48.9482 15.9154ZM11.4667 10.0802H15.4371V11.7474C15.4371 14.1864 14.4 16.4711 12.563 18.0148C14.3703 19.5584 15.4371 21.8432 15.4371 24.2822V25.9494H11.4667V23.85C11.4667 21.6888 9.77775 19.9598 7.73335 19.9598C5.65926 19.9598 4 21.7197 4 23.85V25.9494H0V24.2822C0 21.8432 1.03703 19.5584 2.87408 18.0148C1.06667 16.4711 0 14.1864 0 11.7474V10.0802H3.97037V12.1796C3.97037 14.3407 5.65926 16.0697 7.70372 16.0697C9.77775 16.0697 11.4371 14.3099 11.4371 12.1796L11.4667 10.0802ZM76.2963 21.9049C74.2223 21.9049 72.5333 20.176 72.5333 18.0148C72.5333 15.8536 74.1926 14.0938 76.2667 14.0938C78.3407 14.0938 80.0299 15.8227 80.0299 17.9839C80.0299 20.1451 78.3407 21.9049 76.2963 21.9049ZM84 17.9531C83.9702 13.5072 80.5041 9.92578 76.237 9.95666C71.9704 9.98753 68.5333 13.5998 68.5629 18.0457C68.5926 22.4915 72.0592 26.0729 76.3259 26.042C78.6072 26.042 80.7408 24.9614 82.1925 23.1708C81.6892 24.1587 80.9485 24.9923 80.0887 25.5172V25.9185H84V17.9531Z" fill="#FF7500"/>
</g>
<defs>
<clipPath id="clip0_53_16933">
<rect width="84" height="16.1471" fill="white" transform="translate(0 9.92578)"/>
</clipPath>
</defs>
</svg>
