<svg width="36" height="36" viewBox="0 0 36 36" fill="none" xmlns="http://www.w3.org/2000/svg">
  <path d="M18 31.5C18 31.5 27 23.505 27 15C27 12.6131 26.0518 10.3239 24.364 8.63604C22.6761 6.94821 20.3869 6 18 6C15.6131 6 13.3239 6.94821 11.636 8.63604C9.94821 10.3239 9 12.6131 9 15C9 23.505 18 31.5 18 31.5Z" stroke="#FF7500" stroke-width="3.0555" stroke-linecap="round" stroke-linejoin="round" />
  <path d="M18 18.75C20.0711 18.75 21.75 17.0711 21.75 15C21.75 12.9289 20.0711 11.25 18 11.25C15.9289 11.25 14.25 12.9289 14.25 15C14.25 17.0711 15.9289 18.75 18 18.75Z" stroke="#FF7500" stroke-width="3.0555" stroke-linecap="round" stroke-linejoin="round" />
</svg>