<svg width="36" height="36" viewBox="0 0 36 36" fill="none" xmlns="http://www.w3.org/2000/svg">
  <path d="M6.75 31.5C6.13125 31.5 5.60163 31.2796 5.16113 30.8389C4.72038 30.3984 4.5 29.8688 4.5 29.25V6.75C4.5 6.13125 4.72038 5.6015 5.16113 5.16075C5.60163 4.72025 6.13125 4.5 6.75 4.5H14.4375C14.5625 3.625 14.9625 2.90625 15.6375 2.34375C16.3125 1.78125 17.1 1.5 18 1.5C18.9 1.5 19.6875 1.78125 20.3625 2.34375C21.0375 2.90625 21.4375 3.625 21.5625 4.5H29.25C29.8688 4.5 30.3985 4.72025 30.8393 5.16075C31.2798 5.6015 31.5 6.13125 31.5 6.75V29.25C31.5 29.8688 31.2798 30.3984 30.8393 30.8389C30.3985 31.2796 29.8688 31.5 29.25 31.5H6.75ZM6.75 29.25H29.25V6.75H6.75V29.25ZM11.625 25.5H19.6125C19.9313 25.5 20.1985 25.3915 20.4143 25.1745C20.6298 24.9578 20.7375 24.689 20.7375 24.3683C20.7375 24.0478 20.6298 23.7812 20.4143 23.5688C20.1985 23.3563 19.9313 23.25 19.6125 23.25H11.625C11.3063 23.25 11.0391 23.3585 10.8236 23.5755C10.6079 23.7922 10.5 24.061 10.5 24.3818C10.5 24.7023 10.6079 24.9688 10.8236 25.1813C11.0391 25.3938 11.3063 25.5 11.625 25.5ZM11.625 19.125H24.375C24.6938 19.125 24.961 19.0165 25.1768 18.7995C25.3923 18.5828 25.5 18.314 25.5 17.9933C25.5 17.6728 25.3923 17.4063 25.1768 17.1938C24.961 16.9813 24.6938 16.875 24.375 16.875H11.625C11.3063 16.875 11.0391 16.9835 10.8236 17.2005C10.6079 17.4173 10.5 17.686 10.5 18.0068C10.5 18.3272 10.6079 18.5938 10.8236 18.8063C11.0391 19.0188 11.3063 19.125 11.625 19.125ZM11.625 12.75H24.375C24.6938 12.75 24.961 12.6415 25.1768 12.4245C25.3923 12.2078 25.5 11.939 25.5 11.6183C25.5 11.2978 25.3923 11.0312 25.1768 10.8188C24.961 10.6063 24.6938 10.5 24.375 10.5H11.625C11.3063 10.5 11.0391 10.6085 10.8236 10.8255C10.6079 11.0422 10.5 11.311 10.5 11.6318C10.5 11.9523 10.6079 12.2188 10.8236 12.4313C11.0391 12.6438 11.3063 12.75 11.625 12.75ZM18 6.1125C18.35 6.1125 18.6563 5.98125 18.9188 5.71875C19.1813 5.45625 19.3125 5.15 19.3125 4.8C19.3125 4.45 19.1813 4.14375 18.9188 3.88125C18.6563 3.61875 18.35 3.4875 18 3.4875C17.65 3.4875 17.3438 3.61875 17.0813 3.88125C16.8188 4.14375 16.6875 4.45 16.6875 4.8C16.6875 5.15 16.8188 5.45625 17.0813 5.71875C17.3438 5.98125 17.65 6.1125 18 6.1125Z" fill="#F86800" />
</svg>