<svg width="150" height="150" viewBox="0 0 150 150" fill="none" xmlns="http://www.w3.org/2000/svg">
  <g clip-path="url(#clip0_32_8693)">
    <rect width="150" height="150" rx="75" fill="#FF7500" />
    <path d="M66.1125 72.5798L38.29 187.3L28.4438 185.056L56.2663 70.3358L66.1125 72.5798Z" fill="#096744" stroke="#096744" stroke-width="2.14128" />
    <path d="M107.07 74.4635L79.981 186.157L70.1349 183.913L97.2234 72.2196L107.07 74.4635Z" fill="#096744" stroke="#096744" stroke-width="2.14128" />
    <path d="M86.7676 31.585C89.1666 31.585 91.097 33.4438 91.8604 35.8955L93.1631 40.0615L93.5977 41.4521H50.8828V31.585H86.7676Z" fill="#096744" stroke="#096744" stroke-width="2.14128" />
    <path d="M50.0206 31.7444L112.302 180.579L102.924 184.267L43.0917 41.2851C41.6578 37.8585 44.0558 34.0901 47.7759 32.6271L50.0206 31.7444Z" fill="white" stroke="white" stroke-width="2.14128" />
    <path d="M79.8573 33.7422L141.814 182.704L151.2 179.036L91.6793 35.9311C90.2526 32.5016 85.8262 31.4093 82.103 32.8645L79.8573 33.7422Z" fill="#096744" stroke="#096744" stroke-width="2.14128" />
    <path d="M108.235 75.835L108.513 76.4844L111.813 84.2109L112.45 85.7021H62.9248L63.123 84.4619L64.3623 76.7354L64.5068 75.835H108.235Z" fill="white" stroke="white" stroke-width="2.14128" />
    <path d="M121.898 112.405L74.0469 112.491L72.9736 112.493V102.624H119.455L119.729 103.285L122.886 110.926L123.496 112.402L121.898 112.405Z" fill="white" stroke="white" stroke-width="2.14128" />
    <path d="M84.6475 139.285V129.418H130.709L130.979 130.086L134.112 137.812L134.71 139.285H84.6475Z" fill="white" stroke="white" stroke-width="2.14128" />
  </g>
  <defs>
    <clipPath id="clip0_32_8693">
      <rect width="150" height="150" rx="75" fill="white" />
    </clipPath>
  </defs>
</svg>