<svg width="150" height="150" viewBox="0 0 150 150" fill="none" xmlns="http://www.w3.org/2000/svg">
  <rect width="150" height="150" rx="75" fill="#096744" />
  <path d="M69.0256 109.838L74.7433 109.838C77.5634 109.838 79.8496 107.622 79.8496 104.888L79.8496 88.7131C79.8496 85.9793 77.5634 83.7631 74.7433 83.7631L69.0256 83.7631C66.2055 83.7631 63.9193 85.9793 63.9193 88.7131L63.9193 104.888C63.9193 107.622 66.2055 109.838 69.0256 109.838Z" fill="#FF7500" />
  <path d="M65.9241 80.7988L77.8448 80.7988C78.952 80.7988 79.8496 79.9287 79.8496 78.8554L79.8496 76.6854C79.8496 75.6121 78.952 74.742 77.8448 74.742L65.9241 74.742C64.8169 74.742 63.9193 75.6121 63.9193 76.6854L63.9193 78.8554C63.9193 79.9287 64.8169 80.7988 65.9241 80.7988Z" fill="white" />
  <path d="M68.7559 44.3175L68.7559 78.8457C68.7559 79.919 69.6534 80.7891 70.7606 80.7891L72.9992 80.7891C74.1064 80.7891 75.0039 79.919 75.0039 78.8457L75.0039 44.3175C75.0039 43.2442 74.1064 42.374 72.9991 42.374L70.7606 42.3741C69.6534 42.3741 68.7559 43.2442 68.7559 44.3175Z" fill="white" />
  <path d="M42.7214 87.6486L42.7214 61.8091C42.7214 61.3647 42.9822 60.9725 43.3687 60.7459C46.767 58.8025 49.0504 55.2294 49.0504 51.1247C49.0504 46.7499 46.4613 42.9763 42.6855 41.1375C41.8314 40.7192 40.8156 41.3031 40.8156 42.2269L40.8156 47.9438C40.8156 48.6236 40.2492 49.1726 39.548 49.1726L35.5025 49.1726C34.8012 49.1726 34.2349 48.6236 34.2349 47.9438L34.2349 42.2269C34.2349 41.2944 33.219 40.7192 32.3649 41.1375C28.5891 42.9763 26 46.7499 26 51.1247C26 55.2207 28.2835 58.8025 31.6817 60.7459C32.0773 60.9725 32.329 61.3647 32.329 61.8091L32.329 87.6486C32.329 88.0931 32.0683 88.4853 31.6817 88.7119C28.2835 90.6553 26 94.2283 26 98.333C26 102.708 28.5891 106.481 32.3649 108.32C33.219 108.739 34.2349 108.155 34.2349 107.231L34.2349 100.669C34.2349 99.9889 34.8012 99.4398 35.5025 99.4398L39.548 99.4398C40.2492 99.4398 40.8156 99.9889 40.8156 100.669L40.8156 107.231C40.8156 108.163 41.8314 108.739 42.6855 108.32C46.4613 106.481 49.0504 102.708 49.0504 98.333C49.0504 94.237 46.767 90.6553 43.3687 88.7119C42.9732 88.4853 42.7214 88.0931 42.7214 87.6486Z" fill="#FF7500" />
  <path d="M102.168 108.087L102.168 75.1363L114.772 75.1363L114.772 108.087C114.772 109.046 113.963 109.83 112.974 109.83L103.966 109.83C102.977 109.83 102.168 109.046 102.168 108.087Z" fill="white" />
  <path d="M104.615 54.734L104.615 90.3516L112.257 90.3516L112.257 54.734L104.615 54.734Z" fill="white" />
  <path d="M94.7246 57.9992L94.7246 44.1165C94.7246 43.1578 95.5337 42.3735 96.5226 42.3735L115.213 42.3735L115.213 59.7422L96.5226 59.7422C95.5337 59.7422 94.7246 58.9579 94.7246 57.9992Z" fill="#FF7500" />
  <path d="M119.545 59.7441L119.545 42.3755L125.892 42.3755C126.881 42.3755 127.69 43.1598 127.69 44.1184L127.69 58.0012C127.69 58.9598 126.881 59.7441 125.892 59.7441L119.545 59.7441Z" fill="#FF7500" />
  <path d="M114.182 45.7756L114.182 56.3555L119.558 56.3555L119.558 45.7756L114.182 45.7756Z" fill="#FF7500" />
</svg>