<svg width="150" height="150" viewBox="0 0 150 150" fill="none" xmlns="http://www.w3.org/2000/svg">
  <rect width="150" height="150" rx="75" fill="#2C4F77" />
  <path d="M114 56H35V107H114V56Z" fill="#FF7500" />
  <path d="M38.8478 43H35V55.5382H38.8478V43Z" fill="white" />
  <path d="M46.254 43H42.4062V55.5382H46.254V43Z" fill="white" />
  <path d="M53.6583 43H49.8105V55.5382H53.6583V43Z" fill="white" />
  <path d="M61.0607 43H57.2129V55.5382H61.0607V43Z" fill="white" />
  <path d="M68.4689 43H64.6211V55.5382H68.4689V43Z" fill="white" />
  <path d="M75.8693 43H72.0215V55.5382H75.8693V43Z" fill="white" />
  <path d="M83.2736 43H79.4258V55.5382H83.2736V43Z" fill="white" />
  <path d="M90.6798 43H86.832V55.5382H90.6798V43Z" fill="white" />
  <path d="M98.0841 43H94.2363V55.5382H98.0841V43Z" fill="white" />
  <path d="M105.848 43H102V55.5382H105.848V43Z" fill="white" />
  <path d="M113.611 43H109.764V55.5382H113.611V43Z" fill="white" />
  <path d="M61.4521 55.5391L48.23 68.3564L35.0078 55.5391C45.338 55.5391 51.128 55.5391 61.4582 55.5391H61.4521Z" fill="#096744" />
  <path d="M87.8994 55.5391L74.6772 68.3564L61.4551 55.5391C71.7853 55.5391 77.5753 55.5391 87.9055 55.5391H87.8994Z" fill="#096744" />
  <path d="M114.352 55.5391L101.13 68.3564L87.9082 55.5391C98.2384 55.5391 104.028 55.5391 114.359 55.5391H114.352Z" fill="#096744" />
  <path d="M61.4521 68.3555L48.23 81.1728L35.0078 68.3555C45.338 68.3555 51.128 68.3555 61.4582 68.3555H61.4521Z" fill="#096744" />
  <path d="M87.8994 68.3555L74.6772 81.1728L61.4551 68.3555C71.7853 68.3555 77.5753 68.3555 87.9055 68.3555H87.8994Z" fill="#096744" />
  <path d="M114.352 68.3555L101.13 81.1728L87.9082 68.3555C98.2384 68.3555 104.028 68.3555 114.359 68.3555H114.352Z" fill="#096744" />
  <path d="M61.4521 81.1738L48.23 93.9912L35.0078 81.1738C45.338 81.1738 51.128 81.1738 61.4582 81.1738H61.4521Z" fill="#096744" />
  <path d="M87.8994 81.1738L74.6772 93.9912L61.4551 81.1738C71.7853 81.1738 77.5753 81.1738 87.9055 81.1738H87.8994Z" fill="#096744" />
  <path d="M114.352 81.1738L101.13 93.9912L87.9082 81.1738C98.2384 81.1738 104.028 81.1738 114.359 81.1738H114.352Z" fill="#096744" />
  <path d="M61.4521 93.9961L48.23 106.813L35.0078 93.9961C45.338 93.9961 51.128 93.9961 61.4582 93.9961H61.4521Z" fill="#096744" />
  <path d="M87.8994 93.9961L74.6772 106.813L61.4551 93.9961C71.7853 93.9961 77.5753 93.9961 87.9055 93.9961H87.8994Z" fill="#096744" />
  <path d="M114.352 93.9961L101.13 106.813L87.9082 93.9961C98.2384 93.9961 104.028 93.9961 114.359 93.9961H114.352Z" fill="#096744" />
</svg>