<svg width="36" height="36" viewBox="0 0 36 36" fill="none" xmlns="http://www.w3.org/2000/svg">
  <path d="M9 33C8.175 33 7.46875 32.7063 6.88125 32.1188C6.29375 31.5313 6 30.825 6 30V12C6 10.6 6.425 9.375 7.275 8.325C8.125 7.275 9.2 6.575 10.5 6.225V4.5C10.5 4.075 10.6438 3.71875 10.9313 3.43125C11.2188 3.14375 11.575 3 12 3H13.5C13.925 3 14.2812 3.14375 14.5688 3.43125C14.8563 3.71875 15 4.075 15 4.5V6H21V4.5C21 4.075 21.1438 3.71875 21.4313 3.43125C21.7188 3.14375 22.075 3 22.5 3H24C24.425 3 24.7812 3.14375 25.0688 3.43125C25.3563 3.71875 25.5 4.075 25.5 4.5V6.225C26.8 6.575 27.875 7.275 28.725 8.325C29.575 9.375 30 10.6 30 12V30C30 30.825 29.7063 31.5313 29.1188 32.1188C28.5312 32.7063 27.825 33 27 33H9ZM9 30H27V12C27 11.175 26.7063 10.4688 26.1188 9.88125C25.5312 9.29375 24.825 9 24 9H12C11.175 9 10.4688 9.29375 9.88125 9.88125C9.29375 10.4688 9 11.175 9 12V30ZM21.75 21V22.5C21.75 22.925 21.8938 23.2812 22.1813 23.5688C22.4688 23.8563 22.825 24 23.25 24C23.675 24 24.0312 23.8563 24.3188 23.5688C24.6063 23.2812 24.75 22.925 24.75 22.5V19.5C24.75 19.075 24.6063 18.7188 24.3188 18.4313C24.0312 18.1438 23.675 18 23.25 18H12.75C12.325 18 11.9688 18.1438 11.6813 18.4313C11.3938 18.7188 11.25 19.075 11.25 19.5C11.25 19.925 11.3938 20.2812 11.6813 20.5688C11.9688 20.8563 12.325 21 12.75 21H21.75Z" fill="#FF7500" />
</svg>