<svg width="20" height="20" viewBox="0 0 20 20" fill="none" xmlns="http://www.w3.org/2000/svg">
<rect width="20" height="20" rx="5" fill="#F4F5F6"/>
<path d="M14.5762 5.5C14.7376 5.5 14.8859 5.54475 15.0166 5.62891L15.1416 5.72559L15.1514 5.73535L15.2549 5.8623C15.3451 5.99608 15.3935 6.14881 15.3936 6.31641C15.3936 6.53987 15.3076 6.73743 15.1514 6.89844L8.00098 14.2646C7.85482 14.4152 7.67152 14.5 7.46094 14.5C7.25036 14.5 7.06706 14.4152 6.9209 14.2646L6.91992 14.2637L4.82422 12.0859C4.66975 11.9268 4.59946 11.7265 4.60742 11.5049C4.61523 11.2889 4.69114 11.0956 4.84082 10.9414C4.99332 10.7843 5.18836 10.7061 5.40723 10.7061C5.62589 10.7061 5.82025 10.7845 5.97266 10.9414L5.97363 10.9424L7.46094 12.4902L14.0186 5.73535C14.169 5.58033 14.3602 5.50006 14.5762 5.5Z" fill="#FF7500" stroke="#FF7500" stroke-width="0.5"/>
</svg>
