<svg width="36" height="36" viewBox="0 0 36 36" fill="none" xmlns="http://www.w3.org/2000/svg">
  <path d="M26.6558 7.49112L21.4717 5.49419C19.7511 4.8314 18.8909 4.5 18.0002 4.5C17.1093 4.5 16.249 4.8314 14.5284 5.49419L9.34412 7.49126C6.11471 8.73527 4.49999 9.35727 4.5 10.5003C4.50002 11.6434 6.11473 12.2653 9.34419 13.5092L14.5281 15.506C16.2486 16.1687 17.1087 16.5 17.9994 16.5C18.8901 16.5 19.7502 16.1687 21.4707 15.5061L26.6556 13.5091C29.8852 12.2653 31.5 11.6433 31.5 10.5003C31.5 9.35721 29.8853 8.73518 26.6558 7.49112Z" stroke="#F86800" stroke-width="2.25" stroke-linecap="round" stroke-linejoin="round" />
  <path d="M24.75 14.2578L26.6558 14.9919C29.8853 16.236 31.5 16.8579 31.5 18.0011C31.5 19.1441 29.8852 19.7661 26.6556 21.0099L21.4707 23.0069C19.7502 23.6694 18.8901 24.0008 17.9994 24.0008C17.1087 24.0008 16.2486 23.6694 14.5281 23.0067L9.34419 21.0101C6.11473 19.7661 4.50002 19.1442 4.5 18.0011C4.49999 16.8581 6.11471 16.236 9.34412 14.992L11.2502 14.2578" stroke="#F86800" stroke-width="2.25" stroke-linecap="round" stroke-linejoin="round" />
  <path d="M28.5 15.75L13.1413 22.3323M7.5 20.25L15.75 16.5" stroke="#F86800" stroke-width="2.25" stroke-linecap="round" stroke-linejoin="round" />
  <path d="M24.9528 21.834L26.6558 22.4899C29.8853 23.734 31.5 24.3561 31.5 25.4992C31.5 26.6422 29.8852 27.2641 26.6556 28.5081L21.4707 30.505C19.7502 31.1676 18.8901 31.4989 17.9994 31.4989C17.1087 31.4989 16.2486 31.1676 14.5281 30.5049L9.34419 28.5081C6.11473 27.2643 4.50002 26.6422 4.5 25.4992C4.49999 24.3561 6.11471 23.7342 9.34412 22.4901L11.0471 21.8341" stroke="#F86800" stroke-width="2.25" stroke-linecap="round" stroke-linejoin="round" />
</svg>