<svg width="130" height="120" viewBox="0 0 130 120" fill="none" xmlns="http://www.w3.org/2000/svg">
  <path d="M129.434 17.1188V130.999H4.9646V55.4796C4.9646 52.9963 4.97805 50.4999 4.99149 48.0165C4.97805 48.0427 4.97804 48.0558 4.9646 48.0819V17.1188H129.434Z" fill="#009FDC" />
  <path d="M129.434 17.1218C129.434 19.396 127.821 21.5657 124.877 23.5523C121.234 26.0226 115.562 28.2053 108.424 29.9436C107.026 30.2834 105.588 30.6102 104.083 30.8977C101.408 31.4467 98.5852 31.9303 95.6146 32.3354C87.0926 33.5509 77.4416 34.2306 67.1991 34.2306C58.946 34.2306 51.0558 33.7862 43.8511 32.9759C39.4557 32.5053 35.3291 31.878 31.4983 31.133C30.3154 30.9108 29.1729 30.6755 28.0572 30.4272C23.2586 29.3554 19.0514 28.0876 15.5835 26.6891C8.87611 23.9575 4.9646 20.6638 4.9646 17.1218C4.9646 7.67215 32.829 0 67.1991 0C101.569 0 129.434 7.67215 129.434 17.1218Z" fill="white" />
  <path d="M120.992 16.7775C120.992 18.5966 119.47 20.3277 116.711 21.9084C108.522 26.5751 89.4242 29.8619 67.1928 29.8619C44.9614 29.8619 25.8635 26.5751 17.675 21.9084C14.9154 20.3277 13.3938 18.5966 13.3938 16.7775C13.3938 9.55168 37.4821 3.70575 67.1928 3.70575C96.9035 3.70575 120.992 9.55168 120.992 16.7775Z" fill="#009FDC" />
  <path d="M116.963 22.0222C108.845 26.6263 89.9112 29.869 67.8712 29.869C45.8311 29.869 26.8976 26.6263 18.7795 22.0222C26.8976 17.4057 45.8311 14.1754 67.8712 14.1754C89.9112 14.1754 108.845 17.4057 116.963 22.0222Z" fill="#096744" />
  <path d="M31.4932 31.1302V63.4918C31.4932 67.7657 27.9312 71.2292 23.5358 71.2292C19.1404 71.2292 15.5784 67.7657 15.5784 63.4918V26.6863C19.0463 28.0848 23.2535 29.3526 28.0522 30.4244C29.1678 30.6727 30.3103 30.908 31.4932 31.1302Z" fill="#096744" />
  <path d="M43.844 32.9744V48.2011C43.844 52.475 40.282 55.9386 35.8866 55.9386C34.2602 55.9386 32.7547 55.4681 31.4912 54.6577C29.3406 53.2723 27.9292 50.8935 27.9292 48.2011V31.7458C27.9292 31.3015 27.9695 30.8571 28.0502 30.4258C29.1658 30.6741 30.3084 30.9093 31.4912 31.1315C35.3221 31.8765 39.4486 32.5039 43.844 32.9744Z" fill="#096744" />
  <path d="M124.875 23.5507V131H108.422V29.942C115.56 28.2036 121.232 26.0209 124.875 23.5507Z" fill="#096744" />
  <path d="M104.072 30.8941V130.998H95.6042V32.3318C98.5748 31.9266 101.398 31.443 104.072 30.8941Z" fill="#096744" />
  <path d="M118.937 41.2192C119.176 40.5072 119.967 40.1091 120.696 40.3521L120.697 40.3511L120.7 40.353H120.703L120.702 40.354C121.447 40.5881 121.831 41.363 121.592 42.0776L121.591 42.0796C120.673 44.7577 115.876 57.8432 106.047 71.3599C96.2175 84.8765 81.3397 98.8454 60.2578 103.246C54.0896 104.542 48.3218 105.184 43.0088 105.184C38.7354 105.184 34.7272 104.777 31.0127 103.911V103.912C27.244 103.084 23.7704 101.796 20.6064 100.074V100.075C17.8615 98.6021 15.3591 96.8135 13.0869 94.6831V94.6821C13.0167 94.6203 12.947 94.5531 12.8809 94.4888C12.8114 94.4212 12.7442 94.3558 12.6748 94.2944L12.668 94.2886C9.38268 91.1334 6.73304 87.4392 4.75977 83.3521V83.3511C-1.21181 71.1581 -1.38054 55.5145 4.75391 40.3071L5.17188 40.3882V47.8149L5.16406 47.8433C2.40506 57.8189 2.47396 67.8668 5.16211 76.5278V76.5288C6.76684 81.7561 9.33375 86.4856 12.793 90.4077L12.7959 90.4106C13.2242 90.9143 13.6829 91.3973 14.1621 91.8706L14.6484 92.3413L14.6494 92.3423C16.2389 93.8765 17.9097 95.1924 19.6357 96.3149L20.3789 96.7837L20.3799 96.7847C23.7317 98.8621 27.2721 100.24 30.8428 101.137C42.6984 104.117 54.6299 101.631 59.6719 100.585C79.9691 96.3399 94.3338 82.8073 103.855 69.6675C113.376 56.529 118.039 43.8046 118.937 41.2192Z" fill="white" stroke="white" stroke-width="0.433661" />
  <path d="M120.093 47.9356C122.551 47.9356 124.543 45.5949 124.543 42.7075C124.543 39.8202 122.551 37.4795 120.093 37.4795C117.636 37.4795 115.644 39.8202 115.644 42.7075C115.644 45.5949 117.636 47.9356 120.093 47.9356Z" fill="white" />
</svg>