<svg width="558" height="440" viewBox="0 0 558 440" fill="none" xmlns="http://www.w3.org/2000/svg">
  <rect width="558" height="558" transform="translate(0 -59)" fill="#096744" />
  <path d="M261.716 295L274.086 295C280.187 295 285.133 290.205 285.133 284.291L285.133 249.297C285.133 243.383 280.187 238.588 274.086 238.588L261.716 238.588C255.614 238.588 250.668 243.383 250.668 249.297L250.668 284.291C250.668 290.205 255.614 295 261.716 295Z" fill="#FF7500" />
  <path d="M255.006 232.174L280.796 232.174C283.191 232.174 285.133 230.291 285.133 227.969L285.133 223.275C285.133 220.953 283.191 219.07 280.796 219.07L255.006 219.07C252.61 219.07 250.668 220.953 250.668 223.275L250.668 227.969C250.668 230.291 252.61 232.174 255.006 232.174Z" fill="white" />
  <path d="M261.137 153.252L261.137 227.952C261.137 230.274 263.079 232.156 265.474 232.156L270.317 232.156C272.712 232.156 274.654 230.274 274.654 227.952L274.654 153.252C274.654 150.929 272.712 149.047 270.317 149.047L265.474 149.047C263.079 149.047 261.137 150.929 261.137 153.252Z" fill="white" />
  <path d="M204.807 246.997L204.807 191.095C204.807 190.133 205.371 189.285 206.207 188.794C213.559 184.59 218.499 176.86 218.499 167.979C218.499 158.515 212.898 150.351 204.729 146.372C202.881 145.467 200.684 146.731 200.684 148.729L200.684 161.098C200.684 162.568 199.458 163.756 197.941 163.756L189.189 163.756C187.672 163.756 186.447 162.568 186.447 161.098L186.447 148.729C186.447 146.712 184.249 145.467 182.401 146.372C174.232 150.351 168.631 158.515 168.631 167.979C168.631 176.841 173.571 184.59 180.923 188.794C181.779 189.285 182.323 190.133 182.323 191.095L182.323 246.997C182.323 247.959 181.759 248.807 180.923 249.297C173.571 253.502 168.631 261.232 168.631 270.112C168.631 279.577 174.232 287.741 182.401 291.719C184.249 292.624 186.447 291.361 186.447 289.363L186.447 275.165C186.447 273.695 187.672 272.507 189.189 272.507L197.941 272.507C199.458 272.507 200.684 273.695 200.684 275.165L200.684 289.363C200.684 291.38 202.881 292.624 204.729 291.719C212.898 287.741 218.499 279.577 218.499 270.112C218.499 261.251 213.559 253.502 206.207 249.297C205.352 248.807 204.807 247.959 204.807 246.997Z" fill="#FF7500" />
  <path d="M333.416 291.212L333.416 219.924L360.684 219.924L360.684 291.212C360.684 293.286 358.934 294.982 356.794 294.982L337.306 294.982C335.166 294.982 333.416 293.286 333.416 291.212Z" fill="white" />
  <path d="M338.713 175.785L338.713 252.842L355.245 252.842L355.245 175.785L338.713 175.785Z" fill="white" />
  <path d="M317.314 182.848L317.314 152.814C317.314 150.74 319.065 149.043 321.204 149.043L361.64 149.043L361.64 186.619L321.204 186.619C319.065 186.619 317.314 184.922 317.314 182.848Z" fill="#FF7500" />
  <path d="M371.01 186.621L371.01 149.045L384.741 149.045C386.881 149.045 388.631 150.742 388.631 152.816L388.631 182.85C388.631 184.924 386.881 186.621 384.741 186.621L371.01 186.621Z" fill="#FF7500" />
  <path d="M359.406 156.402L359.406 179.291L371.037 179.291L371.037 156.402L359.406 156.402Z" fill="#FF7500" />
</svg>