<svg width="558" height="440" viewBox="0 0 558 440" fill="none" xmlns="http://www.w3.org/2000/svg">
  <g clip-path="url(#clip0_32_9280)">
    <rect width="558" height="558" transform="translate(0 -59)" fill="#009FDC" />
    <path d="M173.697 577.993H135.246L133.631 195.095C133.631 125.016 190.693 68 260.829 68H265.751C335.887 68 392.949 125.016 392.949 195.095H354.497C354.497 146.186 314.661 106.42 265.751 106.42H260.829C211.88 106.42 172.083 146.224 172.083 195.095L173.697 577.993Z" fill="#FF7500" />
    <path d="M373.07 269.32C396.663 269.32 415.789 250.21 415.789 226.635C415.789 203.061 396.663 183.95 373.07 183.95C349.476 183.95 330.35 203.061 330.35 226.635C330.35 250.21 349.476 269.32 373.07 269.32Z" fill="#096744" />
    <path d="M285.357 274.479H272.937V578.231H285.357V274.479Z" fill="white" />
    <path d="M308.82 274.48H296.4V578.232H308.82V274.48Z" fill="white" />
    <path d="M332.314 274.48H319.895V578.232H332.314V274.48Z" fill="white" />
    <path d="M355.801 274.48H343.381V578.232H355.801V274.48Z" fill="white" />
    <path d="M379.266 274.48H366.847V578.232H379.266V274.48Z" fill="white" />
    <path d="M402.746 274.48H390.326V578.232H402.746V274.48Z" fill="white" />
    <path d="M426.247 274.479H413.827V578.231H426.247V274.479Z" fill="white" />
    <path d="M449.71 274.479H437.29V578.231H449.71V274.479Z" fill="white" />
    <path d="M473.202 274.479H460.782V578.231H473.202V274.479Z" fill="white" />
    <path d="M332.811 220.908H413.329C446.397 220.908 473.198 247.725 473.198 280.728H272.903C272.903 247.687 299.743 220.908 332.773 220.908H332.811Z" fill="#FF7500" />
  </g>
  <defs>
    <clipPath id="clip0_32_9280">
      <rect width="558" height="558" fill="white" transform="translate(0 -59)" />
    </clipPath>
  </defs>
</svg>