<svg width="150" height="150" viewBox="0 0 150 150" fill="none" xmlns="http://www.w3.org/2000/svg">
<rect width="150" height="150" rx="75" fill="#096744"/>
<g clip-path="url(#clip0_53_24444)">
<path d="M128 74.6178C128 59.8927 116.067 47.9591 101.342 47.9591L112.388 36.9135C101.974 26.4998 85.0969 26.4998 74.6832 36.9135V21.293C59.9581 21.293 48.0246 33.2265 48.0246 47.9516L36.9789 36.9059C26.5652 47.3196 26.5652 64.1966 36.9789 74.6102H21.3584C21.3584 89.3353 33.292 101.269 48.017 101.269L36.9713 112.315C47.385 122.728 64.262 122.728 74.6757 112.315V127.935C89.4008 127.935 101.334 116.001 101.334 101.276L112.38 112.322C122.794 101.908 122.794 85.0314 112.38 74.6178H128ZM74.6832 84.2715C69.3485 84.2715 65.0295 79.945 65.0295 74.6178C65.0295 69.2906 69.356 64.9641 74.6832 64.9641C80.0104 64.9641 84.3369 69.2906 84.3369 74.6178C84.3369 79.945 80.0104 84.2715 74.6832 84.2715Z" fill="#FF7500"/>
</g>
<defs>
<clipPath id="clip0_53_24444">
<rect width="107" height="107" fill="white" transform="translate(21 21)"/>
</clipPath>
</defs>
</svg>
