<svg width="558" height="440" viewBox="0 0 558 440" fill="none" xmlns="http://www.w3.org/2000/svg">
  <rect width="558" height="558" transform="translate(0 -59)" fill="#2C4F77" />
  <path d="M396.559 162.824H160.631V315.132H396.559V162.824Z" fill="#FF7500" />
  <path d="M172.122 124H160.631V161.445H172.122V124Z" fill="white" />
  <path d="M194.241 124H182.75V161.445H194.241V124Z" fill="white" />
  <path d="M216.352 124H204.861V161.445H216.352V124Z" fill="white" />
  <path d="M238.46 124H226.969V161.445H238.46V124Z" fill="white" />
  <path d="M260.585 124H249.094V161.445H260.585V124Z" fill="white" />
  <path d="M282.684 124H271.193V161.445H282.684V124Z" fill="white" />
  <path d="M304.796 124H293.305V161.445H304.796V124Z" fill="white" />
  <path d="M326.915 124H315.424V161.445H326.915V124Z" fill="white" />
  <path d="M349.026 124H337.535V161.445H349.026V124Z" fill="white" />
  <path d="M372.214 124H360.723V161.445H372.214V124Z" fill="white" />
  <path d="M395.397 124H383.906V161.445H395.397V124Z" fill="white" />
  <path d="M239.628 161.445L200.141 199.724L160.654 161.445C191.505 161.445 208.796 161.445 239.647 161.445H239.628Z" fill="#096744" />
  <path d="M318.611 161.445L279.124 199.724L239.637 161.445C270.487 161.445 287.779 161.445 318.629 161.445H318.611Z" fill="#096744" />
  <path d="M397.613 161.445L358.126 199.724L318.639 161.445C349.489 161.445 366.781 161.445 397.631 161.445H397.613Z" fill="#096744" />
  <path d="M239.628 199.723L200.141 238.001L160.654 199.723C191.505 199.723 208.796 199.723 239.647 199.723H239.628Z" fill="#096744" />
  <path d="M318.611 199.723L279.124 238.001L239.637 199.723C270.487 199.723 287.779 199.723 318.629 199.723H318.611Z" fill="#096744" />
  <path d="M397.613 199.723L358.126 238.001L318.639 199.723C349.489 199.723 366.781 199.723 397.631 199.723H397.613Z" fill="#096744" />
  <path d="M239.628 238.004L200.141 276.282L160.654 238.004C191.505 238.004 208.796 238.004 239.647 238.004H239.628Z" fill="#096744" />
  <path d="M318.611 238.004L279.124 276.282L239.637 238.004C270.487 238.004 287.779 238.004 318.629 238.004H318.611Z" fill="#096744" />
  <path d="M397.613 238.002L358.126 276.28L318.639 238.002C349.489 238.002 366.781 238.002 397.631 238.002H397.613Z" fill="#096744" />
  <path d="M239.628 276.297L200.141 314.575L160.654 276.297C191.505 276.297 208.796 276.297 239.647 276.297H239.628Z" fill="#096744" />
  <path d="M318.611 276.297L279.124 314.575L239.637 276.297C270.487 276.297 287.779 276.297 318.629 276.297H318.611Z" fill="#096744" />
  <path d="M397.613 276.295L358.126 314.573L318.639 276.295C349.489 276.295 366.781 276.295 397.631 276.295H397.613Z" fill="#096744" />
</svg>