<svg width="1184" height="140" viewBox="0 0 1184 140" fill="none" xmlns="http://www.w3.org/2000/svg">
<path d="M-75.7382 -0.362732H64.6245V140H-75.7382V-0.362732Z" fill="#30547D"/>
<path d="M-75.7407 -0.365326C-75.7407 77.1547 -12.8983 139.998 64.6217 139.998L64.6217 -0.365332L-75.7407 -0.365326Z" fill="#2C4F77"/>
<path d="M-39.0771 -0.365982C-39.0771 56.9062 7.35091 103.335 64.623 103.335V69.7483C25.9006 69.7483 -5.49023 38.3564 -5.49023 -0.365982H-39.0771Z" fill="#30547D"/>
<path d="M204.987 -0.362747H64.6245V140H204.987V-0.362747Z" fill="#30547D"/>
<path d="M204.99 -0.365341C204.99 77.1546 142.147 139.998 64.6273 139.998L64.6273 -0.365347L204.99 -0.365341Z" fill="#2C4F77"/>
<path d="M168.326 -0.365997C168.326 56.9061 121.898 103.335 64.626 103.335V69.7483C103.348 69.7482 134.739 38.3564 134.739 -0.365997H168.326Z" fill="#30547D"/>
<path d="M344.52 139.568C306.015 139.568 274.774 108.309 274.774 69.8261C274.774 31.3237 306.035 0.0847456 344.52 0.0847473L344.52 139.587L344.52 139.568Z" fill="#30547D"/>
<path d="M204.99 0.0664717C243.495 0.0664734 274.736 31.3251 274.736 69.8078C274.736 108.31 243.475 139.549 204.99 139.549L204.99 0.0467682L204.99 0.0664717Z" fill="#30547D"/>
<path d="M344.524 -0.364029L344.524 139.999L484.886 139.999L484.886 -0.364035L344.524 -0.364029Z" fill="#30547D"/>
<path d="M344.521 -0.364792C422.041 -0.364792 484.884 62.4776 484.884 139.998L344.521 139.998L344.521 -0.364792Z" fill="#2C4F77"/>
<path d="M344.521 36.2974C401.793 36.2974 448.222 82.7255 448.222 139.998L344.521 139.998L344.521 139.997L414.635 139.997C414.635 101.274 383.243 69.8833 344.521 69.8833L344.521 36.2974Z" fill="#30547D"/>
<path d="M624.403 0.0852401C585.898 0.0852405 554.657 31.3439 554.657 69.8268C554.657 108.329 585.918 139.568 624.403 139.568L624.403 0.0655365L624.403 0.0852401Z" fill="#30547D"/>
<path d="M554.633 0.0852553C516.128 0.0852558 484.887 31.344 484.887 69.8268C484.887 108.329 516.148 139.568 554.633 139.568L554.633 0.0655518L554.633 0.0852553Z" fill="#30547D"/>
<path d="M624.406 -0.362793H764.769V140H624.406V-0.362793Z" fill="#30547D"/>
<path d="M624.403 -0.365372C624.403 77.1546 687.245 139.998 764.765 139.998L764.765 -0.365378L624.403 -0.365372Z" fill="#2C4F77"/>
<path d="M661.066 -0.366028C661.066 56.9061 707.494 103.335 764.766 103.335V69.7482C726.044 69.7481 694.653 38.3563 694.653 -0.366028H661.066Z" fill="#30547D"/>
<path d="M905.132 -0.362808H764.769V140H905.132V-0.362808Z" fill="#30547D"/>
<path d="M905.135 -0.365387C905.135 77.1546 842.293 139.998 764.773 139.998L764.773 -0.365393L905.135 -0.365387Z" fill="#2C4F77"/>
<path d="M868.472 -0.366043C868.472 56.906 822.044 103.335 764.772 103.335V69.7482C803.495 69.7481 834.885 38.3563 834.885 -0.366043H868.472Z" fill="#30547D"/>
<path d="M1044.67 139.567C1006.16 139.567 974.919 108.309 974.919 69.8261C974.919 31.3236 1006.18 0.0846846 1044.67 0.0846863L1044.67 139.587L1044.67 139.567Z" fill="#30547D"/>
<path d="M905.135 0.0663954C943.641 0.0663971 974.882 31.325 974.882 69.8078C974.882 108.31 943.621 139.549 905.135 139.549L905.135 0.0466919L905.135 0.0663954Z" fill="#30547D"/>
<path d="M1184.17 139.563C1145.67 139.563 1114.43 108.302 1114.43 69.816C1114.43 31.3107 1145.69 0.0694003 1184.17 0.069397L1184.17 139.582L1184.17 139.563Z" fill="#30547D"/>
<path d="M1044.67 0.0712339C1083.17 0.0712305 1114.41 31.3322 1114.41 69.8178C1114.41 108.323 1083.15 139.564 1044.67 139.564L1044.67 0.0515289L1044.67 0.0712339Z" fill="#30547D"/>
</svg>
