<svg width="36" height="36" viewBox="0 0 36 36" fill="none" xmlns="http://www.w3.org/2000/svg">
  <path d="M16.0392 18.0004L12.3652 14.3264L16.0392 10.6523" stroke="#FF7E21" stroke-width="2" stroke-linecap="round" stroke-linejoin="round" />
  <path fill-rule="evenodd" clip-rule="evenodd" d="M21.4381 31.0073L18.9677 29.3614C18.5283 29.0689 17.9566 29.0689 17.5186 29.3614L15.0482 31.0073C14.6088 31.2998 14.0372 31.2998 13.5992 31.0073L11.1303 29.3599C10.6909 29.0675 10.1192 29.0675 9.68125 29.3599L8.51732 30.1359C7.64879 30.7149 6.48633 30.0918 6.48633 29.0498V7.38639C6.48633 5.94324 7.65613 4.77344 9.09928 4.77344H27.387C28.8302 4.77344 30 5.94324 30 7.38639V29.0498C30 30.0933 28.8375 30.7149 27.969 30.1373L26.8051 29.3614C26.3657 29.0689 25.794 29.0689 25.3561 29.3614L22.8856 31.0073C22.4477 31.2998 21.876 31.2998 21.4381 31.0073V31.0073Z" stroke="#FF7E21" stroke-width="3" stroke-linecap="round" stroke-linejoin="round" />
  <path d="M12.3652 14.3262H20.0807C22.313 14.3262 24.1221 16.1353 24.1221 18.3676V18.3676C24.1221 20.5999 22.313 22.409 20.0807 22.409H18.2437" stroke="#FF7E21" stroke-width="2" stroke-linecap="round" stroke-linejoin="round" />
</svg>