<svg width="558" height="440" viewBox="0 0 558 440" fill="none" xmlns="http://www.w3.org/2000/svg">
<rect width="558" height="558" transform="translate(0 -59)" fill="#096744"/>
<g clip-path="url(#clip0_53_22849)">
<g clip-path="url(#clip1_53_22849)">
<path d="M154.419 129.264H403.392C404.489 129.264 405.575 129.48 406.588 129.899C407.601 130.319 408.522 130.934 409.298 131.71C410.073 132.486 410.689 133.406 411.108 134.42C411.528 135.433 411.744 136.519 411.744 137.616V328.165C411.744 330.378 410.866 332.499 409.302 334.063C407.738 335.628 405.617 336.507 403.405 336.508H154.425C152.211 336.508 150.087 335.628 148.522 334.063C146.956 332.497 146.076 330.373 146.076 328.159V137.606C146.076 135.394 146.955 133.272 148.52 131.707C150.084 130.143 152.206 129.264 154.419 129.264Z" fill="#FF7500"/>
<g clip-path="url(#clip2_53_22849)">
<path d="M321.493 251.873H323.582V260.023H321.493V256.85H317.846V260.023H315.757V251.873H317.846V254.878H321.493V251.873ZM324.569 253.892H327.17V260.023H329.26V253.892H331.827V251.873H324.567V253.895L324.569 253.892ZM341.968 258.251V259.984C341.61 260.163 341.166 260.253 340.645 260.253C339.56 260.253 339.012 259.776 338.794 259.012L338.76 259.063C338.128 259.86 337.253 260.253 336.12 260.253C334.988 260.253 334.112 259.846 333.335 259.015C332.571 258.184 332.182 257.156 332.182 255.951C332.182 254.746 332.574 253.732 333.335 252.904C334.112 252.072 335.035 251.648 336.12 251.648C337.205 251.648 338.05 252.008 338.677 252.735V251.876H340.766V257.642C340.766 258.133 340.99 258.389 341.434 258.389C341.644 258.389 341.817 258.344 341.968 258.254M338.758 255.948C338.758 255.28 338.545 254.726 338.112 254.302C337.689 253.861 337.155 253.648 336.506 253.648C335.857 253.648 335.323 253.861 334.904 254.302C334.481 254.724 334.272 255.28 334.272 255.948C334.272 256.616 334.481 257.17 334.904 257.613C335.323 258.035 335.86 258.248 336.506 258.248C337.152 258.248 337.689 258.035 338.112 257.613C338.548 257.173 338.758 256.619 338.758 255.948ZM298.54 251.873L298.475 254.934C298.461 256.173 298.417 256.788 298.24 257.49C298.078 258.161 297.765 258.349 297.275 258.349C297.113 258.349 296.965 258.335 296.845 258.29V260.023C297.007 260.113 297.275 260.158 297.631 260.158C299.102 260.113 299.812 259.416 300.167 258.161C300.419 257.265 300.464 256.577 300.509 255.549L300.556 253.898H303.152V260.029H305.241V251.879H298.534L298.54 251.873ZM308.603 256.499C308.826 257.889 309.925 258.346 311.039 258.346C311.774 258.346 312.549 258.054 313.024 257.625L314.314 258.931C313.542 259.787 312.47 260.256 311.008 260.256C308.958 260.256 306.483 259.037 306.483 255.951C306.483 252.864 308.865 251.648 310.887 251.648C313.447 251.648 314.507 252.856 314.507 254.215C314.507 256.434 311.704 257.456 308.608 256.501L308.603 256.499ZM312.233 254.448C312.233 253.817 311.612 253.533 310.913 253.533C309.847 253.533 308.927 253.985 308.647 255.148C310.818 255.777 312.233 255.305 312.233 254.446V254.448Z" fill="white"/>
<path d="M273.887 257.338C270.035 248.329 261.074 242.01 250.637 242.01C254.485 251.022 263.449 257.344 273.889 257.344C281.561 257.344 288.161 252.8 291.143 246.259C283.471 246.259 276.868 250.803 273.889 257.341L273.887 257.338Z" fill="white"/>
<path d="M273.906 206.848C263.429 206.848 255.089 215.076 255.089 225.742C255.089 236.409 263.429 244.637 273.906 244.637C284.383 244.637 292.798 236.406 292.798 225.742C292.798 215.079 284.383 206.848 273.906 206.848ZM273.906 235.619C268.483 235.619 264.279 231.542 264.279 225.74C264.279 219.938 268.416 215.86 273.906 215.86C279.396 215.86 283.602 219.943 283.602 225.74C283.602 231.536 279.329 235.619 273.906 235.619Z" fill="white"/>
<path d="M249.252 225.742C249.252 215.722 240.987 207.97 230.639 207.833H230.538C230.491 207.833 230.443 207.83 230.396 207.83L215.106 207.833C214.076 207.833 213.24 208.673 213.24 209.706V214.837C213.24 214.859 213.24 214.879 213.243 214.899V241.769C213.243 241.769 213.243 241.772 213.243 241.775V241.789C213.243 242.822 214.079 243.662 215.109 243.662H230.645V243.657C240.987 243.513 249.252 235.765 249.252 225.748V225.742ZM230.524 234.782H222.081V216.705H230.639C235.989 216.823 240.053 220.339 240.053 225.739C240.053 231.14 235.864 234.706 230.524 234.782Z" fill="white"/>
<path d="M340.624 209.67C340.621 208.653 339.799 207.83 338.786 207.83H333.355C332.706 207.83 332.105 208.173 331.775 208.734L320.095 228.531L308.072 208.715C307.739 208.164 307.143 207.83 306.503 207.83H301.06C300.045 207.83 299.223 208.656 299.223 209.675V241.814C299.223 242.834 300.045 243.659 301.06 243.659H306.715C307.731 243.659 308.553 242.834 308.553 241.814V225.18L317.167 239.29C317.486 239.809 318.051 240.126 318.658 240.126H321.172C321.787 240.126 322.358 239.801 322.674 239.27L331.347 224.661L331.386 241.82C331.386 242.837 332.211 243.659 333.223 243.659H338.879C339.894 243.659 340.719 242.831 340.716 241.809L340.624 209.67Z" fill="white"/>
</g>
<path d="M146.076 182.824V186.294H411.751V182.824H146.076ZM146.076 282.96H411.751V279.487H146.083L146.076 282.96Z" fill="#F4F4F4"/>
<path d="M326.34 146.297C326.33 148.508 325.447 150.625 323.884 152.188C322.32 153.751 320.202 154.633 317.991 154.643H239.748C237.539 154.635 235.423 153.753 233.862 152.189C232.302 150.625 231.424 148.506 231.422 146.297V112.4C231.423 110.19 232.3 108.07 233.86 106.505C235.421 104.94 237.538 104.058 239.748 104.051H317.991C320.203 104.059 322.322 104.942 323.886 106.506C325.449 108.069 326.332 110.188 326.34 112.4V146.297Z" fill="#F4F4F4"/>
<path d="M306.518 116.217H252.788V122.714H306.518V116.217Z" fill="#096744"/>
<path d="M306.518 135.465H252.788V141.936H306.518V135.465Z" fill="#096744"/>
</g>
</g>
<defs>
<clipPath id="clip0_53_22849">
<rect width="266" height="266" fill="white" transform="translate(145.631 87)"/>
</clipPath>
<clipPath id="clip1_53_22849">
<rect width="266" height="232.459" fill="white" transform="translate(146.076 104.051)"/>
</clipPath>
<clipPath id="clip2_53_22849">
<rect width="128.729" height="53.4103" fill="white" transform="translate(214.38 206.213)"/>
</clipPath>
</defs>
</svg>
