<svg width="558" height="440" viewBox="0 0 558 440" fill="none" xmlns="http://www.w3.org/2000/svg">
  <g clip-path="url(#clip0_32_5398)">
    <rect width="558" height="558" transform="translate(0 -59)" fill="#FF7500" />
    <path d="M244.226 212.054L141.392 636.068L107.521 628.349L210.354 204.335L244.226 212.054Z" fill="#096744" stroke="#096744" stroke-width="5.13908" />
    <path d="M396.586 219.063L296.483 631.819L262.611 624.1L362.715 211.343L396.586 219.063Z" fill="#096744" stroke="#096744" stroke-width="5.13908" />
    <path d="M322.777 59.9092C330.899 59.9092 337.657 66.2261 340.374 74.9541L345.218 90.4531L346.26 93.7891H190.697V59.9092H322.777Z" fill="#096744" stroke="#096744" stroke-width="5.13908" />
    <path d="M185.306 60.9086L415.904 611.968L383.647 624.653L161.615 94.0616C156.69 82.2912 164.87 68.9449 178.272 63.6747L185.306 60.9086Z" fill="white" stroke="white" stroke-width="5.13908" />
    <path d="M298.932 67.3104L528.326 618.842L560.61 606.224L339.737 75.1785C334.837 63.398 319.385 59.3164 305.972 64.5588L298.932 67.3104Z" fill="#096744" stroke="#096744" stroke-width="5.13908" />
    <path d="M401.703 224.518L402.369 226.078L414.647 254.819L416.177 258.398H235.739L236.217 255.421L240.825 226.68L241.172 224.518H401.703Z" fill="white" stroke="white" stroke-width="5.13908" />
    <path d="M453.462 357.735L275.453 358.054L272.879 358.058V324.174H443.43L444.086 325.762L455.832 354.183L457.297 357.727L453.462 357.735Z" fill="white" stroke="white" stroke-width="5.13908" />
    <path d="M316.301 457.727V423.847H485.285L485.936 425.451L497.588 454.192L499.021 457.727H316.301Z" fill="white" stroke="white" stroke-width="5.13908" />
  </g>
  <defs>
    <clipPath id="clip0_32_5398">
      <rect width="558" height="558" fill="white" transform="translate(0 -59)" />
    </clipPath>
  </defs>
</svg>