<svg width="36" height="36" viewBox="0 0 36 36" fill="none" xmlns="http://www.w3.org/2000/svg">
  <path d="M28.65 33C28.5 33 28.3625 32.975 28.2375 32.925C28.1125 32.875 27.9875 32.7875 27.8625 32.6625L18.7875 23.5875C18.6625 23.4625 18.575 23.3375 18.525 23.2125C18.475 23.0875 18.45 22.95 18.45 22.8C18.45 22.65 18.475 22.5125 18.525 22.3875C18.575 22.2625 18.6625 22.1375 18.7875 22.0125L21.975 18.825C22.1 18.7 22.225 18.6125 22.35 18.5625C22.475 18.5125 22.6125 18.4875 22.7625 18.4875C22.9125 18.4875 23.05 18.5125 23.175 18.5625C23.3 18.6125 23.425 18.7 23.55 18.825L32.625 27.9C32.75 28.025 32.8375 28.15 32.8875 28.275C32.9375 28.4 32.9625 28.5375 32.9625 28.6875C32.9625 28.8375 32.9375 28.975 32.8875 29.1C32.8375 29.225 32.75 29.35 32.625 29.475L29.4375 32.6625C29.3125 32.7875 29.1875 32.875 29.0625 32.925C28.9375 32.975 28.8 33 28.65 33ZM28.65 30.3L30.2625 28.6875L22.7625 21.1875L21.15 22.8L28.65 30.3ZM7.3125 33C7.1625 33 7.01875 32.975 6.88125 32.925C6.74375 32.875 6.6125 32.7875 6.4875 32.6625L3.3375 29.5125C3.2125 29.3875 3.125 29.2563 3.075 29.1188C3.025 28.9813 3 28.8375 3 28.6875C3 28.5375 3.025 28.4 3.075 28.275C3.125 28.15 3.2125 28.025 3.3375 27.9L11.775 19.4625H14.9625L16.3875 18.0375L9.825 11.475H7.6875L3 6.7875L6.7125 3.075L11.4 7.7625V9.9L17.9625 16.4625L22.8375 11.5875L20.325 9.075L22.425 6.975H18.1875L17.5125 6.3L22.3125 1.5L22.9875 2.175V6.4125L25.0875 4.3125L31.425 10.65C31.8 11.025 32.0938 11.4563 32.3063 11.9438C32.5188 12.4313 32.625 12.95 32.625 13.5C32.625 14 32.5438 14.4813 32.3813 14.9438C32.2188 15.4063 31.9875 15.825 31.6875 16.2L28.5 13.0125L26.4 15.1125L24.45 13.1625L16.5375 21.075V24.225L8.1 32.6625C7.975 32.7875 7.85 32.875 7.725 32.925C7.6 32.975 7.4625 33 7.3125 33ZM7.3125 30.3L14.8125 22.8V21.1875H13.2L5.7 28.6875L7.3125 30.3ZM7.3125 30.3L5.7 28.6875L6.525 29.475L7.3125 30.3Z" fill="#F86800" />
</svg>