<svg width="36" height="36" viewBox="0 0 36 36" fill="none" xmlns="http://www.w3.org/2000/svg">
  <path d="M10.5 20.55C9.8 20.55 9.2 20.3 8.7 19.8C8.2 19.3 7.95 18.7 7.95 18C7.95 17.3 8.2 16.7 8.7 16.2C9.2 15.7 9.8 15.45 10.5 15.45C11.2 15.45 11.8 15.7 12.3 16.2C12.8 16.7 13.05 17.3 13.05 18C13.05 18.7 12.8 19.3 12.3 19.8C11.8 20.3 11.2 20.55 10.5 20.55ZM10.5 27C8 27 5.875 26.125 4.125 24.375C2.375 22.625 1.5 20.5 1.5 18C1.5 15.5 2.375 13.375 4.125 11.625C5.875 9.875 8 9 10.5 9C12.3 9 13.875 9.425 15.225 10.275C16.575 11.125 17.6375 12.4125 18.4125 14.1375H31.3125C31.4625 14.1375 31.6 14.1625 31.725 14.2125C31.85 14.2625 31.975 14.35 32.1 14.475L35.175 17.55C35.3 17.675 35.3875 17.8063 35.4375 17.9438C35.4875 18.0813 35.5125 18.225 35.5125 18.375C35.5125 18.525 35.4813 18.6625 35.4188 18.7875C35.3563 18.9125 35.2625 19.0375 35.1375 19.1625L30.45 23.475C30.35 23.575 30.2375 23.65 30.1125 23.7C29.9875 23.75 29.8625 23.775 29.7375 23.775C29.6125 23.775 29.4938 23.7625 29.3813 23.7375C29.2688 23.7125 29.15 23.6625 29.025 23.5875L26.4375 21.7125L23.8125 23.625C23.7125 23.7 23.6063 23.75 23.4938 23.775C23.3813 23.8 23.2625 23.8125 23.1375 23.8125C23.0125 23.8125 22.8938 23.7938 22.7812 23.7563C22.6688 23.7188 22.5625 23.6625 22.4625 23.5875L20.325 21.8625H18.4125C17.7875 23.3625 16.8063 24.5938 15.4688 25.5563C14.1313 26.5188 12.475 27 10.5 27ZM10.5 24.75C11.95 24.75 13.2875 24.2688 14.5125 23.3063C15.7375 22.3438 16.525 21.1125 16.875 19.6125H21.15L23.175 21.3C23.15 21.3 23.15 21.3 23.175 21.3L26.475 18.9375L29.55 21.2625L32.7375 18.3L30.825 16.3875H16.875C16.575 14.9875 15.825 13.7812 14.625 12.7688C13.425 11.7563 12.05 11.25 10.5 11.25C8.625 11.25 7.03125 11.9062 5.71875 13.2188C4.40625 14.5312 3.75 16.125 3.75 18C3.75 19.875 4.40625 21.4688 5.71875 22.7813C7.03125 24.0938 8.625 24.75 10.5 24.75Z" fill="#F86800" />
</svg>