<svg width="150" height="150" viewBox="0 0 150 150" fill="none" xmlns="http://www.w3.org/2000/svg">
<rect width="150" height="150" rx="75" fill="#009FDC"/>
<rect width="57.1912" height="43.9391" rx="21.9696" transform="matrix(0.948905 0.315562 0.315568 -0.948903 38.4922 85.7949)" fill="#FF7500"/>
<path d="M123.314 91.01C119.467 102.577 106.972 108.835 95.405 104.989L92.9994 104.189C91.2007 103.59 89.2571 104.564 88.6589 106.363L88.3283 107.357C84.3599 119.289 71.4701 125.745 59.538 121.777C47.6062 117.809 41.15 104.919 45.1179 92.9872L45.4486 91.9929C46.0467 90.1942 45.0733 88.2507 43.2745 87.6525L40.7336 86.8075C29.167 82.9607 22.9085 70.4658 26.7551 58.8991C30.6017 47.3323 43.0968 41.0741 54.6636 44.9205L57.2045 45.7655C59.0033 46.3636 60.9468 45.3902 61.545 43.5914L61.8766 42.5943C65.8448 30.6624 78.7348 24.2063 90.6668 28.1741C102.599 32.1422 109.055 45.032 105.087 56.9641L104.755 57.9612C104.157 59.7599 105.131 61.7035 106.929 62.3016L109.335 63.1016C120.902 66.9483 127.16 79.4431 123.314 91.01ZM86.3575 78.6728C88.4496 72.3819 85.3864 66.0991 78.7856 63.9037C72.1845 61.7085 65.9432 64.9826 63.8766 71.1967C61.8101 77.4108 64.8275 83.8524 71.4221 86.0454C78.0166 88.2383 84.2654 84.9636 86.3575 78.6728Z" fill="white"/>
</svg>
