<svg width="36" height="36" viewBox="0 0 36 36" fill="none" xmlns="http://www.w3.org/2000/svg">
  <path d="M13.0875 26.625H22.9125C23.2313 26.625 23.4985 26.5165 23.7143 26.2995C23.9298 26.0828 24.0375 25.814 24.0375 25.4933C24.0375 25.1728 23.9298 24.9062 23.7143 24.6938C23.4985 24.4813 23.2313 24.375 22.9125 24.375H13.0875C12.7688 24.375 12.5016 24.4835 12.2861 24.7005C12.0704 24.9172 11.9625 25.186 11.9625 25.5068C11.9625 25.8273 12.0704 26.0938 12.2861 26.3063C12.5016 26.5188 12.7688 26.625 13.0875 26.625ZM13.0875 20.25H22.9125C23.2313 20.25 23.4985 20.1415 23.7143 19.9245C23.9298 19.7078 24.0375 19.439 24.0375 19.1183C24.0375 18.7978 23.9298 18.5313 23.7143 18.3188C23.4985 18.1063 23.2313 18 22.9125 18H13.0875C12.7688 18 12.5016 18.1085 12.2861 18.3255C12.0704 18.5423 11.9625 18.811 11.9625 19.1318C11.9625 19.4522 12.0704 19.7188 12.2861 19.9313C12.5016 20.1438 12.7688 20.25 13.0875 20.25ZM8.25 33C7.65 33 7.125 32.775 6.675 32.325C6.225 31.875 6 31.35 6 30.75V5.25C6 4.65 6.225 4.125 6.675 3.675C7.125 3.225 7.65 3 8.25 3H20.85C21.161 3 21.4575 3.0625 21.7395 3.1875C22.0215 3.3125 22.2625 3.475 22.4625 3.675L29.325 10.5375C29.525 10.7375 29.6875 10.9785 29.8125 11.2605C29.9375 11.5425 30 11.839 30 12.15V30.75C30 31.35 29.775 31.875 29.325 32.325C28.875 32.775 28.35 33 27.75 33H8.25ZM20.6625 11.1V5.25H8.25V30.75H27.75V12.225H21.7875C21.4688 12.225 21.2016 12.1171 20.9861 11.9014C20.7704 11.6859 20.6625 11.4188 20.6625 11.1Z" fill="#F86800" />
</svg>