<svg width="1184" height="141" viewBox="0 0 1184 141" fill="none" xmlns="http://www.w3.org/2000/svg">
  <g opacity="0.1">
    <path d="M240.938 -102.502C240.897 -102.51 240.858 -102.496 240.835 -102.464L114.757 69.1221C100.834 88.0706 70.3086 81.976 59.1389 58.0175L-16.1222 -103.414C-27.5514 -127.929 -10.2145 -152.646 14.888 -147.634C93.0408 -132.031 150.853 -120.488 240.938 -102.502Z" fill="white" />
    <path d="M610 -60.7285C609.96 -60.7366 609.921 -60.7223 609.898 -60.6909L529.655 48.516C495.053 95.6077 419.19 80.461 391.43 20.9185C363.026 -40.0074 406.095 -101.44 468.48 -88.9841C511.606 -80.3737 554.729 -71.7639 610 -60.7285Z" fill="white" />
    <path d="M979.063 -18.9551C979.022 -18.9632 978.983 -18.9489 978.96 -18.9175L868.78 131.033C847.684 159.743 801.434 150.508 784.51 114.208L735.353 8.76839C718.036 -28.3757 744.305 -65.8262 782.339 -58.2325C846.609 -45.4005 900.592 -34.6224 979.063 -18.9551Z" fill="white" />
    <path d="M1348.13 22.8184C1348.08 22.8103 1348.05 22.8245 1348.02 22.8559L1267.78 132.063C1233.18 179.155 1157.31 164.008 1129.56 104.465C1101.15 43.5394 1144.22 -17.893 1206.61 -5.4372C1249.73 3.17318 1292.85 11.7829 1348.13 22.8184Z" fill="white" />
  </g>
</svg>