<svg width="150" height="150" viewBox="0 0 150 150" fill="none" xmlns="http://www.w3.org/2000/svg">
  <g clip-path="url(#clip0_32_10149)">
    <rect width="150" height="150" rx="75" fill="#009FDC" />
    <path d="M40.9143 178.653H29.4802L29 64.7933C29 43.9544 45.9682 27 66.8241 27H68.2876C89.1434 27 106.112 43.9544 106.112 64.7933H94.6775C94.6775 50.2495 82.8318 38.4248 68.2876 38.4248H66.8241C52.2684 38.4248 40.4341 50.2609 40.4341 64.7933L40.9143 178.653Z" fill="#FF7500" />
    <path d="M100.2 86.8655C107.216 86.8655 112.904 81.1826 112.904 74.1725C112.904 67.1623 107.216 61.4795 100.2 61.4795C93.1846 61.4795 87.4971 67.1623 87.4971 74.1725C87.4971 81.1826 93.1846 86.8655 100.2 86.8655Z" fill="#096744" />
    <path d="M74.1181 88.3994H70.4248V178.724H74.1181V88.3994Z" fill="white" />
    <path d="M81.0955 88.3999H77.4023V178.725H81.0955V88.3999Z" fill="white" />
    <path d="M88.0819 88.3999H84.3887V178.725H88.0819V88.3999Z" fill="white" />
    <path d="M95.0653 88.3999H91.3721V178.725H95.0653V88.3999Z" fill="white" />
    <path d="M102.044 88.3999H98.3506V178.725H102.044V88.3999Z" fill="white" />
    <path d="M109.025 88.3999H105.332V178.725H109.025V88.3999Z" fill="white" />
    <path d="M116.014 88.3994H112.32V178.724H116.014V88.3994Z" fill="white" />
    <path d="M122.991 88.3994H119.298V178.724H122.991V88.3994Z" fill="white" />
    <path d="M129.976 88.3994H126.283V178.724H129.976V88.3994Z" fill="white" />
    <path d="M88.2284 72.4692H112.171C122.005 72.4692 129.974 80.4438 129.974 90.2577H70.4141C70.4141 80.4323 78.3951 72.4692 88.217 72.4692H88.2284Z" fill="#FF7500" />
  </g>
  <defs>
    <clipPath id="clip0_32_10149">
      <rect width="150" height="150" rx="75" fill="white" />
    </clipPath>
  </defs>
</svg>