<svg width="150" height="150" viewBox="0 0 150 150" fill="none" xmlns="http://www.w3.org/2000/svg">
<rect width="150" height="150" rx="75" fill="#2C4F77"/>
<path d="M109.844 69.543H76.2773V97.9121H109.844V69.543Z" fill="#FF7500"/>
<path d="M28.6488 111.573H62.3349V38H28.6488C25.344 38 22.6553 40.5943 22.6553 43.7831V105.79C22.6553 108.979 25.344 111.573 28.6488 111.573Z" fill="#008ABF"/>
<path d="M28.7082 47.7835V72.4237H56.2822V47.7835C56.2822 45.3662 55.3099 43.3994 54.1148 43.3994H30.8757C29.6806 43.3994 28.7082 45.3662 28.7082 47.7835Z" fill="#009FDC"/>
<path d="M28.7082 101.114V76.4737H56.2822V101.114C56.2822 103.531 55.3099 105.498 54.1148 105.498H30.8757C29.6806 105.498 28.7082 103.531 28.7082 101.114Z" fill="#009FDC"/>
<path d="M62.2773 38V111.573H119.341C122.419 111.573 124.914 109.078 124.914 106.001V43.5724C124.914 40.4948 122.419 38 119.341 38H62.2773ZM110.727 48.4297C112.456 48.4297 113.858 49.8369 113.858 51.5729C113.858 53.3089 112.456 54.716 110.727 54.716C108.997 54.716 107.595 53.3089 107.595 51.5729C107.595 49.8369 108.997 48.4297 110.727 48.4297ZM98.9493 48.4297C100.679 48.4297 102.081 49.8369 102.081 51.5729C102.081 53.3089 100.679 54.716 98.9493 54.716C97.219 54.716 95.8166 53.3089 95.8166 51.5729C95.8169 49.8369 97.2193 48.4297 98.9493 48.4297ZM87.1719 48.4297C88.9013 48.4297 90.3034 49.8369 90.3034 51.5729C90.3034 53.3089 88.9013 54.716 87.1719 54.716C85.4416 54.716 84.0388 53.3089 84.0388 51.5729C84.0392 49.8369 85.4419 48.4297 87.1719 48.4297ZM75.3932 48.4297C77.1229 48.4297 78.525 49.8369 78.525 51.5729C78.525 53.3089 77.1229 54.716 75.3932 54.716C73.6635 54.716 72.2614 53.3089 72.2614 51.5729C72.2614 49.8369 73.6635 48.4297 75.3932 48.4297ZM116.267 101.136C116.267 102.917 114.829 104.36 113.055 104.36H73.0648C71.2908 104.36 69.8527 102.917 69.8527 101.136V66.3197C69.8527 64.5392 71.2908 63.0959 73.0648 63.0959H113.055C114.829 63.0959 116.267 64.5392 116.267 66.3197V101.136Z" fill="#009FDC"/>
</svg>
