<svg width="36" height="36" viewBox="0 0 36 36" fill="none" xmlns="http://www.w3.org/2000/svg">
  <path d="M31.9497 22.9487C32.2853 23.2832 32.5516 23.6806 32.7333 24.1182C32.915 24.5558 33.0085 25.0249 33.0085 25.4987C33.0085 25.9725 32.915 26.4417 32.7333 26.8793C32.5516 27.3169 32.2853 27.7143 31.9497 28.0487L28.0497 31.9487C27.7153 32.2843 27.3178 32.5506 26.8802 32.7323C26.4427 32.914 25.9735 33.0076 25.4997 33.0076C25.0259 33.0076 24.5567 32.914 24.1192 32.7323C23.6816 32.5506 23.2842 32.2843 22.9497 31.9487L4.0497 13.0487C3.37554 12.3713 2.99707 11.4545 2.99707 10.4987C2.99707 9.543 3.37554 8.62616 4.0497 7.94873L7.9497 4.04873C8.62714 3.37456 9.54398 2.99609 10.4997 2.99609C11.4554 2.99609 12.3723 3.37456 13.0497 4.04873L31.9497 22.9487Z" stroke="#FF7500" stroke-width="3" stroke-linecap="round" stroke-linejoin="round" />
  <path d="M21.75 18.75L24.75 15.75" stroke="#FF7500" stroke-width="3" stroke-linecap="round" stroke-linejoin="round" />
  <path d="M17.25 14.25L20.25 11.25" stroke="#FF7500" stroke-width="3" stroke-linecap="round" stroke-linejoin="round" />
  <path d="M12.75 9.75L15.75 6.75" stroke="#FF7500" stroke-width="3" stroke-linecap="round" stroke-linejoin="round" />
  <path d="M26.25 23.25L29.25 20.25" stroke="#FF7500" stroke-width="3" stroke-linecap="round" stroke-linejoin="round" />
</svg>