<svg width="36" height="36" viewBox="0 0 36 36" fill="none" xmlns="http://www.w3.org/2000/svg">
  <path d="M17.751 22.5L25.251 30C26.493 31.242 28.509 31.242 29.751 30V30C30.993 28.758 30.993 26.742 29.751 25.5L22.251 18" stroke="#FF7E21" stroke-width="3" stroke-linecap="round" stroke-linejoin="round" />
  <path fill-rule="evenodd" clip-rule="evenodd" d="M31.3744 8.77003C31.4104 8.80453 31.4374 8.84953 31.4509 8.89753C32.1559 11.248 31.6099 13.8925 29.7529 15.7495C27.8764 17.626 25.1959 18.163 22.8274 17.425L10.3069 29.9455C9.08736 31.165 7.09836 31.2565 5.83686 30.0805C4.51086 28.846 4.48386 26.77 5.75286 25.4995L18.3274 12.925C17.5894 10.5565 18.1264 7.87603 20.0029 5.99953C21.8599 4.14253 24.5044 3.59653 26.8549 4.30153C26.9029 4.31653 26.9479 4.34203 26.9824 4.37803L27.2254 4.62103C27.3424 4.73803 27.3424 4.92853 27.2254 5.04553L23.2729 8.99953L26.7529 12.4795L30.7069 8.52553C30.8239 8.40853 31.0144 8.40853 31.1314 8.52553L31.3744 8.77003V8.77003Z" stroke="#FF7E21" stroke-width="3" stroke-linecap="round" stroke-linejoin="round" />
  <path fill-rule="evenodd" clip-rule="evenodd" d="M4.39889 6.43944L5.40989 9.47394C5.61389 10.0874 6.18689 10.4999 6.83339 10.4999H10.2519V7.08144C10.2519 6.43644 9.83939 5.86194 9.22589 5.65794L6.19139 4.64694C5.92139 4.55694 5.62439 4.62744 5.42339 4.82844L4.58039 5.67144C4.37939 5.87244 4.30889 6.16944 4.39889 6.43944V6.43944Z" stroke="#FF7E21" stroke-width="3" stroke-linecap="round" stroke-linejoin="round" />
  <path d="M10.2598 10.5L15.5098 15.75" stroke="#FF7E21" stroke-width="3" stroke-linecap="round" stroke-linejoin="round" />
</svg>