<svg width="36" height="36" viewBox="0 0 36 36" fill="none" xmlns="http://www.w3.org/2000/svg">
  <path d="M24.4625 6.57591C23.576 6.57591 23.1326 6.57591 22.7288 6.42607C22.6727 6.40525 22.6174 6.38236 22.563 6.35742C22.1715 6.17782 21.8582 5.86438 21.2312 5.2375C19.7883 3.79465 19.067 3.07323 18.1793 3.00671C18.06 2.99776 17.94 2.99776 17.8208 3.00671C16.9331 3.07323 16.2115 3.79465 14.7688 5.23749C14.1419 5.86438 13.8285 6.17782 13.437 6.35742C13.3826 6.38236 13.3273 6.40525 13.2712 6.42607C12.8674 6.57591 12.4241 6.57591 11.5376 6.57591H11.374C9.11217 6.57591 7.98124 6.57591 7.27858 7.27858C6.57591 7.98124 6.57591 9.11217 6.57591 11.374V11.5376C6.57591 12.4241 6.57591 12.8674 6.42607 13.2712C6.40525 13.3273 6.38236 13.3826 6.35742 13.437C6.17782 13.8285 5.86438 14.1419 5.23749 14.7688C3.79465 16.2115 3.07323 16.9331 3.00671 17.8208C2.99776 17.94 2.99776 18.06 3.00671 18.1793C3.07323 19.067 3.79465 19.7883 5.23749 21.2312C5.86438 21.8582 6.17782 22.1715 6.35742 22.563C6.38236 22.6174 6.40525 22.6727 6.42607 22.7288C6.57591 23.1326 6.57591 23.576 6.57591 24.4625V24.6259C6.57591 26.8878 6.57591 28.0188 7.27858 28.7214C7.98124 29.4242 9.11217 29.4242 11.374 29.4242H11.5376C12.4241 29.4242 12.8674 29.4241 13.2712 29.574C13.3273 29.5947 13.3826 29.6176 13.437 29.6425C13.8285 29.8222 14.1419 30.1356 14.7688 30.7625C16.2115 32.2053 16.9331 32.9268 17.8208 32.9933C17.94 33.0023 18.0599 33.0023 18.1793 32.9933C19.067 32.9268 19.7883 32.2053 21.2312 30.7625C21.8582 30.1356 22.1715 29.8222 22.563 29.6425C22.6174 29.6176 22.6727 29.5947 22.7288 29.574C23.1326 29.4241 23.576 29.4242 24.4625 29.4242H24.6259C26.8878 29.4242 28.0188 29.4242 28.7214 28.7214C29.4242 28.0188 29.4242 26.8878 29.4242 24.6259V24.4625C29.4242 23.576 29.4241 23.1326 29.574 22.7288C29.5947 22.6727 29.6176 22.6174 29.6425 22.563C29.8222 22.1715 30.1356 21.8582 30.7625 21.2312C32.2053 19.7883 32.9268 19.067 32.9933 18.1793C33.0023 18.0599 33.0023 17.94 32.9933 17.8208C32.9268 16.9331 32.2053 16.2115 30.7625 14.7688C30.1356 14.1419 29.8222 13.8285 29.6425 13.437C29.6176 13.3826 29.5947 13.3273 29.574 13.2712C29.4241 12.8674 29.4242 12.4241 29.4242 11.5376V11.374C29.4242 9.11217 29.4242 7.98124 28.7214 7.27858C28.0188 6.57591 26.8878 6.57591 24.6259 6.57591H24.4625Z" stroke="#F86800" stroke-width="2.25" />
  <path d="M23.25 18C23.25 20.8995 20.8995 23.25 18 23.25C15.1005 23.25 12.75 20.8995 12.75 18C12.75 15.1005 15.1005 12.75 18 12.75C20.8995 12.75 23.25 15.1005 23.25 18Z" stroke="#F86800" stroke-width="2.25" />
</svg>