<svg width="36" height="36" viewBox="0 0 36 36" fill="none" xmlns="http://www.w3.org/2000/svg">
  <path d="M9 27H18V26.325C18 25.9 17.8813 25.5063 17.6438 25.1438C17.4063 24.7812 17.075 24.5 16.65 24.3C16.15 24.075 15.6438 23.9062 15.1313 23.7938C14.6188 23.6813 14.075 23.625 13.5 23.625C12.925 23.625 12.3813 23.6813 11.8688 23.7938C11.3563 23.9062 10.85 24.075 10.35 24.3C9.925 24.5 9.59375 24.7812 9.35625 25.1438C9.11875 25.5063 9 25.9 9 26.325V27ZM22.125 24.75H25.875C26.2 24.75 26.4688 24.6438 26.6813 24.4313C26.8938 24.2188 27 23.95 27 23.625C27 23.3 26.8938 23.0312 26.6813 22.8188C26.4688 22.6063 26.2 22.5 25.875 22.5H22.125C21.8 22.5 21.5312 22.6063 21.3188 22.8188C21.1063 23.0312 21 23.3 21 23.625C21 23.95 21.1063 24.2188 21.3188 24.4313C21.5312 24.6438 21.8 24.75 22.125 24.75ZM15.0938 21.8438C15.5313 21.4062 15.75 20.875 15.75 20.25C15.75 19.625 15.5313 19.0938 15.0938 18.6563C14.6562 18.2188 14.125 18 13.5 18C12.875 18 12.3438 18.2188 11.9062 18.6563C11.4688 19.0938 11.25 19.625 11.25 20.25C11.25 20.875 11.4688 21.4062 11.9062 21.8438C12.3438 22.2812 12.875 22.5 13.5 22.5C14.125 22.5 14.6562 22.2812 15.0938 21.8438ZM22.125 20.25H25.875C26.2 20.25 26.4688 20.1438 26.6813 19.9313C26.8938 19.7188 27 19.45 27 19.125C27 18.8 26.8938 18.5313 26.6813 18.3188C26.4688 18.1063 26.2 18 25.875 18H22.125C21.8 18 21.5312 18.1063 21.3188 18.3188C21.1063 18.5313 21 18.8 21 19.125C21 19.45 21.1063 19.7188 21.3188 19.9313C21.5312 20.1438 21.8 20.25 22.125 20.25ZM6 33C5.175 33 4.46875 32.7063 3.88125 32.1188C3.29375 31.5313 3 30.825 3 30V13.5C3 12.675 3.29375 11.9688 3.88125 11.3813C4.46875 10.7938 5.175 10.5 6 10.5H13.5V6C13.5 5.175 13.7938 4.46875 14.3813 3.88125C14.9688 3.29375 15.675 3 16.5 3H19.5C20.325 3 21.0312 3.29375 21.6188 3.88125C22.2063 4.46875 22.5 5.175 22.5 6V10.5H30C30.825 10.5 31.5313 10.7938 32.1188 11.3813C32.7063 11.9688 33 12.675 33 13.5V30C33 30.825 32.7063 31.5313 32.1188 32.1188C31.5313 32.7063 30.825 33 30 33H6ZM6 30H30V13.5H22.5C22.5 14.325 22.2063 15.0312 21.6188 15.6188C21.0312 16.2063 20.325 16.5 19.5 16.5H16.5C15.675 16.5 14.9688 16.2063 14.3813 15.6188C13.7938 15.0312 13.5 14.325 13.5 13.5H6V30ZM16.5 13.5H19.5V6H16.5V13.5Z" fill="#FF7500" />
</svg>