<svg width="360" height="274" viewBox="0 0 360 274" fill="none" xmlns="http://www.w3.org/2000/svg">
<g opacity="0.1">
<path d="M140.938 -41.1855C140.897 -41.1936 140.858 -41.1794 140.835 -41.148L14.7571 130.439C0.83416 149.387 -29.6914 143.292 -40.8611 119.334L-116.122 -42.0974C-127.551 -66.6125 -110.214 -91.33 -85.112 -86.3181C-6.95922 -70.7143 50.8526 -59.1717 140.938 -41.1855Z" fill="white"/>
<path d="M510 0.587927C509.96 0.579807 509.921 0.594074 509.898 0.625478L429.655 109.832C395.053 156.924 319.19 141.777 291.43 82.2349C263.026 21.309 306.095 -40.1234 368.48 -27.6677C411.606 -19.0573 454.729 -10.4475 510 0.587927Z" fill="white"/>
</g>
</svg>
