<svg width="36" height="36" viewBox="0 0 36 36" fill="none" xmlns="http://www.w3.org/2000/svg">
  <path d="M6 15C4.35 15 3 13.65 3 12V6C3 4.35 4.35 3 6 3H12C13.65 3 15 4.35 15 6" stroke="#FF7500" stroke-width="3" stroke-linecap="round" stroke-linejoin="round" />
  <path d="M15 24C13.35 24 12 22.65 12 21V15C12 13.35 13.35 12 15 12H21C22.65 12 24 13.35 24 15" stroke="#FF7500" stroke-width="3" stroke-linecap="round" stroke-linejoin="round" />
  <path d="M30 21H24C22.3431 21 21 22.3431 21 24V30C21 31.6569 22.3431 33 24 33H30C31.6569 33 33 31.6569 33 30V24C33 22.3431 31.6569 21 30 21Z" stroke="#FF7500" stroke-width="3" stroke-linecap="round" stroke-linejoin="round" />
</svg>