<svg width="36" height="36" viewBox="0 0 36 36" fill="none" xmlns="http://www.w3.org/2000/svg">
  <path d="M6 15.75L8.1 7.5H27.9L30 15.75" stroke="#FF7500" stroke-width="3" stroke-linecap="round" stroke-linejoin="round" />
  <path d="M7.5 15.75H28.5V27C28.5 27.7956 28.1839 28.5587 27.6213 29.1213C27.0587 29.6839 26.2956 30 25.5 30H10.5C9.70435 30 8.94129 29.6839 8.37868 29.1213C7.81607 28.5587 7.5 27.7956 7.5 27V15.75Z" stroke="#FF7500" stroke-width="3" stroke-linecap="round" stroke-linejoin="round" />
  <path d="M13.5 30V22.5H22.5V30" stroke="#FF7500" stroke-width="3" stroke-linecap="round" stroke-linejoin="round" />
  <path d="M6 15.75C6 16.5456 6.31607 17.3087 6.87868 17.8713C7.44129 18.4339 8.20435 18.75 9 18.75C9.79565 18.75 10.5587 18.4339 11.1213 17.8713C11.6839 17.3087 12 16.5456 12 15.75C12 16.5456 12.3161 17.3087 12.8787 17.8713C13.4413 18.4339 14.2044 18.75 15 18.75C15.7956 18.75 16.5587 18.4339 17.1213 17.8713C17.6839 17.3087 18 16.5456 18 15.75C18 16.5456 18.3161 17.3087 18.8787 17.8713C19.4413 18.4339 20.2044 18.75 21 18.75C21.7956 18.75 22.5587 18.4339 23.1213 17.8713C23.6839 17.3087 24 16.5456 24 15.75C24 16.5456 24.3161 17.3087 24.8787 17.8713C25.4413 18.4339 26.2044 18.75 27 18.75C27.7956 18.75 28.5587 18.4339 29.1213 17.8713C29.6839 17.3087 30 16.5456 30 15.75" stroke="#FF7500" stroke-width="3" stroke-linecap="round" stroke-linejoin="round" />
</svg>