<svg width="558" height="440" viewBox="0 0 558 440" fill="none" xmlns="http://www.w3.org/2000/svg">
<rect width="558" height="558" transform="translate(0 -59)" fill="#009FDC"/>
<rect width="183.793" height="141.205" rx="70.6025" transform="matrix(0.948905 0.315561 0.315569 -0.948903 161.371 254.836)" fill="#FF7500"/>
<path d="M433.957 271.598C421.595 308.77 381.44 328.882 344.268 316.521L336.536 313.95C330.756 312.027 324.511 315.155 322.589 320.935L321.526 324.132C308.773 362.478 267.349 383.226 229.003 370.474C190.657 357.722 169.909 316.298 182.661 277.952L183.724 274.756C185.647 268.975 182.519 262.731 176.738 260.808L168.571 258.092C131.399 245.731 111.287 205.576 123.648 168.404C136.01 131.232 176.166 111.119 213.338 123.48L221.505 126.197C227.286 128.119 233.53 124.991 235.453 119.211L236.517 116.011C249.269 77.665 290.693 56.9166 329.039 69.6688C367.386 82.4211 388.133 123.845 375.381 162.191L374.317 165.39C372.395 171.171 375.522 177.416 381.303 179.338L389.035 181.909C426.207 194.271 446.319 234.426 433.957 271.598ZM315.191 231.946C321.914 211.729 312.071 191.538 290.857 184.484C269.644 177.429 249.586 187.95 242.945 207.92C236.304 227.89 246 248.592 267.194 255.64C288.387 262.688 308.467 252.163 315.191 231.946Z" fill="white"/>
</svg>
