<svg width="150" height="150" viewBox="0 0 150 150" fill="none" xmlns="http://www.w3.org/2000/svg">
<rect width="150" height="150" rx="75" fill="#096744"/>
<g clip-path="url(#clip0_53_19664)">
<path fill-rule="evenodd" clip-rule="evenodd" d="M73.2521 36.2608L83.95 42.6504L49.2661 63.3661V78.7165C49.2661 79.3299 49.56 79.8565 50.0735 80.1633L58.1132 84.9651C58.3699 85.1185 58.6638 85.1185 58.9207 84.9651C59.1776 84.8117 59.3243 84.5484 59.3243 84.2418V69.3736L94.0085 48.6579L104.706 55.0475C105.733 55.6608 106.321 56.7142 106.321 57.9409V77.1424C103.417 76.1289 100.344 75.5822 97.2743 75.3885V74.1012C97.2743 72.6987 96.5003 71.441 95.2719 70.8476C94.0439 70.2544 92.6146 70.4477 91.5752 71.3474L79.2607 82.0098C78.2392 82.8942 77.681 84.1838 77.7237 85.5611C77.7663 86.9441 78.3986 88.1852 79.477 89.0038L91.7499 98.3186C92.2665 98.7127 92.879 98.9502 93.5187 99.0046C94.1584 99.059 94.8001 98.9281 95.372 98.6266C96.5458 98.0113 97.2744 96.7846 97.2744 95.4235V94.0021C99.8287 94.3172 102.357 95.1297 104.434 96.6847C104.835 96.9849 105.216 97.3134 105.574 97.668C105.336 97.9561 105.045 98.2059 104.707 98.4081L73.2521 117.195C72.2251 117.808 71.0493 117.808 70.0223 117.195L38.5681 98.4081C37.5409 97.7947 36.9531 96.7413 36.9531 95.5144V57.9411C36.9531 56.7142 37.5409 55.6608 38.5681 55.0476L70.0225 36.2608C71.0495 35.6474 72.2251 35.6474 73.2521 36.2608Z" fill="#FF7500"/>
<path d="M106.321 77.1424C103.417 76.1289 100.344 75.5822 97.2743 75.3885V74.1012C97.2743 72.6987 96.5003 71.441 95.2719 70.8476C94.0439 70.2544 92.6146 70.4477 91.5752 71.3474L79.2607 82.0098C78.2392 82.8942 77.681 84.1838 77.7237 85.5611C77.7663 86.9441 78.3986 88.1852 79.477 89.0038L91.7499 98.3186C92.2665 98.7127 92.879 98.9502 93.5187 99.0046C94.1584 99.059 94.8001 98.9281 95.372 98.6266C96.5458 98.0113 97.2744 96.7846 97.2744 95.4235V94.0021C99.8287 94.3172 102.357 95.1297 104.434 96.6847C104.835 96.9849 105.216 97.3134 105.574 97.668C106.315 96.9011 106.381 95.9127 106.321 95.5144V77.1424Z" fill="#FF7500"/>
<path d="M95.7096 120.148C111.273 111.712 105.903 92.9425 86.9558 92.9425V97.6895C86.9558 98.0526 86.7714 98.3641 86.459 98.5282C86.1466 98.6924 85.7955 98.6625 85.513 98.4476L72.0495 88.2028C71.5851 87.8494 71.3281 87.3437 71.3096 86.7466C71.2913 86.1494 71.5165 85.6277 71.9583 85.2442L85.4673 73.5173C85.7438 73.2773 86.1063 73.2282 86.4329 73.3864C86.7595 73.5445 86.9558 73.8645 86.9558 74.2383V78.5728C119.887 78.5728 121.694 113.902 95.8371 120.498C95.7502 120.521 95.6636 120.476 95.6269 120.391C95.6081 120.347 95.6062 120.298 95.6216 120.253C95.637 120.207 95.6685 120.17 95.7096 120.148Z" fill="white"/>
</g>
<defs>
<clipPath id="clip0_53_19664">
<rect width="76.9597" height="85.1383" fill="white" transform="translate(36.46 35.5273)"/>
</clipPath>
</defs>
</svg>
