<svg width="558" height="440" viewBox="0 0 558 440" fill="none" xmlns="http://www.w3.org/2000/svg">
<rect width="558" height="558" transform="translate(0 -59)" fill="#2C4F77"/>
<path d="M393.043 203.303H284.18V295.311H393.043V203.303Z" fill="#FF7500"/>
<path d="M129.708 339.616H238.96V101H129.708C118.99 101 110.27 109.414 110.27 119.756V320.859C110.27 331.202 118.99 339.616 129.708 339.616Z" fill="#008ABF"/>
<path d="M129.901 132.732V212.647H219.33V132.732C219.33 124.892 216.177 118.514 212.301 118.514H136.931C133.054 118.514 129.901 124.892 129.901 132.732Z" fill="#009FDC"/>
<path d="M129.901 305.695V225.781H219.33V305.695C219.33 313.535 216.177 319.914 212.301 319.914H136.931C133.054 319.914 129.901 313.535 129.901 305.695Z" fill="#009FDC"/>
<path d="M238.773 101V339.615H423.846C433.827 339.615 441.919 331.524 441.919 321.543V119.073C441.919 109.091 433.827 101 423.846 101H238.773ZM395.907 134.826C401.516 134.826 406.064 139.39 406.064 145.02C406.064 150.65 401.516 155.214 395.907 155.214C390.297 155.214 385.749 150.65 385.749 145.02C385.749 139.39 390.298 134.826 395.907 134.826ZM357.71 134.826C363.318 134.826 367.866 139.39 367.866 145.02C367.866 150.65 363.318 155.214 357.71 155.214C352.098 155.214 347.549 150.65 347.549 145.02C347.55 139.39 352.099 134.826 357.71 134.826ZM319.513 134.826C325.121 134.826 329.669 139.39 329.669 145.02C329.669 150.65 325.121 155.214 319.513 155.214C313.901 155.214 309.351 150.65 309.351 145.02C309.352 139.39 313.902 134.826 319.513 134.826ZM281.311 134.826C286.921 134.826 291.469 139.39 291.469 145.02C291.469 150.65 286.921 155.214 281.311 155.214C275.702 155.214 271.154 150.65 271.154 145.02C271.154 139.39 275.702 134.826 281.311 134.826ZM413.876 305.767C413.876 311.541 409.211 316.222 403.458 316.222H273.76C268.006 316.222 263.342 311.541 263.342 305.767V192.848C263.342 187.073 268.006 182.392 273.76 182.392H403.458C409.211 182.392 413.876 187.073 413.876 192.848V305.767Z" fill="#009FDC"/>
</svg>
