<svg width="150" height="150" viewBox="0 0 150 150" fill="none" xmlns="http://www.w3.org/2000/svg">
<rect width="150" height="150" rx="75" fill="#096744"/>
<g clip-path="url(#clip0_53_24581)">
<path d="M14.0883 48.3633H136.187C136.725 48.3633 137.257 48.4692 137.754 48.6751C138.251 48.8809 138.703 49.1826 139.083 49.563C139.463 49.9433 139.765 50.3949 139.971 50.8918C140.177 51.3888 140.283 51.9214 140.283 52.4593V145.906C140.283 146.991 139.852 148.032 139.085 148.799C138.318 149.566 137.278 149.997 136.193 149.998H14.0915C13.0056 149.998 11.9642 149.566 11.1963 148.798C10.4284 148.031 9.99707 146.989 9.99707 145.903V52.4545C9.99707 51.3695 10.4281 50.3288 11.1954 49.5616C11.9626 48.7943 13.0032 48.3633 14.0883 48.3633Z" fill="#FF7500"/>
<g clip-path="url(#clip1_53_24581)">
<path d="M95.8367 107.987H96.8613V111.984H95.8367V110.428H94.0482V111.984H93.0236V107.987H94.0482V109.461H95.8367V107.987ZM97.3455 108.977H98.621V111.984H99.6456V108.977H100.905V107.987H97.3441V108.979L97.3455 108.977ZM105.878 111.115V111.965C105.702 112.053 105.484 112.097 105.229 112.097C104.697 112.097 104.428 111.863 104.321 111.488L104.305 111.513C103.995 111.904 103.566 112.097 103.01 112.097C102.455 112.097 102.025 111.897 101.644 111.489C101.27 111.082 101.079 110.578 101.079 109.987C101.079 109.396 101.271 108.899 101.644 108.493C102.025 108.085 102.478 107.877 103.01 107.877C103.542 107.877 103.956 108.053 104.264 108.41V107.989H105.288V110.816C105.288 111.057 105.398 111.182 105.616 111.182C105.719 111.182 105.804 111.16 105.878 111.116M104.303 109.986C104.303 109.658 104.199 109.386 103.987 109.178C103.78 108.962 103.518 108.858 103.199 108.858C102.881 108.858 102.619 108.962 102.413 109.178C102.206 109.385 102.103 109.658 102.103 109.986C102.103 110.313 102.206 110.585 102.413 110.802C102.619 111.009 102.883 111.113 103.199 111.113C103.516 111.113 103.78 111.009 103.987 110.802C104.201 110.586 104.303 110.315 104.303 109.986ZM84.5802 107.987L84.5487 109.488C84.5418 110.096 84.5198 110.397 84.4334 110.742C84.3539 111.071 84.2003 111.163 83.9602 111.163C83.8807 111.163 83.808 111.156 83.749 111.134V111.984C83.8286 112.028 83.9602 112.05 84.1344 112.05C84.8559 112.028 85.2043 111.686 85.3785 111.071C85.5019 110.631 85.5238 110.294 85.5458 109.79L85.5691 108.98H86.8419V111.987H87.8665V107.99H84.5775L84.5802 107.987ZM89.5151 110.255C89.6249 110.937 90.1639 111.162 90.7098 111.162C91.0705 111.162 91.4504 111.018 91.6836 110.808L92.3159 111.448C91.9373 111.868 91.412 112.098 90.6947 112.098C89.6893 112.098 88.4755 111.501 88.4755 109.987C88.4755 108.473 89.6441 107.877 90.6357 107.877C91.8907 107.877 92.4105 108.469 92.4105 109.136C92.4105 110.224 91.0362 110.725 89.5179 110.257L89.5151 110.255ZM91.2954 109.25C91.2954 108.94 90.9909 108.801 90.6481 108.801C90.1255 108.801 89.6742 109.023 89.5371 109.593C90.6014 109.902 91.2954 109.67 91.2954 109.249V109.25Z" fill="white"/>
<path d="M72.4898 110.667C70.6011 106.249 66.2066 103.15 61.0879 103.15C62.9752 107.57 67.3711 110.67 72.4912 110.67C76.2534 110.67 79.4903 108.442 80.9524 105.234C77.1902 105.234 73.9519 107.463 72.4912 110.669L72.4898 110.667Z" fill="white"/>
<path d="M72.4995 85.9062C67.3615 85.9062 63.2715 89.9416 63.2715 95.1724C63.2715 100.403 67.3615 104.439 72.4995 104.439C77.6374 104.439 81.7645 100.402 81.7645 95.1724C81.7645 89.943 77.6374 85.9062 72.4995 85.9062ZM72.4995 100.016C69.84 100.016 67.7785 98.0164 67.7785 95.171C67.7785 92.3256 69.807 90.3259 72.4995 90.3259C75.1919 90.3259 77.2547 92.3284 77.2547 95.171C77.2547 98.0137 75.1589 100.016 72.4995 100.016Z" fill="white"/>
<path d="M60.4085 95.1728C60.4085 90.2587 56.3555 86.4575 51.2806 86.39H51.2312C51.2079 86.39 51.1846 86.3887 51.1613 86.3887L43.6629 86.39C43.1581 86.39 42.748 86.8018 42.748 87.3087V89.8249C42.748 89.8359 42.748 89.8456 42.7494 89.8552V103.033C42.7494 103.033 42.7494 103.034 42.7494 103.036V103.042C42.7494 103.549 43.1595 103.961 43.6643 103.961H51.2834V103.958C56.3555 103.888 60.4085 100.088 60.4085 95.1755V95.1728ZM51.2244 99.6062H47.0836V90.7408H51.2806C53.9044 90.7986 55.8974 92.523 55.8974 95.1714C55.8974 97.8199 53.8427 99.569 51.2244 99.6062Z" fill="white"/>
<path d="M105.218 87.2908C105.217 86.7922 104.814 86.3887 104.317 86.3887H101.654C101.336 86.3887 101.041 86.5567 100.879 86.8321L95.1511 96.5404L89.2547 86.8225C89.0915 86.5526 88.7993 86.3887 88.4853 86.3887H85.8162C85.3183 86.3887 84.915 86.7936 84.915 87.2935V103.055C84.915 103.555 85.3183 103.96 85.8162 103.96H88.5895C89.0874 103.96 89.4906 103.555 89.4906 103.055V94.8973L93.7151 101.817C93.8714 102.071 94.1485 102.227 94.4461 102.227H95.6792C95.9809 102.227 96.2607 102.067 96.4157 101.807L100.669 94.6425L100.688 103.058C100.688 103.556 101.093 103.96 101.589 103.96H104.363C104.861 103.96 105.265 103.553 105.264 103.052L105.218 87.2908Z" fill="white"/>
</g>
<path d="M9.99805 74.6309V76.3324H140.287V74.6309H9.99805ZM9.99805 123.738H140.287V122.035H10.0014L9.99805 123.738Z" fill="#F4F4F4"/>
<path d="M98.4042 56.718C98.3992 57.8022 97.9662 58.8404 97.1994 59.6069C96.4326 60.3734 95.3941 60.8061 94.3099 60.8107H55.9389C54.8555 60.8069 53.8175 60.3743 53.0523 59.6073C52.2871 58.8403 51.8567 57.8014 51.8555 56.718V40.0943C51.8559 39.0105 52.286 37.9711 53.0513 37.2036C53.8167 36.4362 54.855 36.0034 55.9389 36H94.3099C95.3945 36.0042 96.4335 36.4369 97.2004 37.2038C97.9673 37.9708 98.4 39.0097 98.4042 40.0943V56.718Z" fill="#F4F4F4"/>
<path d="M88.6826 41.9668H62.333V45.1529H88.6826V41.9668Z" fill="#096744"/>
<path d="M88.6826 51.4062H62.333V54.5796H88.6826V51.4062Z" fill="#096744"/>
</g>
<defs>
<clipPath id="clip0_53_24581">
<rect width="130.449" height="114" fill="white" transform="translate(10 36)"/>
</clipPath>
<clipPath id="clip1_53_24581">
<rect width="63.1295" height="26.1928" fill="white" transform="translate(42.6934 85.8359)"/>
</clipPath>
</defs>
</svg>
