<svg width="36" height="36" viewBox="0 0 36 36" fill="none" xmlns="http://www.w3.org/2000/svg">
  <path d="M30.15 17.7375C29.8768 17.7375 29.6335 17.6375 29.4202 17.4375C29.2068 17.2375 29.075 16.9875 29.025 16.6875C28.675 14.1125 27.5813 11.9063 25.7438 10.0688C23.9062 8.23125 21.7 7.1375 19.125 6.7875C18.825 6.7375 18.575 6.60638 18.375 6.39413C18.175 6.18188 18.075 5.9255 18.075 5.625C18.075 5.29575 18.1875 5.01962 18.4125 4.79662C18.6375 4.57387 18.9125 4.4875 19.2375 4.5375C22.4173 4.89075 25.1301 6.19037 27.3761 8.43637C29.6221 10.6824 30.9218 13.3953 31.275 16.575C31.325 16.9 31.235 17.175 31.005 17.4C30.775 17.625 30.49 17.7375 30.15 17.7375ZM23.6944 17.7375C23.4481 17.7375 23.2188 17.6563 23.0063 17.4938C22.7938 17.3313 22.65 17.1125 22.575 16.8375C22.325 15.9625 21.8813 15.2063 21.2438 14.5688C20.6063 13.9313 19.85 13.4875 18.975 13.2375C18.7 13.1625 18.4813 13.0301 18.3188 12.8404C18.1563 12.6504 18.075 12.4226 18.075 12.1571C18.075 11.7774 18.2 11.475 18.45 11.25C18.7 11.025 19 10.95 19.35 11.025C20.699 11.3398 21.8612 11.9871 22.8368 12.9671C23.8123 13.9474 24.475 15.1125 24.825 16.4625C24.9 16.8125 24.825 17.1125 24.6 17.3625C24.375 17.6125 24.0731 17.7375 23.6944 17.7375ZM29.8125 31.5C26.9125 31.5 23.9563 30.8 20.9438 29.4C17.9313 28 15.1375 26.0125 12.5625 23.4375C9.9875 20.8625 8 18.0688 6.6 15.0563C5.2 12.0438 4.5 9.0875 4.5 6.1875C4.5 5.70525 4.66075 5.3035 4.98225 4.98225C5.3035 4.66075 5.70525 4.5 6.1875 4.5H11.4375C11.7875 4.5 12.0875 4.625 12.3375 4.875C12.5875 5.125 12.7625 5.4375 12.8625 5.8125L13.8724 10.524C13.9241 10.883 13.9188 11.2063 13.8563 11.4938C13.7938 11.7813 13.6596 12.0279 13.4539 12.2336L9.7125 16.0125C10.3625 17.1125 11.05 18.1375 11.775 19.0875C12.5 20.0375 13.3 20.9375 14.175 21.7875C15.1 22.7375 16.075 23.6063 17.1 24.3938C18.125 25.1813 19.2 25.875 20.325 26.475L23.8875 22.8C24.1375 22.525 24.4269 22.3375 24.7556 22.2375C25.0844 22.1375 25.4075 22.1125 25.725 22.1625L30.1875 23.1375C30.5625 23.2375 30.875 23.438 31.125 23.739C31.375 24.0403 31.5 24.3773 31.5 24.75V29.8125C31.5 30.2948 31.3393 30.6965 31.0178 31.0178C30.6965 31.3393 30.2948 31.5 29.8125 31.5ZM8.5875 13.95L11.625 10.875L10.7625 6.75H6.75C6.8 7.8 6.96875 8.90625 7.25625 10.0688C7.54375 11.2313 7.9875 12.525 8.5875 13.95ZM22.425 27.5625C23.45 28.0375 24.5625 28.425 25.7625 28.725C26.9625 29.025 28.125 29.2 29.25 29.25V25.2375L25.3875 24.45L22.425 27.5625Z" fill="#F86800" />
</svg>