<svg width="36" height="36" viewBox="0 0 36 36" fill="none" xmlns="http://www.w3.org/2000/svg">
  <path d="M10.5 26.25C10.5 28.321 8.82107 30 6.75 30C4.67893 30 3 28.321 3 26.25C3 24.179 4.67893 22.5 6.75 22.5C8.82107 22.5 10.5 24.179 10.5 26.25Z" stroke="#FF7500" stroke-width="2.25" />
  <path d="M25.5 26.25C25.5 28.321 23.821 30 21.75 30C19.679 30 18 28.321 18 26.25C18 24.179 19.679 22.5 21.75 22.5C23.821 22.5 25.5 24.179 25.5 26.25Z" stroke="#FF7500" stroke-width="2.25" />
  <path d="M30 6V22.5159C30 23.915 30 24.6145 30.2283 25.1664C30.7151 26.3425 31.7844 26.9378 33 27" stroke="#FF7500" stroke-width="2.25" stroke-linecap="round" stroke-linejoin="round" />
  <path d="M6 13.5H8.61964C9.91545 13.5 10.5634 13.5 11.1567 13.6656C11.7574 13.8332 12.3167 14.1238 12.7991 14.519C13.2757 14.9094 13.6481 15.4396 14.3929 16.5C15.1377 17.5604 15.51 18.0906 15.9865 18.4809C16.4689 18.8761 17.0283 19.1668 17.629 19.3344C18.2223 19.5 18.8703 19.5 20.166 19.5H22.5" stroke="#FF7500" stroke-width="2.25" stroke-linecap="round" stroke-linejoin="round" />
  <path d="M27 19.5H30" stroke="#FF7500" stroke-width="2.25" stroke-linecap="round" stroke-linejoin="round" />
  <path d="M6 22.5V9C6 7.34314 7.34314 6 9 6H13.3427C14.4124 6 15.4472 6.38109 16.2614 7.07494L21.4458 11.493C22.1147 12.063 22.5 12.8975 22.5 13.7763V22.5M10.5 26.25H18" stroke="#FF7500" stroke-width="2.25" stroke-linecap="round" stroke-linejoin="round" />
</svg>