<svg width="558" height="440" viewBox="0 0 558 440" fill="none" xmlns="http://www.w3.org/2000/svg">
<rect width="558" height="558" transform="translate(0 -59)" fill="#096744"/>
<path d="M411.631 220.291C411.631 183.685 381.964 154.018 345.358 154.018L372.817 126.559C346.929 100.671 304.973 100.671 279.085 126.559V87.7266C242.479 87.7266 212.812 117.393 212.812 153.999L185.353 126.54C159.465 152.428 159.465 194.384 185.353 220.272H146.521C146.521 256.879 176.187 286.545 212.793 286.545L185.334 314.005C211.222 339.893 253.178 339.893 279.066 314.005V352.837C315.673 352.837 345.339 323.17 345.339 286.564L372.799 314.023C398.687 288.135 398.687 246.179 372.799 220.291H411.631ZM279.085 244.29C265.823 244.29 255.086 233.534 255.086 220.291C255.086 207.048 265.842 196.292 279.085 196.292C292.328 196.292 303.084 207.048 303.084 220.291C303.084 233.534 292.328 244.29 279.085 244.29Z" fill="#FF7500"/>
</svg>
