<svg width="36" height="36" viewBox="0 0 36 36" fill="none" xmlns="http://www.w3.org/2000/svg">
  <path d="M8.38125 32.1188C7.79375 31.5313 7.5 30.825 7.5 30C7.5 29.175 7.79375 28.4688 8.38125 27.8813C8.96875 27.2938 9.675 27 10.5 27C11.325 27 12.0312 27.2938 12.6188 27.8813C13.2063 28.4688 13.5 29.175 13.5 30C13.5 30.825 13.2063 31.5313 12.6188 32.1188C12.0312 32.7063 11.325 33 10.5 33C9.675 33 8.96875 32.7063 8.38125 32.1188ZM23.3813 32.1188C22.7938 31.5313 22.5 30.825 22.5 30C22.5 29.175 22.7938 28.4688 23.3813 27.8813C23.9688 27.2938 24.675 27 25.5 27C26.325 27 27.0313 27.2938 27.6188 27.8813C28.2063 28.4688 28.5 29.175 28.5 30C28.5 30.825 28.2063 31.5313 27.6188 32.1188C27.0313 32.7063 26.325 33 25.5 33C24.675 33 23.9688 32.7063 23.3813 32.1188ZM9.225 9L12.825 16.5H23.325L27.45 9H9.225ZM7.8 6H29.925C30.5 6 30.9375 6.25625 31.2375 6.76875C31.5375 7.28125 31.55 7.8 31.275 8.325L25.95 17.925C25.675 18.425 25.3063 18.8125 24.8438 19.0875C24.3813 19.3625 23.875 19.5 23.325 19.5H12.15L10.5 22.5H27C27.425 22.5 27.7813 22.6438 28.0688 22.9313C28.3563 23.2188 28.5 23.575 28.5 24C28.5 24.425 28.3563 24.7812 28.0688 25.0688C27.7813 25.3563 27.425 25.5 27 25.5H10.5C9.375 25.5 8.525 25.0063 7.95 24.0188C7.375 23.0312 7.35 22.05 7.875 21.075L9.9 17.4L4.5 6H3C2.575 6 2.21875 5.85625 1.93125 5.56875C1.64375 5.28125 1.5 4.925 1.5 4.5C1.5 4.075 1.64375 3.71875 1.93125 3.43125C2.21875 3.14375 2.575 3 3 3H5.4375C5.7125 3 5.975 3.075 6.225 3.225C6.475 3.375 6.6625 3.5875 6.7875 3.8625L7.8 6Z" fill="#FF7500" />
</svg>