<svg width="36" height="36" viewBox="0 0 36 36" fill="none" xmlns="http://www.w3.org/2000/svg">
  <path d="M6 11.25C6 10.2554 6.39509 9.30161 7.09835 8.59835C7.80161 7.89509 8.75544 7.5 9.75 7.5H27C27.7956 7.5 28.5587 7.81607 29.1213 8.37868C29.6839 8.94129 30 9.70435 30 10.5V12.75" stroke="#FF7500" stroke-width="3" stroke-linecap="round" stroke-linejoin="round" />
  <path d="M6 12V24.75C6 25.7446 6.39509 26.6984 7.09835 27.4017C7.80161 28.1049 8.75544 28.5 9.75 28.5H27C27.7956 28.5 28.5587 28.1839 29.1213 27.6213C29.6839 27.0587 30 26.2956 30 25.5V15C30 14.2044 29.6839 13.4413 29.1213 12.8787C28.5587 12.3161 27.7956 12 27 12H9.75C8.75544 12 7.80161 12.3951 7.09835 13.0983C6.39509 13.8016 6 14.7554 6 15.75V12Z" stroke="#FF7500" stroke-width="3" stroke-linecap="round" stroke-linejoin="round" />
  <path d="M22.5 19.5H30" stroke="#FF7500" stroke-width="3" stroke-linecap="round" stroke-linejoin="round" />
  <path d="M22.5 21C23.3284 21 24 20.3284 24 19.5C24 18.6716 23.3284 18 22.5 18C21.6716 18 21 18.6716 21 19.5C21 20.3284 21.6716 21 22.5 21Z" fill="#FF7500" />
</svg>