<svg width="36" height="36" viewBox="0 0 36 36" fill="none" xmlns="http://www.w3.org/2000/svg">
  <path d="M7.5 33C6.675 33 5.96875 32.7063 5.38125 32.1188C4.79375 31.5313 4.5 30.825 4.5 30V13.0875C4.05 12.8125 3.6875 12.4563 3.4125 12.0188C3.1375 11.5813 3 11.075 3 10.5V6C3 5.175 3.29375 4.46875 3.88125 3.88125C4.46875 3.29375 5.175 3 6 3H30C30.825 3 31.5313 3.29375 32.1188 3.88125C32.7063 4.46875 33 5.175 33 6V10.5C33 11.075 32.8625 11.5813 32.5875 12.0188C32.3125 12.4563 31.95 12.8125 31.5 13.0875V30C31.5 30.825 31.2063 31.5313 30.6188 32.1188C30.0313 32.7063 29.325 33 28.5 33H7.5ZM7.5 13.5V30H28.5V13.5H7.5ZM6 10.5H30V6H6V10.5ZM15 21H21C21.425 21 21.7812 20.8563 22.0688 20.5688C22.3563 20.2812 22.5 19.925 22.5 19.5C22.5 19.075 22.3563 18.7188 22.0688 18.4313C21.7812 18.1438 21.425 18 21 18H15C14.575 18 14.2188 18.1438 13.9313 18.4313C13.6438 18.7188 13.5 19.075 13.5 19.5C13.5 19.925 13.6438 20.2812 13.9313 20.5688C14.2188 20.8563 14.575 21 15 21Z" fill="#FF7500" />
</svg>