<svg width="36" height="36" viewBox="0 0 36 36" fill="none" xmlns="http://www.w3.org/2000/svg">
  <path d="M18 4.5C10.5 4.5 4.5 9.87 4.5 16.5C4.5 23.13 10.5 28.5 18 28.5H19.8C20.5161 28.5 21.2028 28.2155 21.7092 27.7092C22.2155 27.2028 22.5 26.5161 22.5 25.8C22.5 25.0839 22.2155 24.3972 21.7092 23.8908C21.2028 23.3845 20.5161 23.1 19.8 23.1H18C17.2441 23.1 16.5192 22.7997 15.9847 22.2653C15.4503 21.7308 15.15 21.0059 15.15 20.25C15.15 19.4941 15.4503 18.7692 15.9847 18.2347C16.5192 17.7003 17.2441 17.4 18 17.4H21C21.7879 17.4 22.5681 17.2448 23.2961 16.9433C24.0241 16.6417 24.6855 16.1998 25.2426 15.6426C25.7998 15.0855 26.2417 14.4241 26.5433 13.6961C26.8448 12.9681 27 12.1879 27 11.4C27 7.59 22.965 4.5 18 4.5Z" stroke="#FF7500" stroke-width="3" stroke-linecap="round" stroke-linejoin="round" />
  <path d="M10.5 18C11.3284 18 12 17.3284 12 16.5C12 15.6716 11.3284 15 10.5 15C9.67157 15 9 15.6716 9 16.5C9 17.3284 9.67157 18 10.5 18Z" stroke="#FF7500" stroke-width="3" stroke-linecap="round" stroke-linejoin="round" />
  <path d="M14.5 13C15.3284 13 16 12.3284 16 11.5C16 10.6716 15.3284 10 14.5 10C13.6716 10 13 10.6716 13 11.5C13 12.3284 13.6716 13 14.5 13Z" stroke="#FF7500" stroke-width="3" stroke-linecap="round" stroke-linejoin="round" />
  <path d="M21 12.75C21.8284 12.75 22.5 12.0784 22.5 11.25C22.5 10.4216 21.8284 9.75 21 9.75C20.1716 9.75 19.5 10.4216 19.5 11.25C19.5 12.0784 20.1716 12.75 21 12.75Z" stroke="#FF7500" stroke-width="3" stroke-linecap="round" stroke-linejoin="round" />
  <path d="M25.5 20.9996L27.3 22.7996L31.5 18.5996" stroke="#FF7500" stroke-width="2" stroke-linecap="round" stroke-linejoin="round" />
</svg>