<svg width="1240" height="463" viewBox="0 0 1240 463" fill="none" xmlns="http://www.w3.org/2000/svg">
<g opacity="0.34">
<mask id="mask0_1_158" style="mask-type:alpha" maskUnits="userSpaceOnUse" x="-393" y="-44" width="507" height="507">
<rect x="-392.796" y="-44" width="506.487" height="506.75" fill="url(#paint0_linear_1_158)"/>
</mask>
<g mask="url(#mask0_1_158)">
<path d="M113.633 399.616C113.633 434.568 85.2992 462.901 50.3478 462.901C15.3964 462.901 -12.9373 434.568 -12.9373 399.616H113.633Z" fill="#8CC74F"/>
<path d="M113.672 336.308C78.7427 336.308 50.3777 364.668 50.3777 399.611C85.307 399.611 113.672 371.251 113.672 336.308Z" fill="#CEEDB2"/>
<path d="M50.3741 399.615C50.3741 364.681 22.018 336.311 -12.9202 336.311C-12.9202 371.246 15.4359 399.615 50.3741 399.615Z" fill="#CEEDB2"/>
<circle cx="50.346" cy="304.504" r="31.6542" fill="#CEEDB2"/>
<path d="M113.633 82.7655C113.633 117.717 85.2993 146.051 50.3479 146.051C15.3964 146.051 -12.9372 117.717 -12.9373 82.7655L113.633 82.7655Z" fill="#CEEDB2"/>
<path d="M113.672 19.4591C78.7426 19.4591 50.3777 47.8192 50.3777 82.7625C85.307 82.7625 113.672 54.4023 113.672 19.4591Z" fill="#8CC74F"/>
<path d="M50.3742 82.7658C50.3742 47.8315 22.0181 19.4624 -12.9201 19.4624C-12.9201 54.3968 15.4359 82.7658 50.3742 82.7658Z" fill="#8CC74F"/>
<circle cx="50.346" cy="-12.346" r="31.6542" fill="#CEEDB2"/>
<path d="M-12.9204 209.34V209.34C-12.9204 174.388 15.4343 146.054 50.3865 146.054V146.054L50.3865 209.34L-12.9204 209.34Z" fill="#8CC74F"/>
<path d="M113.692 209.34V209.34C113.692 174.388 85.3369 146.054 50.3847 146.054V146.054L50.3847 209.34L113.692 209.34Z" fill="#8CC74F"/>
<path d="M-12.9096 272.649V272.649C22.0426 272.649 50.377 244.294 50.377 209.342V209.342L-12.9096 209.342L-12.9096 272.649Z" fill="#8CC74F"/>
<path d="M113.682 272.649V272.649C78.7294 272.649 50.395 244.294 50.395 209.342V209.342L113.682 209.342L113.682 272.649Z" fill="#8CC74F"/>
</g>
</g>
<g opacity="0.34">
<mask id="mask1_1_158" style="mask-type:alpha" maskUnits="userSpaceOnUse" x="113" y="-44" width="508" height="507">
<rect x="113.691" y="-44" width="506.487" height="506.75" fill="url(#paint1_linear_1_158)"/>
</mask>
<g mask="url(#mask1_1_158)">
<path d="M113.693 336.16C113.693 301.208 142.047 272.873 176.999 272.873L176.999 336.16L113.693 336.16Z" fill="#CEEDB2"/>
<path d="M240.305 336.16C240.305 301.208 211.951 272.873 176.998 272.873L176.998 336.16L240.305 336.16Z" fill="#CEEDB2"/>
<path d="M113.703 399.469C148.655 399.469 176.99 371.114 176.99 336.162L113.703 336.162L113.703 399.469Z" fill="#CEEDB2"/>
<path d="M240.295 399.469C205.342 399.469 177.008 371.114 177.008 336.162L240.295 336.162L240.295 399.469Z" fill="#CEEDB2"/>
<path d="M493.522 399.483C493.522 434.435 465.167 462.769 430.215 462.769L430.215 399.483L493.522 399.483Z" fill="#8CC74F"/>
<path d="M366.911 399.483C366.911 434.435 395.266 462.769 430.218 462.769L430.218 399.483L366.911 399.483Z" fill="#8CC74F"/>
<path d="M493.513 336.177C458.561 336.177 430.226 364.531 430.226 399.484L493.513 399.484L493.513 336.177Z" fill="#8CC74F"/>
<path d="M366.921 336.177C401.874 336.177 430.208 364.531 430.208 399.484H366.921L366.921 336.177Z" fill="#8CC74F"/>
<path d="M113.731 461.936C114.169 427.361 142.333 399.469 177.011 399.469C211.962 399.469 240.295 427.802 240.296 462.752L113.726 462.752L113.731 461.936Z" fill="#8CC74F"/>
<path d="M620.121 399.616C620.121 434.568 591.787 462.901 556.836 462.901C521.884 462.901 493.551 434.568 493.551 399.616H620.121Z" fill="#8CC74F"/>
<path d="M430.276 325.595C418.628 325.595 409.185 316.153 409.185 304.505C409.185 292.858 418.628 283.415 430.276 283.415C441.925 283.415 451.368 292.858 451.368 304.505C451.368 316.153 441.925 325.595 430.276 325.595Z" fill="#CEF17B"/>
<path d="M472.458 325.595C460.809 325.595 451.366 316.153 451.366 304.505C451.366 292.858 460.809 283.415 472.458 283.415C484.106 283.415 493.549 292.858 493.549 304.505C493.549 316.153 484.106 325.595 472.458 325.595Z" fill="#CEF17B"/>
<path d="M388.089 325.595C376.44 325.595 366.997 316.153 366.997 304.505C366.997 292.858 376.44 283.415 388.089 283.415C399.737 283.415 409.18 292.858 409.18 304.505C409.18 316.153 399.737 325.595 388.089 325.595Z" fill="#CEF17B"/>
<path d="M366.892 272.856C331.967 272.856 303.605 301.217 303.605 336.161C338.531 336.161 366.892 307.8 366.892 272.856Z" fill="#CEEDB2"/>
<path d="M303.601 336.163C303.601 301.228 275.248 272.859 240.314 272.859C240.314 307.794 268.667 336.163 303.601 336.163Z" fill="#CEEDB2"/>
<path d="M240.326 399.457C275.251 399.457 303.613 371.096 303.613 336.152C268.688 336.152 240.326 364.513 240.326 399.457Z" fill="#8CC74F"/>
<path d="M303.605 336.162C303.605 371.096 331.958 399.466 366.893 399.466C366.893 364.531 338.54 336.162 303.605 336.162Z" fill="#8CC74F"/>
<path d="M620.16 336.308C585.231 336.308 556.866 364.668 556.866 399.611C591.795 399.611 620.16 371.251 620.16 336.308Z" fill="#CEEDB2"/>
<path d="M556.862 399.615C556.862 364.681 528.506 336.311 493.568 336.311C493.568 371.246 521.924 399.615 556.862 399.615Z" fill="#CEEDB2"/>
<path d="M240.307 462.753C275.236 462.753 303.601 434.393 303.601 399.45C268.672 399.45 240.307 427.81 240.307 462.753Z" fill="#CEF17B"/>
<path d="M303.604 399.446C303.604 434.381 331.96 462.75 366.899 462.75C366.899 427.816 338.543 399.446 303.604 399.446Z" fill="#CEF17B"/>
<circle cx="556.834" cy="304.504" r="31.6542" fill="#CEEDB2"/>
<path d="M113.692 19.312C113.692 -15.6403 142.047 -43.9746 176.999 -43.9746L176.999 19.312L113.692 19.312Z" fill="#CEF17B"/>
<path d="M240.305 19.3118C240.305 -15.6405 211.95 -43.9748 176.998 -43.9748L176.998 19.3118L240.305 19.3118Z" fill="#CEF17B"/>
<path d="M113.703 82.6207C148.655 82.6207 176.989 54.266 176.989 19.3138L113.703 19.3138L113.703 82.6207Z" fill="#CEF17B"/>
<path d="M240.294 82.6205C205.342 82.6205 177.007 54.2658 177.007 19.3136L240.294 19.3136L240.294 82.6205Z" fill="#CEF17B"/>
<path d="M493.522 82.6329C493.522 117.585 465.167 145.919 430.215 145.919L430.215 82.6329L493.522 82.6329Z" fill="#CEF17B"/>
<path d="M366.911 82.6329C366.911 117.585 395.266 145.919 430.218 145.919L430.218 82.6329L366.911 82.6329Z" fill="#CEF17B"/>
<path d="M493.513 19.3275C458.561 19.3275 430.226 47.6822 430.226 82.6344L493.513 82.6345L493.513 19.3275Z" fill="#CEF17B"/>
<path d="M366.921 19.3276C401.874 19.3276 430.208 47.6823 430.208 82.6345H366.921L366.921 19.3276Z" fill="#CEF17B"/>
<path d="M113.727 145.903C113.727 110.952 142.06 82.6185 177.011 82.6185C211.962 82.6185 240.296 110.952 240.296 145.903L113.727 145.903Z" fill="#CEEDB2"/>
<path d="M620.121 82.7655C620.121 117.717 591.787 146.051 556.836 146.051C521.884 146.051 493.551 117.717 493.55 82.7655L620.121 82.7655Z" fill="#CEEDB2"/>
<path d="M430.276 8.74338C418.628 8.74338 409.185 -0.698982 409.185 -12.3467C409.185 -23.9945 418.628 -33.4369 430.276 -33.4369C441.925 -33.4369 451.368 -23.9945 451.368 -12.3467C451.368 -0.698982 441.925 8.74338 430.276 8.74338Z" fill="#CEF17B"/>
<path d="M472.457 8.74347C460.809 8.74347 451.366 -0.698891 451.366 -12.3466C451.366 -23.9944 460.809 -33.4368 472.457 -33.4368C484.106 -33.4368 493.549 -23.9944 493.549 -12.3466C493.549 -0.698891 484.106 8.74347 472.457 8.74347Z" fill="#CEF17B"/>
<path d="M388.089 8.74338C376.44 8.74338 366.997 -0.698982 366.997 -12.3467C366.997 -23.9945 376.44 -33.4369 388.089 -33.4369C399.737 -33.4369 409.18 -23.9945 409.18 -12.3467C409.18 -0.698982 399.737 8.74338 388.089 8.74338Z" fill="#CEF17B"/>
<path d="M366.87 -43.9915C331.949 -43.9915 303.59 -15.6276 303.59 19.3203C338.512 19.3203 366.87 -9.0436 366.87 -43.9915Z" fill="#CEEDB2"/>
<path d="M303.588 19.3222C303.588 -15.6167 275.238 -43.9895 240.307 -43.9895C240.307 -9.05059 268.657 19.3222 303.588 19.3222Z" fill="#CEEDB2"/>
<path d="M240.319 82.6245C275.241 82.6245 303.6 54.2607 303.6 19.3128C268.678 19.3128 240.319 47.6767 240.319 82.6245Z" fill="#8CC74F"/>
<path d="M303.59 19.3223C303.59 54.2613 331.94 82.6341 366.871 82.6341C366.871 47.6951 338.521 19.3223 303.59 19.3223Z" fill="#8CC74F"/>
<path d="M620.16 19.4591C585.231 19.4591 556.866 47.8192 556.866 82.7625C591.795 82.7625 620.16 54.4023 620.16 19.4591Z" fill="#8CC74F"/>
<path d="M556.862 82.7658C556.862 47.8315 528.506 19.4624 493.568 19.4624C493.568 54.3968 521.924 82.7658 556.862 82.7658Z" fill="#8CC74F"/>
<path d="M240.307 145.902C275.236 145.902 303.601 117.542 303.601 82.5991C268.672 82.5991 240.307 110.959 240.307 145.902Z" fill="#CEF17B"/>
<path d="M303.604 82.5957C303.604 117.53 331.96 145.899 366.899 145.899C366.899 110.965 338.543 82.5957 303.604 82.5957Z" fill="#CEF17B"/>
<circle cx="556.834" cy="-12.346" r="31.6542" fill="#CEEDB2"/>
<path d="M240.409 146.161C205.456 146.161 177.072 174.536 177.072 209.499C212.025 209.499 240.409 181.123 240.409 146.161Z" fill="#CEF17B"/>
<path d="M177.067 209.503C177.067 174.55 148.692 146.165 113.73 146.165C113.73 181.118 142.105 209.503 177.067 209.503Z" fill="#CEF17B"/>
<path d="M113.741 272.831C148.694 272.831 177.079 244.455 177.079 209.493C142.126 209.493 113.741 237.869 113.741 272.831Z" fill="#8CC74F"/>
<path d="M177.072 209.502C177.072 244.455 205.447 272.84 240.409 272.84C240.409 237.887 212.034 209.502 177.072 209.502Z" fill="#8CC74F"/>
<path d="M240.401 209.401C240.402 174.474 268.715 146.161 303.642 146.161C338.569 146.161 366.883 174.475 366.883 209.401L240.401 209.401Z" fill="#CEEDB2"/>
<path d="M240.401 272.658C240.401 237.731 268.715 209.417 303.642 209.417C338.569 209.417 366.883 237.731 366.883 272.658L240.401 272.658Z" fill="#CEF17B"/>
<path d="M493.476 146.151C493.476 181.077 465.163 209.389 430.237 209.389C395.312 209.389 366.999 181.077 366.999 146.151L493.476 146.151Z" fill="#8CC74F"/>
<path d="M493.513 209.391C458.61 209.391 430.266 237.73 430.266 272.648C465.169 272.648 493.513 244.308 493.513 209.391Z" fill="#CEEDB2"/>
<path d="M430.262 272.651C430.262 237.743 401.927 209.394 367.015 209.394C367.015 244.303 395.35 272.651 430.262 272.651Z" fill="#CEEDB2"/>
<path d="M493.568 209.34C493.568 174.388 521.922 146.054 556.875 146.054L556.875 209.34L493.568 209.34Z" fill="#8CC74F"/>
<path d="M620.18 209.34C620.18 174.388 591.825 146.054 556.873 146.054L556.873 209.34L620.18 209.34Z" fill="#8CC74F"/>
<path d="M493.578 272.649C528.53 272.649 556.864 244.294 556.864 209.342L493.578 209.342L493.578 272.649Z" fill="#8CC74F"/>
<path d="M620.169 272.649C585.217 272.649 556.883 244.294 556.883 209.342L620.169 209.342L620.169 272.649Z" fill="#8CC74F"/>
</g>
</g>
<g opacity="0.34">
<mask id="mask2_1_158" style="mask-type:alpha" maskUnits="userSpaceOnUse" x="620" y="-44" width="507" height="507">
<rect x="620.179" y="-44" width="506.487" height="506.75" fill="url(#paint2_linear_1_158)"/>
</mask>
<g mask="url(#mask2_1_158)">
<path d="M620.18 336.16C620.18 301.208 648.534 272.873 683.486 272.873L683.486 336.16L620.18 336.16Z" fill="#CEEDB2"/>
<path d="M746.792 336.16C746.792 301.208 718.437 272.873 683.485 272.873L683.485 336.16L746.792 336.16Z" fill="#CEEDB2"/>
<path d="M620.19 399.469C655.142 399.469 683.476 371.114 683.476 336.162L620.19 336.162L620.19 399.469Z" fill="#CEEDB2"/>
<path d="M746.781 399.469C711.829 399.469 683.495 371.114 683.495 336.162L746.781 336.162L746.781 399.469Z" fill="#CEEDB2"/>
<path d="M1000.01 399.483C1000.01 434.435 971.653 462.769 936.701 462.769L936.701 399.483L1000.01 399.483Z" fill="#8CC74F"/>
<path d="M873.397 399.483C873.397 434.435 901.752 462.769 936.704 462.769L936.704 399.483L873.397 399.483Z" fill="#8CC74F"/>
<path d="M999.999 336.177C965.047 336.177 936.712 364.531 936.712 399.484L999.999 399.484L999.999 336.177Z" fill="#8CC74F"/>
<path d="M873.408 336.177C908.36 336.177 936.694 364.531 936.694 399.484H873.408L873.408 336.177Z" fill="#8CC74F"/>
<path d="M620.218 461.936C620.656 427.361 648.82 399.469 683.498 399.469C718.449 399.469 746.782 427.802 746.783 462.752L620.213 462.752L620.218 461.936Z" fill="#8CC74F"/>
<path d="M1126.61 399.616C1126.61 434.568 1098.27 462.901 1063.32 462.901C1028.37 462.901 1000.04 434.568 1000.04 399.616H1126.61Z" fill="#8CC74F"/>
<path d="M936.763 325.595C925.115 325.595 915.672 316.153 915.672 304.505C915.672 292.858 925.115 283.415 936.763 283.415C948.412 283.415 957.855 292.858 957.855 304.505C957.855 316.153 948.412 325.595 936.763 325.595Z" fill="#CEF17B"/>
<path d="M978.944 325.595C967.296 325.595 957.853 316.153 957.853 304.505C957.853 292.858 967.296 283.415 978.944 283.415C990.593 283.415 1000.04 292.858 1000.04 304.505C1000.04 316.153 990.593 325.595 978.944 325.595Z" fill="#CEF17B"/>
<path d="M894.575 325.595C882.927 325.595 873.484 316.153 873.484 304.505C873.484 292.858 882.927 283.415 894.575 283.415C906.224 283.415 915.667 292.858 915.667 304.505C915.667 316.153 906.224 325.595 894.575 325.595Z" fill="#CEF17B"/>
<path d="M873.379 272.856C838.453 272.856 810.091 301.217 810.091 336.161C845.016 336.161 873.379 307.8 873.379 272.856Z" fill="#CEEDB2"/>
<path d="M810.088 336.163C810.088 301.228 781.735 272.859 746.8 272.859C746.8 307.794 775.153 336.163 810.088 336.163Z" fill="#CEEDB2"/>
<path d="M746.812 399.457C781.738 399.457 810.1 371.096 810.1 336.152C775.174 336.152 746.812 364.513 746.812 399.457Z" fill="#8CC74F"/>
<path d="M810.091 336.162C810.091 371.096 838.444 399.466 873.378 399.466C873.378 364.531 845.025 336.162 810.091 336.162Z" fill="#8CC74F"/>
<path d="M1126.65 336.308C1091.72 336.308 1063.35 364.668 1063.35 399.611C1098.28 399.611 1126.65 371.251 1126.65 336.308Z" fill="#CEEDB2"/>
<path d="M1063.35 399.615C1063.35 364.681 1034.99 336.311 1000.05 336.311C1000.05 371.246 1028.41 399.615 1063.35 399.615Z" fill="#CEEDB2"/>
<path d="M746.794 462.753C781.723 462.753 810.088 434.393 810.088 399.45C775.159 399.45 746.794 427.81 746.794 462.753Z" fill="#CEF17B"/>
<path d="M810.091 399.446C810.091 434.381 838.447 462.75 873.385 462.75C873.385 427.816 845.029 399.446 810.091 399.446Z" fill="#CEF17B"/>
<circle cx="1063.32" cy="304.504" r="31.6542" fill="#CEEDB2"/>
<path d="M620.18 19.312C620.18 -15.6402 648.534 -43.9746 683.487 -43.9746L683.487 19.312L620.18 19.312Z" fill="#CEF17B"/>
<path d="M746.792 19.312C746.792 -15.6402 718.437 -43.9746 683.485 -43.9746L683.485 19.312L746.792 19.312Z" fill="#CEF17B"/>
<path d="M620.19 82.6207C655.142 82.6207 683.476 54.266 683.476 19.3138L620.19 19.3138L620.19 82.6207Z" fill="#CEF17B"/>
<path d="M746.781 82.6207C711.829 82.6207 683.495 54.266 683.495 19.3138L746.781 19.3138L746.781 82.6207Z" fill="#CEF17B"/>
<path d="M1000.01 82.6329C1000.01 117.585 971.653 145.919 936.701 145.919L936.701 82.6329L1000.01 82.6329Z" fill="#CEF17B"/>
<path d="M873.398 82.6329C873.398 117.585 901.752 145.919 936.704 145.919L936.704 82.6329L873.398 82.6329Z" fill="#CEF17B"/>
<path d="M999.999 19.3275C965.047 19.3275 936.713 47.6822 936.713 82.6344L999.999 82.6344L999.999 19.3275Z" fill="#CEF17B"/>
<path d="M873.408 19.3276C908.36 19.3276 936.695 47.6823 936.695 82.6345H873.408L873.408 19.3276Z" fill="#CEF17B"/>
<path d="M620.214 145.903C620.214 110.952 648.547 82.6185 683.498 82.6185C718.449 82.6185 746.783 110.952 746.783 145.903L620.214 145.903Z" fill="#CEEDB2"/>
<path d="M1126.61 82.7655C1126.61 117.717 1098.27 146.051 1063.32 146.051C1028.37 146.051 1000.04 117.717 1000.04 82.7655L1126.61 82.7655Z" fill="#CEEDB2"/>
<path d="M936.764 8.74346C925.115 8.74346 915.672 -0.698906 915.672 -12.3467C915.672 -23.9944 925.115 -33.4368 936.764 -33.4368C948.412 -33.4368 957.855 -23.9944 957.855 -12.3467C957.855 -0.698906 948.412 8.74346 936.764 8.74346Z" fill="#CEF17B"/>
<path d="M978.944 8.74355C967.296 8.74355 957.853 -0.698814 957.853 -12.3466C957.853 -23.9943 967.296 -33.4367 978.944 -33.4367C990.593 -33.4367 1000.04 -23.9943 1000.04 -12.3466C1000.04 -0.698814 990.593 8.74355 978.944 8.74355Z" fill="#CEF17B"/>
<path d="M894.576 8.74346C882.927 8.74346 873.484 -0.698906 873.484 -12.3467C873.484 -23.9944 882.927 -33.4368 894.576 -33.4368C906.224 -33.4368 915.667 -23.9944 915.667 -12.3467C915.667 -0.698906 906.224 8.74346 894.576 8.74346Z" fill="#CEF17B"/>
<path d="M873.357 -43.9914C838.436 -43.9914 810.077 -15.6275 810.077 19.3204C844.999 19.3204 873.357 -9.04353 873.357 -43.9914Z" fill="#CEEDB2"/>
<path d="M810.075 19.3222C810.075 -15.6167 781.725 -43.9895 746.794 -43.9895C746.794 -9.05059 775.144 19.3222 810.075 19.3222Z" fill="#CEEDB2"/>
<path d="M746.806 82.6245C781.727 82.6245 810.086 54.2607 810.086 19.3128C775.164 19.3128 746.806 47.6767 746.806 82.6245Z" fill="#8CC74F"/>
<path d="M810.077 19.3223C810.077 54.2613 838.427 82.6341 873.357 82.6341C873.357 47.6951 845.008 19.3223 810.077 19.3223Z" fill="#8CC74F"/>
<path d="M1126.65 19.4591C1091.72 19.4591 1063.35 47.8192 1063.35 82.7625C1098.28 82.7625 1126.65 54.4023 1126.65 19.4591Z" fill="#8CC74F"/>
<path d="M1063.35 82.7658C1063.35 47.8315 1034.99 19.4624 1000.05 19.4624C1000.05 54.3968 1028.41 82.7658 1063.35 82.7658Z" fill="#8CC74F"/>
<path d="M746.794 145.902C781.723 145.902 810.088 117.542 810.088 82.599C775.159 82.599 746.794 110.959 746.794 145.902Z" fill="#CEF17B"/>
<path d="M810.091 82.5957C810.091 117.53 838.447 145.899 873.385 145.899C873.385 110.965 845.029 82.5957 810.091 82.5957Z" fill="#CEF17B"/>
<circle cx="1063.32" cy="-12.346" r="31.6542" fill="#CEEDB2"/>
<path d="M746.896 146.161C711.943 146.161 683.558 174.537 683.558 209.499C718.511 209.499 746.896 181.123 746.896 146.161Z" fill="#CEF17B"/>
<path d="M683.554 209.503C683.554 174.55 655.178 146.165 620.217 146.165C620.217 181.119 648.592 209.503 683.554 209.503Z" fill="#CEF17B"/>
<path d="M620.229 272.831C655.182 272.831 683.566 244.455 683.566 209.493C648.613 209.493 620.229 237.869 620.229 272.831Z" fill="#8CC74F"/>
<path d="M683.558 209.502C683.558 244.456 711.933 272.84 746.895 272.84C746.895 237.887 718.52 209.502 683.558 209.502Z" fill="#8CC74F"/>
<path d="M746.887 209.401C746.888 174.474 775.202 146.161 810.129 146.161C845.055 146.161 873.369 174.475 873.37 209.401L746.887 209.401Z" fill="#CEEDB2"/>
<path d="M746.887 272.658C746.888 237.731 775.201 209.417 810.129 209.417C845.056 209.417 873.37 237.731 873.37 272.658L746.887 272.658Z" fill="#CEF17B"/>
<path d="M999.963 146.151C999.963 181.077 971.649 209.389 936.724 209.389C901.798 209.389 873.485 181.077 873.485 146.151L999.963 146.151Z" fill="#8CC74F"/>
<path d="M1000 209.391C965.097 209.391 936.753 237.73 936.753 272.648C971.656 272.648 1000 244.308 1000 209.391Z" fill="#CEEDB2"/>
<path d="M936.749 272.651C936.749 237.743 908.414 209.394 873.502 209.394C873.502 244.303 901.837 272.651 936.749 272.651Z" fill="#CEEDB2"/>
<path d="M1000.05 209.34C1000.05 174.388 1028.41 146.054 1063.36 146.054L1063.36 209.34L1000.05 209.34Z" fill="#8CC74F"/>
<path d="M1126.67 209.34C1126.67 174.388 1098.31 146.054 1063.36 146.054L1063.36 209.34L1126.67 209.34Z" fill="#8CC74F"/>
<path d="M1000.06 272.649C1035.02 272.649 1063.35 244.294 1063.35 209.342L1000.06 209.342L1000.06 272.649Z" fill="#8CC74F"/>
<path d="M1126.66 272.649C1091.7 272.649 1063.37 244.294 1063.37 209.342L1126.66 209.342L1126.66 272.649Z" fill="#8CC74F"/>
</g>
</g>
<g opacity="0.34">
<mask id="mask3_1_158" style="mask-type:alpha" maskUnits="userSpaceOnUse" x="1126" y="-44" width="508" height="507">
<rect x="1126.67" y="-44" width="506.487" height="506.75" fill="url(#paint3_linear_1_158)"/>
</mask>
<g mask="url(#mask3_1_158)">
<path d="M1126.67 336.16C1126.67 301.208 1155.02 272.873 1189.97 272.873L1189.97 336.16L1126.67 336.16Z" fill="#CEEDB2"/>
<path d="M1253.28 336.16C1253.28 301.208 1224.92 272.873 1189.97 272.873L1189.97 336.16L1253.28 336.16Z" fill="#CEEDB2"/>
<path d="M1126.68 399.469C1161.63 399.469 1189.96 371.114 1189.96 336.162L1126.68 336.162L1126.68 399.469Z" fill="#CEEDB2"/>
<path d="M1253.27 399.469C1218.32 399.469 1189.98 371.114 1189.98 336.162L1253.27 336.162L1253.27 399.469Z" fill="#CEEDB2"/>
<path d="M1126.7 461.936C1127.14 427.361 1155.31 399.469 1189.98 399.469C1224.94 399.469 1253.27 427.802 1253.27 462.752L1126.7 462.752L1126.7 461.936Z" fill="#8CC74F"/>
<path d="M1126.67 19.312C1126.67 -15.6402 1155.02 -43.9746 1189.97 -43.9746L1189.97 19.312L1126.67 19.312Z" fill="#CEF17B"/>
<path d="M1253.28 19.312C1253.28 -15.6402 1224.92 -43.9746 1189.97 -43.9746L1189.97 19.312L1253.28 19.312Z" fill="#CEF17B"/>
<path d="M1126.68 82.6207C1161.63 82.6207 1189.96 54.266 1189.96 19.3138L1126.68 19.3138L1126.68 82.6207Z" fill="#CEF17B"/>
<path d="M1253.27 82.6207C1218.32 82.6207 1189.98 54.266 1189.98 19.3138L1253.27 19.3138L1253.27 82.6207Z" fill="#CEF17B"/>
<path d="M1126.7 145.903C1126.7 110.952 1155.03 82.6185 1189.98 82.6184C1224.94 82.6185 1253.27 110.952 1253.27 145.903L1126.7 145.903Z" fill="#CEEDB2"/>
<path d="M1253.38 146.161C1218.43 146.161 1190.05 174.537 1190.05 209.499C1225 209.499 1253.38 181.123 1253.38 146.161Z" fill="#CEF17B"/>
<path d="M1190.04 209.503C1190.04 174.55 1161.67 146.165 1126.7 146.165C1126.7 181.119 1155.08 209.503 1190.04 209.503Z" fill="#CEF17B"/>
<path d="M1126.72 272.831C1161.67 272.831 1190.05 244.455 1190.05 209.493C1155.1 209.493 1126.72 237.869 1126.72 272.831Z" fill="#8CC74F"/>
<path d="M1190.05 209.502C1190.05 244.456 1218.42 272.84 1253.38 272.84C1253.38 237.887 1225.01 209.502 1190.05 209.502Z" fill="#8CC74F"/>
</g>
</g>
<defs>
<linearGradient id="paint0_linear_1_158" x1="-139.552" y1="-44" x2="-139.552" y2="581.794" gradientUnits="userSpaceOnUse">
<stop stop-color="#D9D9D9" stop-opacity="0"/>
<stop offset="1" stop-color="#737373" stop-opacity="0.54"/>
</linearGradient>
<linearGradient id="paint1_linear_1_158" x1="366.935" y1="-44" x2="366.935" y2="581.794" gradientUnits="userSpaceOnUse">
<stop stop-color="#D9D9D9" stop-opacity="0"/>
<stop offset="1" stop-color="#737373" stop-opacity="0.54"/>
</linearGradient>
<linearGradient id="paint2_linear_1_158" x1="873.422" y1="-44" x2="873.422" y2="581.794" gradientUnits="userSpaceOnUse">
<stop stop-color="#D9D9D9" stop-opacity="0"/>
<stop offset="1" stop-color="#737373" stop-opacity="0.54"/>
</linearGradient>
<linearGradient id="paint3_linear_1_158" x1="1379.91" y1="-44" x2="1379.91" y2="581.794" gradientUnits="userSpaceOnUse">
<stop stop-color="#D9D9D9" stop-opacity="0"/>
<stop offset="1" stop-color="#737373" stop-opacity="0.54"/>
</linearGradient>
</defs>
</svg>
