<svg width="1231" height="192" viewBox="0 0 1231 192" fill="none" xmlns="http://www.w3.org/2000/svg">
<g clip-path="url(#clip0_1_2816)">
<rect width="1231" height="192" fill="#FF7500"/>
<rect x="-219.004" y="312.458" width="433.975" height="774.611" transform="rotate(-90 -219.004 312.458)" fill="#EFEFEF"/>
<path d="M444.52 235.183L444.52 -43.0368L490.556 -43.0368C567.384 -43.0368 629.666 19.2447 629.666 96.0729C629.666 172.901 567.384 235.183 490.556 235.183L444.52 235.183Z" fill="#EFEFEF"/>
<path fill-rule="evenodd" clip-rule="evenodd" d="M337.826 91.6945C351.47 86.0344 350.989 59.9587 329.439 59.9587L252.865 59.9757L252.26 69.6209C252.26 69.6209 263.628 75.426 265.315 76.2741C265.207 78.3498 263.876 103.518 263.788 105.154C262.482 105.994 250.116 114.092 250.116 114.092L249.531 124.372H326.266C350.292 124.372 352.796 97.7127 337.826 91.6988V91.6945ZM306.058 106.825H297.239C297.347 104.732 297.628 99.3621 297.728 97.4612H306.712C312.734 97.4612 312.313 106.812 306.062 106.825H306.058ZM307.233 83.5752C307.233 83.5752 298.838 83.5709 298.409 83.5709C298.505 81.5635 298.726 76.9603 298.814 75.1191C298.918 75.1191 307.641 75.1191 307.641 75.1191C313.247 75.1191 313.279 83.5794 307.233 83.5794V83.5752Z" fill="#545353"/>
<path fill-rule="evenodd" clip-rule="evenodd" d="M223.014 59H189.214C171.96 59 163.329 73.7384 162.624 84.8882C162.624 84.9351 162.039 94.559 162.039 94.559C160.744 105.751 169.584 124.854 186.393 124.854H219.916C236.157 124.931 246.567 114.455 248.078 96.1104L248.687 86.593C249.36 76.6708 244.379 59.0042 223.014 59.0042V59ZM210.728 101.472C210.6 104.733 208.749 108.181 205.355 108.232H201.957C199.192 108.189 198.026 105.807 198.182 101.634C198.182 101.66 199.348 80.0038 199.348 80.0038C199.44 76.658 201.788 73.5339 204.305 73.5339H207.671C210.432 73.5168 212.118 75.9292 212.118 79.6202L210.724 101.472H210.728Z" fill="#545353"/>
<path d="M354.945 60.8108L354.344 70.4134C354.344 70.4134 368 77.9744 369.655 78.8737C369.543 80.8556 368.353 102.405 368.261 104.106C366.826 104.928 352.445 113.295 352.445 113.295L351.992 123.498H417.932L418.521 113.623C418.521 113.623 405.811 104.707 404.416 103.748C404.5 101.983 405.514 80.3868 405.602 78.5839C407.129 77.7911 420.889 70.5071 420.889 70.5071L421.338 60.8065H354.945V60.8108Z" fill="#545353"/>
<path d="M416.548 103.048L415.43 100.24H414.48V103.048H413.863V97.043H415.318C416.247 97.043 416.993 97.1708 416.993 98.3557V98.7862C416.993 99.498 416.704 99.9455 416.079 100.129L417.237 103.044H416.544L416.548 103.048ZM416.372 98.4324C416.372 97.5161 415.787 97.6056 415.126 97.6056H414.48V99.6599H415.105C415.775 99.6599 416.368 99.7409 416.368 98.7436V98.4367L416.372 98.4324Z" fill="#545353"/>
<path d="M419.869 100.005C419.869 102.678 417.834 104.839 415.321 104.839C412.809 104.839 410.773 102.674 410.773 100.005C410.773 97.3373 412.809 95.1679 415.321 95.1679C417.834 95.1679 419.869 97.333 419.869 100.005Z" stroke="#545353" stroke-width="0.631019"/>
<path d="M418.373 63.8115C418.304 65.3161 418.196 67.656 418.152 68.5936C416.974 69.2074 402.641 76.6704 402.641 76.6704L401.291 105.329C401.291 105.329 414.514 114.437 415.604 115.192C415.544 116.176 415.375 119.032 415.287 120.502H354.949C355.021 118.912 355.146 116.082 355.186 115.136C356.3 114.497 371.21 105.96 371.21 105.96L372.805 77.1009C372.805 77.1009 358.572 69.3523 357.281 68.6491C357.345 67.6091 357.494 65.2095 357.582 63.82H418.368L418.373 63.8115Z" fill="#FF7E21"/>
<path fill-rule="evenodd" clip-rule="evenodd" d="M334.235 93.1012L330.5 92.0484L334.131 90.6462C349.109 84.9988 347.534 62.9551 329.482 62.9551C329.482 62.9551 257.697 62.9721 255.501 62.9721C255.413 64.3531 255.268 66.7058 255.2 67.7713C256.53 68.4362 268.463 74.4117 268.463 74.4117L266.748 106.893C266.748 106.893 253.842 115.188 252.84 115.831C252.788 116.726 252.62 119.722 252.523 121.359H326.261C346.845 121.359 350.395 97.6957 334.231 93.0969L334.235 93.1012ZM306.065 109.613H294.469L295.246 94.6739H306.707C316.251 94.6739 315.774 109.587 306.065 109.613ZM307.356 86.3585L295.651 86.3499L296.316 72.319H307.444C317.149 72.319 316.295 86.3585 307.352 86.3585H307.356Z" fill="#FF7E21"/>
<path fill-rule="evenodd" clip-rule="evenodd" d="M223.007 62H189.216C176.313 62 166.848 71.3085 165.666 85.1264C165.666 85.1264 165.085 94.7503 165.085 94.7716C163.935 106.365 172.334 121.853 186.395 121.853H219.921C239.909 121.951 244.236 105.602 245.038 95.8456C245.038 95.8456 245.643 86.3922 245.643 86.4007C246.372 77.4119 242.229 62 223.011 62H223.007ZM214.849 80.0075C214.849 80.0075 213.454 101.655 213.458 101.629C213.25 106.914 209.784 110.951 205.376 111.019H201.938C197.306 110.946 195.254 106.74 195.45 101.501C195.45 101.501 196.617 79.8456 196.617 79.8839C196.749 75.0208 200.343 70.7502 204.306 70.7502H207.664C211.378 70.7331 215.005 73.9468 214.849 79.9564V80.0075Z" fill="#FF7E21"/>
<path d="M1040.92 135.5H1045.4V152.986H1040.92V146.177H1033.09V152.986H1028.61V135.5H1033.09V141.947H1040.92V135.5ZM1047.52 139.832H1053.1V152.986H1057.58V139.832H1063.09V135.5H1047.51V139.838L1047.52 139.832ZM1084.85 149.184V152.901C1084.08 153.287 1083.13 153.48 1082.01 153.48C1079.68 153.48 1078.5 152.455 1078.04 150.816L1077.96 150.925C1076.61 152.636 1074.73 153.48 1072.3 153.48C1069.87 153.48 1067.99 152.606 1066.32 150.823C1064.69 149.039 1063.85 146.834 1063.85 144.249C1063.85 141.664 1064.69 139.489 1066.32 137.711C1067.99 135.928 1069.97 135.018 1072.3 135.018C1074.63 135.018 1076.44 135.789 1077.78 137.35V135.506H1082.27V147.876C1082.27 148.931 1082.75 149.479 1083.7 149.479C1084.15 149.479 1084.52 149.382 1084.85 149.19M1077.96 144.243C1077.96 142.809 1077.5 141.622 1076.57 140.712C1075.67 139.766 1074.52 139.308 1073.13 139.308C1071.74 139.308 1070.59 139.766 1069.69 140.712C1068.78 141.616 1068.33 142.809 1068.33 144.243C1068.33 145.677 1068.78 146.864 1069.69 147.816C1070.59 148.72 1071.74 149.178 1073.13 149.178C1074.51 149.178 1075.67 148.72 1076.57 147.816C1077.51 146.87 1077.96 145.683 1077.96 144.243ZM991.671 135.5L991.533 142.068C991.503 144.725 991.407 146.044 991.029 147.551C990.681 148.991 990.009 149.395 988.959 149.395C988.611 149.395 988.293 149.364 988.035 149.268V152.986C988.383 153.178 988.959 153.275 989.721 153.275C992.878 153.178 994.402 151.684 995.164 148.991C995.704 147.069 995.8 145.593 995.896 143.387L995.998 139.844H1001.57V152.998H1006.05V135.512H991.659L991.671 135.5ZM1013.26 145.424C1013.74 148.406 1016.1 149.388 1018.49 149.388C1020.07 149.388 1021.73 148.762 1022.75 147.84L1025.51 150.642C1023.86 152.479 1021.56 153.486 1018.42 153.486C1014.02 153.486 1008.71 150.871 1008.71 144.249C1008.71 137.627 1013.83 135.018 1018.16 135.018C1023.65 135.018 1025.93 137.609 1025.93 140.525C1025.93 145.285 1019.92 147.478 1013.27 145.43L1013.26 145.424ZM1021.05 141.025C1021.05 139.67 1019.72 139.061 1018.22 139.061C1015.93 139.061 1013.96 140.031 1013.36 142.526C1018.01 143.875 1021.05 142.863 1021.05 141.019V141.025Z" fill="white"/>
<path d="M938.781 156.324C930.518 136.995 911.292 123.438 888.898 123.438C897.155 142.773 916.387 156.336 938.787 156.336C955.246 156.336 969.407 146.587 975.804 132.554C959.344 132.554 945.177 142.303 938.787 156.33L938.781 156.324Z" fill="white"/>
<path d="M938.821 48C916.343 48 898.449 65.6542 898.449 88.5384C898.449 111.423 916.343 129.077 938.821 129.077C961.299 129.077 979.354 111.417 979.354 88.5384C979.354 65.6603 961.299 48 938.821 48ZM938.821 109.73C927.186 109.73 918.167 100.981 918.167 88.5324C918.167 76.0841 927.042 67.3353 938.821 67.3353C950.6 67.3353 959.624 76.0961 959.624 88.5324C959.624 100.969 950.456 109.73 938.821 109.73Z" fill="white"/>
<path d="M885.927 88.5386C885.927 67.0402 868.195 50.4102 845.993 50.115H845.777C845.675 50.115 845.573 50.109 845.471 50.109L812.666 50.115C810.458 50.115 808.664 51.9166 808.664 54.1339V65.1422C808.664 65.1904 808.664 65.2326 808.67 65.2747V122.925C808.67 122.925 808.67 122.931 808.67 122.937V122.967C808.67 125.185 810.464 126.986 812.672 126.986H846.005V126.974C868.195 126.667 885.927 110.043 885.927 88.5506V88.5386ZM845.747 107.934H827.632V69.149H845.993C857.472 69.4021 866.191 76.9458 866.191 88.5325C866.191 100.119 857.202 107.771 845.747 107.934Z" fill="white"/>
<path d="M1081.96 54.0556C1081.96 51.8744 1080.19 50.109 1078.02 50.109H1066.37C1064.98 50.109 1063.68 50.8441 1062.98 52.0491L1037.92 94.5217L1012.12 52.007C1011.41 50.826 1010.13 50.109 1008.76 50.109H997.079C994.901 50.109 993.137 51.8804 993.137 54.0676V123.022C993.137 125.209 994.901 126.98 997.079 126.98H1009.21C1011.39 126.98 1013.15 125.209 1013.15 123.022V87.3335L1031.64 117.605C1032.32 118.719 1033.53 119.4 1034.83 119.4H1040.23C1041.55 119.4 1042.77 118.701 1043.45 117.563L1062.06 86.2188L1062.14 123.034C1062.14 125.215 1063.91 126.98 1066.09 126.98H1078.22C1080.4 126.98 1082.17 125.203 1082.16 123.009L1081.96 54.0556Z" fill="white"/>
<path d="M685.498 57C697.648 57.0002 707.498 66.8501 707.498 79V101.46C707.498 113.61 697.648 123.46 685.498 123.46H551.258C550.958 123.46 550.666 123.555 550.424 123.732L535.292 134.77C534.357 135.452 533.043 134.784 533.043 133.627V82C533.043 68.1931 544.236 57 558.043 57H685.498Z" fill="#545353"/>
<path d="M558.168 74.6725H575.738V79.529H569.539V102.311H564.406V79.529H558.168V74.6725ZM578.975 74.6725H595.559V79.529H584.108V86.1622H594.374V90.8213H584.108V97.4546H595.756V102.311H578.975V74.6725ZM599.256 74.6725H616.826V102.311H611.693V79.529H604.389V102.311H599.256V74.6725ZM621.004 74.6725H637.587V79.529H626.137V86.1622H636.402V90.8213H626.137V97.4546H637.784V102.311H621.004V74.6725ZM641.324 74.6725H650.484C656.723 74.6725 659.289 77.1205 659.289 83.1615C659.289 89.163 656.723 91.6505 650.484 91.6505H646.457V102.311H641.324V74.6725ZM646.457 86.794H650.01C653.13 86.794 654.156 85.9253 654.156 83.1615C654.156 80.3187 653.169 79.529 650.01 79.529H646.457V86.794ZM662.414 74.6725H667.547V85.3331H671.614C677.853 85.3331 680.379 87.7811 680.379 93.7826C680.379 99.8236 677.813 102.311 671.614 102.311H662.414V74.6725ZM667.547 90.1896V97.4546H671.18C674.299 97.4546 675.247 96.6254 675.247 93.8221C675.247 90.9792 674.299 90.1896 671.18 90.1896H667.547Z" fill="white"/>
</g>
<defs>
<clipPath id="clip0_1_2816">
<rect width="1231" height="192" fill="white"/>
</clipPath>
</defs>
</svg>
