<svg width="67" height="67" viewBox="0 0 67 67" fill="none" xmlns="http://www.w3.org/2000/svg">
<g clip-path="url(#clip0_1_2903)">
<rect width="66.4318" height="66.4318" rx="14.7626" fill="#FF7500"/>
<path d="M32.8057 0C32.7032 1.6508 32.6482 3.31379 32.593 4.97954C32.416 10.3249 32.2381 15.6987 30.4876 20.7893C28.7171 25.8829 24.3021 29.8303 19.0626 31.065C12.8384 32.5487 6.36809 32.6705 0 32.7148V33.7114C5.66544 33.7446 11.3778 34.0159 16.9768 34.9294C22.5039 35.7765 27.8596 39.1759 30.045 44.4742C32.1704 49.5545 32.3525 55.032 32.5335 60.4772C32.5999 62.4734 32.6661 64.4653 32.8279 66.4318H33.7131C33.7886 64.9504 33.8319 63.4426 33.8753 61.9485C34.0354 56.4343 34.1967 50.8792 35.9815 45.6258C37.8183 40.2167 42.7867 36.2415 48.3359 35.1675C54.2835 33.9771 60.3805 33.7834 66.4332 33.7225V32.7148C60.0596 32.6705 53.5975 32.5598 47.3843 31.0428C42.0176 29.7584 37.4864 25.606 35.821 20.3353C33.7518 13.7691 34.1059 6.78768 33.7297 0H32.8057Z" fill="white"/>
</g>
<defs>
<clipPath id="clip0_1_2903">
<rect width="66.4318" height="66.4318" rx="14.7626" fill="white"/>
</clipPath>
</defs>
</svg>
