<svg width="30" height="33" viewBox="0 0 30 33" fill="none" xmlns="http://www.w3.org/2000/svg">
  <path d="M10.0719 3.71875C11.4871 -1.23958 18.5129 -1.23959 19.9281 3.71875C20.38 5.30225 22.0078 6.24191 23.605 5.84152C28.6065 4.58816 32.1203 10.6738 28.5338 14.3785C27.3884 15.5616 27.3884 17.4396 28.5338 18.6227C32.1196 22.3274 28.6062 28.4128 23.605 27.1597C22.0079 26.7593 20.3801 27.6979 19.9281 29.2811C18.513 34.2396 11.487 34.2396 10.0719 29.2811C9.61989 27.6979 7.99212 26.7593 6.39498 27.1597C1.39371 28.4129 -2.11972 22.3274 1.46624 18.6227C2.61159 17.4396 2.61154 15.5616 1.46624 14.3785C-2.12028 10.6738 1.39347 4.58807 6.39498 5.84152C7.99225 6.24191 9.62005 5.30225 10.0719 3.71875ZM17.9336 4.28861C17.0912 1.33669 12.9088 1.33669 12.0664 4.28861C11.3072 6.94811 8.57407 8.52585 5.8913 7.85356C2.91373 7.10719 0.821935 10.7294 2.95702 12.935C4.88089 14.9222 4.88074 18.0775 2.95702 20.0649C0.82184 22.2704 2.9137 25.894 5.8913 25.1477C8.57429 24.4752 11.3073 26.0528 12.0664 28.7126C12.909 31.6642 17.0911 31.6642 17.9336 28.7126C18.6927 26.0527 21.4257 24.4752 24.1087 25.1477C27.0863 25.894 29.1782 22.2704 27.043 20.0649C25.1192 18.0775 25.1191 14.9223 27.043 12.935C29.178 10.7294 27.0863 7.10719 24.1087 7.85356C21.4259 8.5259 18.6929 6.94812 17.9336 4.28861ZM17.9404 12.0937C18.3454 11.6887 19.0018 11.6887 19.4068 12.0937C19.8116 12.4987 19.8118 13.1553 19.4068 13.5602L11.5857 21.3815C11.1807 21.7865 10.5229 21.7865 10.1179 21.3815C9.71338 20.9765 9.71319 20.3199 10.1179 19.915L17.9404 12.0937Z" fill="white" />
  <path d="M9.46902 12.352C9.46902 13.1156 10.0881 13.7347 10.8518 13.7347C11.6154 13.7347 12.2345 13.1156 12.2345 12.352C12.2345 11.5883 11.6154 10.9692 10.8518 10.9692C10.0881 10.9692 9.46902 11.5883 9.46902 12.352Z" fill="white" />
  <path d="M17.7655 20.6486C17.7655 21.4123 18.3846 22.0314 19.1482 22.0314C19.9119 22.0314 20.531 21.4123 20.531 20.6486C20.531 19.8849 19.9119 19.2658 19.1482 19.2658C18.3846 19.2658 17.7655 19.8849 17.7655 20.6486Z" fill="white" />
</svg>