<svg width="28" height="28" viewBox="0 0 28 28" fill="none" xmlns="http://www.w3.org/2000/svg">
  <path d="M4.11399 26.0422L4.63666 25.1896H4.63666L4.11399 26.0422ZM1.96903 23.8962L2.82177 23.3739V23.3739L1.96903 23.8962ZM26.0426 23.8962L25.1898 23.3739V23.3739L26.0426 23.8962ZM23.8976 26.0422L23.375 25.1896V25.1896L23.8976 26.0422ZM23.8976 5.85784L23.375 6.71038V6.71038L23.8976 5.85784ZM26.0426 8.00376L25.1898 8.52609V8.52609L26.0426 8.00376ZM4.11399 5.85784L4.63666 6.71038H4.63666L4.11399 5.85784ZM1.96903 8.00376L2.82177 8.52609V8.52609L1.96903 8.00376ZM22.4219 1.71038L23.1437 1.01831V1.01831L22.4219 1.71038ZM3.40803 2.15803L4.01199 2.95504V2.95504L3.40803 2.15803ZM2.1219 3.49947L2.94244 4.07105L2.1219 3.49947ZM23.1017 5.06942H24.1018L24.1017 5.06448L23.1017 5.06942ZM22.2748 16.1227C22.8271 16.1227 23.2748 15.675 23.2748 15.1227C23.2748 14.5705 22.8271 14.1227 22.2748 14.1227V15.1227V16.1227ZM18.731 14.1227C18.1787 14.1227 17.731 14.5705 17.731 15.1227C17.731 15.675 18.1787 16.1227 18.731 16.1227V15.1227V14.1227ZM26.9278 11.5773L27.9258 11.5149L26.9278 11.5773ZM12.0567 4.9V5.9H15.9549V4.9V3.9H12.0567V4.9ZM15.9549 27V26H12.0567V27V28H15.9549V27ZM12.0567 27V26C9.91053 26 8.37117 25.9989 7.17083 25.8848C5.98539 25.772 5.23427 25.556 4.63666 25.1896L4.11399 26.0422L3.59132 26.8947C4.55606 27.4862 5.64951 27.7491 6.98144 27.8758C8.29846 28.0011 9.94927 28 12.0567 28V27ZM1.01162 15.95H0.0116162C0.0116162 18.0584 0.0105621 19.7098 0.135778 21.0274C0.262407 22.3598 0.525179 23.4535 1.11628 24.4186L1.96903 23.8962L2.82177 23.3739C2.45546 22.7759 2.23953 22.0243 2.12681 20.8382C2.01267 19.6372 2.01162 18.0971 2.01162 15.95H1.01162ZM4.11399 26.0422L4.63666 25.1896C3.897 24.7362 3.27508 24.114 2.82177 23.3739L1.96903 23.8962L1.11628 24.4186C1.73442 25.4277 2.58253 26.2762 3.59132 26.8947L4.11399 26.0422ZM15.9549 27V28C18.0623 28 19.7132 28.0011 21.0302 27.8758C22.3621 27.7491 23.4556 27.4862 24.4203 26.8947L23.8976 26.0422L23.375 25.1896C22.7773 25.556 22.0262 25.772 20.8408 25.8848C19.6404 25.9989 18.1011 26 15.9549 26V27ZM26.0426 23.8962L25.1898 23.3739C24.7365 24.114 24.1146 24.7362 23.375 25.1896L23.8976 26.0422L24.4203 26.8947C25.4291 26.2762 26.2772 25.4277 26.8953 24.4186L26.0426 23.8962ZM23.8976 5.85784L23.375 6.71038C24.1146 7.16384 24.7365 7.78602 25.1898 8.52609L26.0426 8.00376L26.8953 7.48143C26.2772 6.47228 25.4291 5.62376 24.4203 5.0053L23.8976 5.85784ZM12.0567 4.9V3.9C9.94927 3.9 8.29846 3.89894 6.98144 4.02422C5.64951 4.15092 4.55606 4.41385 3.59132 5.0053L4.11399 5.85784L4.63666 6.71038C5.23427 6.34399 5.98539 6.128 7.17083 6.01524C8.37117 5.90106 9.91053 5.9 12.0567 5.9V4.9ZM1.01162 15.95H2.01162C2.01162 13.8029 2.01267 12.2628 2.12681 11.0618C2.23953 9.87575 2.45546 9.12411 2.82177 8.52609L1.96903 8.00376L1.11628 7.48143C0.525179 8.44646 0.262407 9.54021 0.135778 10.8726C0.0105621 12.1902 0.0116162 13.8416 0.0116162 15.95H1.01162ZM4.11399 5.85784L3.59132 5.0053C2.58253 5.62376 1.73442 6.47228 1.11628 7.48143L1.96903 8.00376L2.82177 8.52609C3.27508 7.78602 3.897 7.16384 4.63666 6.71038L4.11399 5.85784ZM11.4759 1V2H18.4521V1V0H11.4759V1ZM18.4521 1V2C19.5778 2 20.3172 2.00231 20.8649 2.07911C21.3793 2.15125 21.5743 2.27132 21.7 2.40245L22.4219 1.71038L23.1437 1.01831C22.5883 0.439061 21.8946 0.203942 21.1426 0.0984874C20.4238 -0.00230658 19.5189 0 18.4521 0V1ZM11.4759 1V0C9.31924 0 7.61797 -0.00149167 6.26783 0.151078C4.89638 0.306055 3.76856 0.630139 2.80407 1.36102L3.40803 2.15803L4.01199 2.95504C4.57568 2.52789 5.3019 2.27296 6.4924 2.13843C7.70421 2.00149 9.27281 2 11.4759 2V1ZM1.01162 11.9143H2.01162C2.01162 9.61929 2.01288 7.97506 2.14505 6.70268C2.27552 5.44664 2.5245 4.67104 2.94244 4.07105L2.1219 3.49947L1.30135 2.92789C0.609017 3.92178 0.302851 5.07995 0.155753 6.49604C0.0103532 7.89578 0.0116162 9.66204 0.0116162 11.9143H1.01162ZM3.40803 2.15803L2.80407 1.36102C2.22586 1.79917 1.71906 2.32824 1.30135 2.92789L2.1219 3.49947L2.94244 4.07105C3.24189 3.64118 3.60313 3.26487 4.01199 2.95504L3.40803 2.15803ZM23.1017 5.06942L24.1017 5.06448C24.0974 4.18503 24.0787 3.42076 23.9682 2.78649C23.8532 2.12682 23.6256 1.52096 23.1437 1.01831L22.4219 1.71038L21.7 2.40245C21.8168 2.5242 21.9247 2.70999 21.9978 3.1298C22.0754 3.57501 22.0973 4.17806 22.1018 5.07436L23.1017 5.06942ZM1.01162 11.9143H0.0116162C0.0116162 13.1818 -0.0145825 14.3437 0.0119591 15.327L1.01159 15.3L2.01123 15.273C1.98557 14.3224 2.01162 13.2521 2.01162 11.9143H1.01162ZM15.1871 15.1227H14.1871C14.1871 17.6327 16.221 19.6682 18.731 19.6682V18.6682V17.6682C17.3264 17.6682 16.1871 16.529 16.1871 15.1227H15.1871ZM15.1871 15.1227H16.1871C16.1871 13.7165 17.3265 12.5773 18.731 12.5773V11.5773V10.5773C16.221 10.5773 14.1871 12.6128 14.1871 15.1227H15.1871ZM22.2748 15.1227V14.1227H18.731V15.1227V16.1227H22.2748V15.1227ZM15.9549 4.9V5.9C17.7544 5.9 19.1313 5.90043 20.246 5.96924C21.3596 6.03799 22.1359 6.17191 22.7466 6.40395L23.1017 5.46915L23.4569 4.53435C22.5697 4.19724 21.5605 4.04659 20.3692 3.97304C19.179 3.89957 17.7314 3.9 15.9549 3.9V4.9ZM23.1017 5.46915L22.7466 6.40395C22.9752 6.49083 23.182 6.59207 23.375 6.71038L23.8976 5.85784L24.4203 5.0053C24.1155 4.81846 23.7959 4.66316 23.4569 4.53435L23.1017 5.46915ZM23.1017 5.06942H22.1017V5.46915H23.1017H24.1017V5.06942H23.1017ZM18.731 11.5773V12.5773H26.9278V11.5773V10.5773H18.731V11.5773ZM27 15.95H28C28 14.1635 28.0004 12.7094 27.9258 11.5149L26.9278 11.5773L25.9297 11.6396C25.9996 12.7577 26 14.1402 26 15.95H27ZM26.9278 11.5773L27.9258 11.5149C27.8238 9.88239 27.5768 8.59406 26.8953 7.48143L26.0426 8.00376L25.1898 8.52609C25.614 9.21861 25.8343 10.112 25.9297 11.6396L26.9278 11.5773ZM27 15.95H26C26 16.9738 26 17.8637 25.9869 18.6516L26.9868 18.6682L27.9866 18.6848C28 17.8769 28 16.9691 28 15.95H27ZM26.9868 18.6682L25.9869 18.6516C25.9446 21.1982 25.7572 22.4476 25.1898 23.3739L26.0426 23.8962L26.8953 24.4186C27.7831 22.9692 27.945 21.1905 27.9866 18.6848L26.9868 18.6682ZM26.9868 18.6682V17.6682H18.731V18.6682V19.6682H26.9868V18.6682Z" fill="white" />
</svg>