<svg width="181" height="181" viewBox="0 0 181 181" fill="none" xmlns="http://www.w3.org/2000/svg">
  <path d="M160.114 0H20C8.9543 0 0 8.95429 0 20V160.113C0 171.159 8.95433 180.113 20 180.113H160.114C171.16 180.113 180.114 171.159 180.114 160.113V20C180.114 8.95431 171.16 0 160.114 0Z" fill="#545353" />
  <path d="M50.9577 73.7559L19.4805 180.114H160.651L129.174 74.1047L50.9577 73.7559Z" fill="white" />
  <path d="M61.8349 24.6473C57.3188 24.6271 53.3321 27.5917 52.0515 31.9224L29.1593 109.335C27.235 115.842 32.1116 122.369 38.8973 122.369H141.348C148.138 122.369 153.015 115.835 151.084 109.326L128.191 32.1666C126.917 27.8725 122.98 24.9202 118.501 24.9002L61.8349 24.6473Z" fill="#FF7500" />
  <path d="M112.046 34.7149L135.195 113.011H140.364C142.237 113.011 143.582 111.205 143.051 109.404L121.585 36.6788C121.231 35.4812 120.131 34.6614 118.885 34.667L112.046 34.7149Z" fill="white" />
  <path d="M120.169 180.111L59.9648 180.013C59.9892 163.414 73.4977 149.966 90.1218 149.99C106.746 150.015 120.193 163.499 120.169 180.111Z" fill="#FF7500" />
  <path d="M99.4796 111.963H80.6406V165.06H99.4796V111.963Z" fill="#FF7500" />
  <path d="M46.2154 150.209C51.2295 150.209 55.2942 146.15 55.2942 141.143C55.2942 136.135 51.2295 132.076 46.2154 132.076C41.2014 132.076 37.1367 136.135 37.1367 141.143C37.1367 146.15 41.2014 150.209 46.2154 150.209Z" fill="#FF7500" />
</svg>