<svg width="67" height="67" viewBox="0 0 67 67" fill="none" xmlns="http://www.w3.org/2000/svg">
<rect width="66.4318" height="66.4318" rx="14.7626" fill="#FF7500"/>
<path d="M33.21 13.1699C38.4753 13.17 42.7557 17.4521 42.7559 22.7168C42.7559 27.9799 38.4755 32.2617 33.21 32.2617C27.9456 32.2617 23.6641 27.9799 23.6641 22.7168C23.6643 17.4521 27.9457 13.1699 33.21 13.1699ZM33.208 19.1846C30.9991 19.1848 29.1992 20.9831 29.1992 23.1943C29.1993 25.4037 30.9992 27.2029 33.208 27.2031C35.4188 27.2031 37.2176 25.4038 37.2178 23.1943C37.2178 20.983 35.4189 19.1846 33.208 19.1846Z" fill="white"/>
<path d="M37.5518 41.7291C39.7335 41.2241 41.8376 40.3471 43.7756 39.1104C45.2422 38.1709 45.684 36.2012 44.7599 34.7111C43.8365 33.2177 41.8991 32.7681 40.4299 33.7077C36.0397 36.5127 30.3873 36.512 25.9996 33.7077C24.5304 32.7681 22.5924 33.2177 21.6709 34.7111C20.7468 36.2025 21.1873 38.1709 22.654 39.1104C24.592 40.3458 26.696 41.2241 28.8777 41.7291L22.8855 47.8172C21.6606 49.063 21.6606 51.0829 22.8868 52.3287C23.5005 52.9509 24.3034 53.2624 25.1063 53.2624C25.9105 53.2624 26.7146 52.9509 27.3283 52.3287L33.2141 46.346L39.105 52.3287C40.3299 53.5744 42.3173 53.5744 43.5434 52.3287C44.7708 51.0829 44.7708 49.0617 43.5434 47.8172L37.5518 41.7291Z" fill="white"/>
</svg>
