<svg width="23" height="30" viewBox="0 0 23 30" fill="none" xmlns="http://www.w3.org/2000/svg">
  <path fill-rule="evenodd" clip-rule="evenodd" d="M11.5 1.99951C6.30434 1.99951 1.97143 6.61934 1.97143 12.4752C1.97143 14.1102 2.81207 16.2979 4.13507 18.6702C5.43626 21.0033 7.11789 23.3668 8.6209 25.3107C9.43439 26.3629 9.97001 27.0502 10.4496 27.4921C10.8871 27.8951 11.1791 28.0005 11.5 28.0005C11.8209 28.0005 12.1129 27.8951 12.5504 27.4921C13.03 27.0502 13.5656 26.3629 14.3791 25.3107C15.8821 23.3668 17.5637 21.0033 18.8649 18.6702C20.1879 16.2979 21.0286 14.1102 21.0286 12.4752C21.0286 6.61934 16.6957 1.99951 11.5 1.99951ZM0 12.4752C0 5.65566 5.0819 0 11.5 0C17.9181 0 23 5.65566 23 12.4752C23 14.6623 21.9287 17.2377 20.5809 19.6546C19.2112 22.1106 17.4631 24.5623 15.9304 26.5446L15.8793 26.6107C15.1312 27.5784 14.4939 28.4028 13.8759 28.9721C13.2017 29.5933 12.4582 30 11.5 30C10.5418 30 9.79832 29.5933 9.12409 28.9721C8.5061 28.4028 7.86881 27.5784 7.12071 26.6107L7.06959 26.5446C5.53692 24.5623 3.78879 22.1106 2.41913 19.6546C1.07128 17.2377 0 14.6623 0 12.4752ZM6.57143 12.9968C6.57143 10.2361 8.77803 7.99805 11.5 7.99805C14.222 7.99805 16.4286 10.2361 16.4286 12.9968C16.4286 15.7576 14.222 17.9956 11.5 17.9956C8.77803 17.9956 6.57143 15.7576 6.57143 12.9968ZM11.5 9.99757C9.86682 9.99757 8.54286 11.3404 8.54286 12.9968C8.54286 14.6533 9.86682 15.9961 11.5 15.9961C13.1332 15.9961 14.4571 14.6533 14.4571 12.9968C14.4571 11.3404 13.1332 9.99757 11.5 9.99757Z" fill="white" />
</svg>