<svg width="181" height="181" viewBox="0 0 181 181" fill="none" xmlns="http://www.w3.org/2000/svg">
  <path d="M160.115 0H20.0117C8.96602 0 0.0117188 8.95433 0.0117188 20V160.114C0.0117188 171.16 8.96603 180.114 20.0117 180.114H160.115C171.16 180.114 180.115 171.16 180.115 160.114V20C180.115 8.9543 171.16 0 160.115 0Z" fill="#FF7500" />
  <path d="M180.103 85.8447H64.3963C63.0342 85.8447 61.7208 86.3434 60.7357 87.2434L1.5567 141.549C0.559438 142.461 0 143.714 0 145.027V180.104H180.103V85.8447Z" fill="white" />
  <path d="M180.105 171.049C180.105 176.047 176.053 180.1 171.055 180.1L9.05342 180.1C4.0547 180.1 0.00245667 176.047 0.00245667 171.049V147.845C0.00245667 145.157 2.17941 142.98 4.86716 142.98L171.055 142.98C176.053 142.98 180.105 147.032 180.105 152.031V171.049Z" fill="#545353" />
  <path d="M124.125 129.259C139.406 129.259 151.793 126.302 151.793 122.655C151.793 119.008 139.406 116.051 124.125 116.051C108.844 116.051 96.457 119.008 96.457 122.655C96.457 126.302 108.844 129.259 124.125 129.259Z" fill="#545353" />
  <path d="M118.298 81.1035H96.25V122.529H118.298V81.1035Z" fill="#FF7500" />
  <path d="M107.264 125.639C113.356 125.639 118.295 124.245 118.295 122.525C118.295 120.806 113.356 119.412 107.264 119.412C101.173 119.412 96.2344 120.806 96.2344 122.525C96.2344 124.245 101.173 125.639 107.264 125.639Z" fill="#FF7500" />
  <path d="M107.264 84.2225C113.356 84.2225 118.295 82.8287 118.295 81.1093C118.295 79.3899 113.356 77.9961 107.264 77.9961C101.173 77.9961 96.2344 79.3899 96.2344 81.1093C96.2344 82.8287 101.173 84.2225 107.264 84.2225Z" fill="white" />
  <path d="M107.266 84.2199V29.0996" stroke="#545353" stroke-width="1.73939" stroke-miterlimit="10" />
  <path d="M107.266 27.3392C112.612 27.3392 116.946 23.0047 116.946 17.6579C116.946 12.311 112.612 7.97656 107.266 7.97656C101.92 7.97656 97.5859 12.311 97.5859 17.6579C97.5859 23.0047 101.92 27.3392 107.266 27.3392Z" fill="white" />
  <path d="M95.8365 38.7816C101.183 38.7816 105.517 34.4471 105.517 29.1003C105.517 23.7534 101.183 19.4189 95.8365 19.4189C90.4902 19.4189 86.1562 23.7534 86.1562 29.1003C86.1562 34.4471 90.4902 38.7816 95.8365 38.7816Z" fill="white" />
  <path d="M107.266 50.2176C112.612 50.2176 116.946 45.8831 116.946 40.5363C116.946 35.1894 112.612 30.855 107.266 30.855C101.92 30.855 97.5859 35.1894 97.5859 40.5363C97.5859 45.8831 101.92 50.2176 107.266 50.2176Z" fill="white" />
  <path d="M118.715 38.7816C124.062 38.7816 128.396 34.4471 128.396 29.1003C128.396 23.7534 124.062 19.4189 118.715 19.4189C113.369 19.4189 109.035 23.7534 109.035 29.1003C109.035 34.4471 113.369 38.7816 118.715 38.7816Z" fill="white" />
  <path d="M107.264 35.0647C110.555 35.0647 113.223 32.3965 113.223 29.1051C113.223 25.8137 110.555 23.1455 107.264 23.1455C103.973 23.1455 101.305 25.8137 101.305 29.1051C101.305 32.3965 103.973 35.0647 107.264 35.0647Z" fill="#545353" />
  <path d="M107.266 71.486V71.4373C107.266 58.314 117.919 47.6719 131.078 47.6719V47.7205C131.078 60.8438 120.425 71.486 107.266 71.486Z" fill="#545353" />
  <path d="M107.262 71.486V71.4373C107.262 58.314 96.6082 47.6719 83.4492 47.6719V47.7205C83.4492 60.8438 94.1029 71.486 107.262 71.486Z" fill="#545353" />
</svg>