<svg width="329" height="156" viewBox="0 0 329 156" fill="none" xmlns="http://www.w3.org/2000/svg">
<g clip-path="url(#clip0_1_3971)">
<rect width="329" height="156" fill="url(#paint0_linear_1_3971)"/>
<path d="M-89.1274 199.869C-89.1274 146.172 -45.5972 102.641 8.10009 102.641C61.7974 102.641 105.328 146.171 105.328 199.869C105.328 253.567 61.7974 297.098 8.1001 297.098C-45.5971 297.098 -89.1273 253.567 -89.1274 199.869ZM-50.9233 199.876C-50.9233 232.475 -24.4969 258.902 8.10205 258.902C40.7012 258.902 67.1284 232.475 67.1284 199.876C67.1283 167.277 40.7011 140.85 8.10204 140.85C-24.4969 140.85 -50.9232 167.277 -50.9233 199.876Z" fill="#FF7500"/>
<path d="M-89.1274 199.869C-89.1274 146.172 -45.5972 102.641 8.10009 102.641C61.7974 102.641 105.328 146.171 105.328 199.869C105.328 253.567 61.7974 297.098 8.1001 297.098C-45.5971 297.098 -89.1273 253.567 -89.1274 199.869ZM-50.9233 199.876C-50.9233 232.475 -24.4969 258.902 8.10205 258.902C40.7012 258.902 67.1284 232.475 67.1284 199.876C67.1283 167.277 40.7011 140.85 8.10204 140.85C-24.4969 140.85 -50.9232 167.277 -50.9233 199.876Z" fill="#0A1E4E"/>
<path d="M-89.1274 199.869C-89.1274 146.172 -45.5972 102.641 8.10009 102.641C61.7974 102.641 105.328 146.171 105.328 199.869C105.328 253.567 61.7974 297.098 8.1001 297.098C-45.5971 297.098 -89.1273 253.567 -89.1274 199.869ZM-50.9233 199.876C-50.9233 232.475 -24.4969 258.902 8.10205 258.902C40.7012 258.902 67.1284 232.475 67.1284 199.876C67.1283 167.277 40.7011 140.85 8.10204 140.85C-24.4969 140.85 -50.9232 167.277 -50.9233 199.876Z" fill="url(#paint1_linear_1_3971)"/>
<path d="M-89.1274 199.869C-89.1274 146.172 -45.5972 102.641 8.10009 102.641C61.7974 102.641 105.328 146.171 105.328 199.869C105.328 253.567 61.7974 297.098 8.1001 297.098C-45.5971 297.098 -89.1273 253.567 -89.1274 199.869ZM-50.9233 199.876C-50.9233 232.475 -24.4969 258.902 8.10205 258.902C40.7012 258.902 67.1284 232.475 67.1284 199.876C67.1283 167.277 40.7011 140.85 8.10204 140.85C-24.4969 140.85 -50.9232 167.277 -50.9233 199.876Z" fill="url(#paint2_linear_1_3971)"/>
<rect width="194.507" height="53.2949" transform="matrix(-1 0 0 1 190.61 0.00195312)" fill="url(#paint3_linear_1_3971)"/>
<path d="M0.62667 0.00195312C0.62667 14.7137 12.5714 26.65 27.2767 26.65C41.9895 26.65 53.9267 14.7061 53.9267 0.00195079L0.619141 0.00195312L0.62667 0.00195312Z" fill="#FF7500"/>
<path d="M53.9363 53.295C53.9363 38.5833 41.9916 26.647 27.2863 26.647C12.5735 26.647 0.636272 38.5909 0.636272 53.295L53.9438 53.295L53.9363 53.295Z" fill="#FF7500"/>
<path d="M231.769 53.3588H226.306V26.5998H225.663V27.9497C225.663 28.3474 225.34 28.6699 224.942 28.6699H204.34C203.942 28.6699 203.619 28.3473 203.619 27.9497V26.5998H202.791V31.4338L214.764 34.7533C214.782 34.7584 214.8 34.7643 214.818 34.7706C215.2 34.8327 215.492 35.1642 215.492 35.5628V37.9341C216.644 38.067 217.472 38.3766 217.555 38.7437H217.563V49.9327H217.562C217.552 50.4494 216.066 50.8674 214.233 50.8674C212.395 50.8674 210.905 50.4468 210.905 49.9279C210.905 49.9211 210.905 49.9144 210.906 49.9076V38.8242C210.905 38.8175 210.905 38.8107 210.905 38.804C210.905 38.7972 210.905 38.7905 210.906 38.7838V38.7437H210.912C210.994 38.3761 211.825 38.0662 212.979 37.9336V36.8588L200.791 33.4801C200.364 33.3615 200.113 32.9188 200.232 32.4916L200.281 32.314V24.8994C200.281 24.8856 200.281 24.8718 200.282 24.8581C200.302 24.4327 200.654 24.0942 201.085 24.0941H203.619V22.7441C203.619 22.3464 203.942 22.0241 204.34 22.0241H224.942C225.34 22.0241 225.663 22.3464 225.663 22.7441V24.0941H226.306V0.00195312H231.769V53.3588Z" fill="#FF7500"/>
<path d="M231.769 53.3588H226.306V26.5998H225.663V27.9497C225.663 28.3474 225.34 28.6699 224.942 28.6699H204.34C203.942 28.6699 203.619 28.3473 203.619 27.9497V26.5998H202.791V31.4338L214.764 34.7533C214.782 34.7584 214.8 34.7643 214.818 34.7706C215.2 34.8327 215.492 35.1642 215.492 35.5628V37.9341C216.644 38.067 217.472 38.3766 217.555 38.7437H217.563V49.9327H217.562C217.552 50.4494 216.066 50.8674 214.233 50.8674C212.395 50.8674 210.905 50.4468 210.905 49.9279C210.905 49.9211 210.905 49.9144 210.906 49.9076V38.8242C210.905 38.8175 210.905 38.8107 210.905 38.804C210.905 38.7972 210.905 38.7905 210.906 38.7838V38.7437H210.912C210.994 38.3761 211.825 38.0662 212.979 37.9336V36.8588L200.791 33.4801C200.364 33.3615 200.113 32.9188 200.232 32.4916L200.281 32.314V24.8994C200.281 24.8856 200.281 24.8718 200.282 24.8581C200.302 24.4327 200.654 24.0942 201.085 24.0941H203.619V22.7441C203.619 22.3464 203.942 22.0241 204.34 22.0241H224.942C225.34 22.0241 225.663 22.3464 225.663 22.7441V24.0941H226.306V0.00195312H231.769V53.3588Z" fill="url(#paint4_linear_1_3971)"/>
<path d="M231.769 53.3588H226.306V26.5998H225.663V27.9497C225.663 28.3474 225.34 28.6699 224.942 28.6699H204.34C203.942 28.6699 203.619 28.3473 203.619 27.9497V26.5998H202.791V31.4338L214.764 34.7533C214.782 34.7584 214.8 34.7643 214.818 34.7706C215.2 34.8327 215.492 35.1642 215.492 35.5628V37.9341C216.644 38.067 217.472 38.3766 217.555 38.7437H217.563V49.9327H217.562C217.552 50.4494 216.066 50.8674 214.233 50.8674C212.395 50.8674 210.905 50.4468 210.905 49.9279C210.905 49.9211 210.905 49.9144 210.906 49.9076V38.8242C210.905 38.8175 210.905 38.8107 210.905 38.804C210.905 38.7972 210.905 38.7905 210.906 38.7838V38.7437H210.912C210.994 38.3761 211.825 38.0662 212.979 37.9336V36.8588L200.791 33.4801C200.364 33.3615 200.113 32.9188 200.232 32.4916L200.281 32.314V24.8994C200.281 24.8856 200.281 24.8718 200.282 24.8581C200.302 24.4327 200.654 24.0942 201.085 24.0941H203.619V22.7441C203.619 22.3464 203.942 22.0241 204.34 22.0241H224.942C225.34 22.0241 225.663 22.3464 225.663 22.7441V24.0941H226.306V0.00195312H231.769V53.3588Z" fill="url(#paint5_linear_1_3971)"/>
<path d="M239.037 53.3588H233.574V0.00195312H239.037V53.3588Z" fill="#FF7500"/>
<path d="M239.037 53.3588H233.574V0.00195312H239.037V53.3588Z" fill="url(#paint6_linear_1_3971)"/>
<path d="M239.037 53.3588H233.574V0.00195312H239.037V53.3588Z" fill="url(#paint7_linear_1_3971)"/>
<path d="M246.37 53.3588H240.845V0.00195312H246.37V53.3588Z" fill="#FF7500"/>
<path d="M246.37 53.3588H240.845V0.00195312H246.37V53.3588Z" fill="url(#paint8_linear_1_3971)"/>
<path d="M246.37 53.3588H240.845V0.00195312H246.37V53.3588Z" fill="url(#paint9_linear_1_3971)"/>
<path d="M210.1 20.2812H204.637V0.00195312H210.1V20.2812Z" fill="#FF7500"/>
<path d="M210.1 20.2812H204.637V0.00195312H210.1V20.2812Z" fill="url(#paint10_linear_1_3971)"/>
<path d="M210.1 20.2812H204.637V0.00195312H210.1V20.2812Z" fill="url(#paint11_linear_1_3971)"/>
<path d="M217.369 20.2812H211.906V0.00195312H217.369V20.2812Z" fill="#FF7500"/>
<path d="M217.369 20.2812H211.906V0.00195312H217.369V20.2812Z" fill="url(#paint12_linear_1_3971)"/>
<path d="M217.369 20.2812H211.906V0.00195312H217.369V20.2812Z" fill="url(#paint13_linear_1_3971)"/>
<path d="M224.643 0.00195312V20.2812H219.18V0.00195312H224.643Z" fill="#FF7500"/>
<path d="M224.643 0.00195312V20.2812H219.18V0.00195312H224.643Z" fill="url(#paint14_linear_1_3971)"/>
<path d="M224.643 0.00195312V20.2812H219.18V0.00195312H224.643Z" fill="url(#paint15_linear_1_3971)"/>
<path d="M178.629 26.6466C178.629 21.0666 174.107 16.5444 168.527 16.5444L172.712 12.3587C168.766 8.41255 162.371 8.41255 158.424 12.3587V6.43945C152.844 6.43945 148.322 10.9616 148.322 16.5416L144.137 12.3559C140.19 16.3021 140.19 22.6975 144.137 26.6437H138.217C138.217 32.2237 142.739 36.7459 148.319 36.7459L144.134 40.9316C148.08 44.8778 154.475 44.8778 158.422 40.9316V46.8509C164.002 46.8509 168.524 42.3287 168.524 36.7487L172.709 40.9344C176.656 36.9882 176.656 30.5928 172.709 26.6466H178.629ZM158.424 30.3048C156.403 30.3048 154.766 28.6653 154.766 26.6466C154.766 24.6279 156.406 22.9884 158.424 22.9884C160.443 22.9884 162.083 24.6279 162.083 26.6466C162.083 28.6653 160.443 30.3048 158.424 30.3048Z" fill="url(#paint16_linear_1_3971)"/>
<mask id="path-7-inside-1_1_3971" fill="white">
<path d="M148.326 15.3477C150.896 15.3477 152.978 17.4305 152.979 20V32.3135C152.978 34.883 150.896 36.9658 148.326 36.9658H18.7158L12.2441 41.6865C11.827 41.9908 11.2404 41.6931 11.2402 41.1768V20C11.2405 17.4307 13.3233 15.3479 15.8926 15.3477H148.326Z"/>
</mask>
<path d="M148.326 15.3477V14.4124V14.4124V15.3477ZM152.979 20H153.914V19.9999L152.979 20ZM152.979 32.3135L153.914 32.3135V32.3135H152.979ZM148.326 36.9658V37.901V37.901V36.9658ZM18.7158 36.9658V36.0306H18.411L18.1647 36.2103L18.7158 36.9658ZM12.2441 41.6865L12.7953 42.4421H12.7953L12.2441 41.6865ZM11.2402 41.1768H10.305V41.177L11.2402 41.1768ZM11.2402 20L10.305 19.9999V20H11.2402ZM15.8926 15.3477V14.4124H15.8925L15.8926 15.3477ZM148.326 15.3477V16.2829C150.379 16.2829 152.043 17.947 152.043 20.0001L152.979 20L153.914 19.9999C153.913 16.9141 151.412 14.4125 148.326 14.4124V15.3477ZM152.979 20H152.043V32.3135H152.979H153.914V20H152.979ZM152.979 32.3135L152.043 32.3134C152.043 34.3665 150.379 36.0306 148.326 36.0306V36.9658V37.901C151.412 37.901 153.914 35.3995 153.914 32.3135L152.979 32.3135ZM148.326 36.9658V36.0306H18.7158V36.9658V37.901H148.326V36.9658ZM18.7158 36.9658L18.1647 36.2103L11.693 40.931L12.2441 41.6865L12.7953 42.4421L19.267 37.7214L18.7158 36.9658ZM12.2441 41.6865L11.693 40.931C11.8929 40.7852 12.1754 40.927 12.1754 41.1765L11.2402 41.1768L10.305 41.177C10.3053 42.4592 11.761 43.1965 12.7953 42.4421L12.2441 41.6865ZM11.2402 41.1768H12.1754V20H11.2402H10.305V41.1768H11.2402ZM11.2402 20L12.1754 20.0001C12.1756 17.9472 13.8398 16.283 15.8927 16.2829L15.8926 15.3477L15.8925 14.4124C12.8067 14.4127 10.3053 16.9142 10.305 19.9999L11.2402 20ZM15.8926 15.3477V16.2829H148.326V15.3477V14.4124H15.8926V15.3477Z" fill="white" mask="url(#path-7-inside-1_1_3971)"/>
<path d="M18.2617 22.0486H20.0078V25.2382H21.8471V22.0486H23.5932V30.1973H21.8471V26.8912H20.0078V30.1973H18.2617V22.0486ZM25.8349 22.0369H28.5589L30.0955 30.1856H28.361L28.0933 28.6141H26.3006L26.0328 30.1856H24.2983L25.8349 22.0369ZM26.58 27.0542H27.8139L27.1969 23.5037L26.58 27.0542ZM34.0065 22.0369H36.8702C38.6979 22.0369 39.4545 22.7936 39.4545 24.598C39.4545 26.4139 38.6862 27.1706 36.8702 27.1706H35.7527V30.1973H34.0065V22.0369ZM35.7527 25.5176H36.684C37.429 25.5176 37.7084 25.2964 37.7084 24.598C37.7084 23.8995 37.4406 23.69 36.684 23.69H35.7527V25.5176ZM40.35 22.0369H45.3905V23.69H42.0961V25.343H45.0413V26.9029H42.0961V28.5442H45.4487V30.1973H40.35V22.0369ZM46.466 22.0486H49.0736L50.1446 27.4384L51.2272 22.0486H53.8348V30.1973H52.1352L52.205 23.9111L50.9245 30.1973H49.3763L48.0958 23.9111L48.1656 30.1973H46.466V22.0486ZM57.6222 23.5735C56.8655 23.5735 56.5978 23.8879 56.5978 24.7726V27.4616C56.5978 28.3463 56.8655 28.6607 57.6222 28.6607H57.6455C58.4021 28.6607 58.6699 28.3463 58.6699 27.4616V24.7726C58.6699 23.8879 58.4021 23.5735 57.6455 23.5735H57.6222ZM57.6222 21.9205H57.6455C59.5662 21.9205 60.416 22.8052 60.416 24.8075V27.4267C60.416 29.429 59.5662 30.3137 57.6455 30.3137H57.6222C55.7014 30.3137 54.8516 29.429 54.8516 27.4267V24.8075C54.8516 22.8052 55.7014 21.9205 57.6222 21.9205ZM61.4265 22.0486H63.1727V25.2382H65.0119V22.0486H66.7581V30.1973H65.0119V26.8912H63.1727V30.1973H61.4265V22.0486ZM67.6611 22.0369H72.981V23.69H71.1883V30.1856H69.4421V23.69H67.6611V22.0369ZM76.9668 22.0486H79.5627C81.4253 22.0486 82.1819 22.6656 82.1819 24.2604V24.2836C82.1819 25.2498 81.9025 25.7737 81.1692 25.9949C82.0655 26.2044 82.4147 26.7748 82.4147 27.8924V27.9156C82.4147 29.4988 81.565 30.1973 79.6791 30.1973H76.9668V22.0486ZM78.7129 26.8447V28.6374H79.6791C80.4358 28.6374 80.6686 28.4511 80.6686 27.7527C80.6686 27.0426 80.4358 26.8447 79.6791 26.8447H78.7129ZM78.7129 23.6085V25.2848H79.6093C80.2728 25.2848 80.4823 25.0985 80.4823 24.4466C80.4823 23.8064 80.2612 23.6085 79.6093 23.6085H78.7129ZM84.1876 22.0369H86.9116L88.4482 30.1856H86.7137L86.446 28.6141H84.6533L84.3855 30.1856H82.651L84.1876 22.0369ZM84.9327 27.0542H86.1666L85.5496 23.5037L84.9327 27.0542ZM89.1534 22.0369H90.853V28.5442H92.1219V22.0369H93.7865V28.5442H95.0554V22.0369H96.755V30.1973H89.1534V22.0369ZM97.941 22.0369H102.982V23.69H99.6871V25.343H102.632V26.9029H99.6871V28.5442H103.04V30.1973H97.941V22.0369ZM104.057 22.0369H108.807V23.69H105.803V30.1856H104.057V22.0369ZM112.053 23.5735C111.296 23.5735 111.028 23.8879 111.028 24.7726V27.4616C111.028 28.3463 111.296 28.6607 112.053 28.6607H112.076C112.833 28.6607 113.101 28.3463 113.101 27.4616V24.7726C113.101 23.8879 112.833 23.5735 112.076 23.5735H112.053ZM112.053 21.9205H112.076C113.997 21.9205 114.847 22.8052 114.847 24.8075V27.4267C114.847 29.429 113.997 30.3137 112.076 30.3137H112.053C110.132 30.3137 109.282 29.429 109.282 27.4267V24.8075C109.282 22.8052 110.132 21.9205 112.053 21.9205ZM119.633 22.0369H124.43V28.5442H125.244V31.827H123.591V30.1973H120.239V31.827H118.586V28.5442H118.795C119.377 28.5442 119.447 28.2881 119.505 26.2277L119.633 22.0369ZM121.263 23.69L121.182 26.3092C121.147 27.4034 121.077 28.1135 120.926 28.5442H122.695V23.69H121.263ZM128.468 23.5735C127.712 23.5735 127.444 23.8879 127.444 24.7726V27.4616C127.444 28.3463 127.712 28.6607 128.468 28.6607H128.492C129.248 28.6607 129.516 28.3463 129.516 27.4616V24.7726C129.516 23.8879 129.248 23.5735 128.492 23.5735H128.468ZM128.468 21.9205H128.492C130.413 21.9205 131.262 22.8052 131.262 24.8075V27.4267C131.262 29.429 130.413 30.3137 128.492 30.3137H128.468C126.548 30.3137 125.698 29.429 125.698 27.4267V24.8075C125.698 22.8052 126.548 21.9205 128.468 21.9205ZM132.273 22.0486H134.88L135.951 27.4384L137.034 22.0486H139.642V30.1973H137.942L138.012 23.9111L136.731 30.1973H135.183L133.903 23.9111L133.972 30.1973H132.273V22.0486ZM141.892 22.0369H144.616L146.153 30.1856H144.418L144.151 28.6141H142.358L142.09 30.1856H140.356L141.892 22.0369ZM142.637 27.0542H143.871L143.254 23.5037L142.637 27.0542Z" fill="white"/>
<path d="M299.666 0.00195312C299.666 14.7103 287.726 26.6467 273.021 26.6484C273.021 26.6497 273.021 26.651 273.021 26.6523C287.729 26.6535 299.666 38.595 299.666 53.2998C284.996 53.2998 273.084 41.4224 273.02 26.7715C272.951 41.4229 261.039 53.293 246.375 53.293C246.375 38.6482 258.212 26.7517 272.829 26.6475C258.207 26.5453 246.371 14.6452 246.371 0.00292969C261.079 0.00292969 273.015 11.9421 273.018 26.6455H273.019C273.021 11.938 284.962 0.00195312 299.666 0.00195312Z" fill="url(#paint17_linear_1_3971)"/>
<path d="M352.958 0V53.29C338.267 53.2899 326.354 41.4003 326.312 26.7188C326.271 41.4004 314.357 53.29 299.666 53.29V0H352.958ZM326.312 0.0761719C326.272 14.6304 314.563 26.4387 300.048 26.6426H352.576C338.061 26.4385 326.353 14.6303 326.312 0.0761719Z" fill="url(#paint18_linear_1_3971)"/>
<path d="M352.958 0V53.29C338.267 53.2899 326.354 41.4003 326.312 26.7188C326.271 41.4004 314.357 53.29 299.666 53.29V0H352.958ZM326.312 0.0761719C326.272 14.6304 314.563 26.4387 300.048 26.6426H352.576C338.061 26.4385 326.353 14.6303 326.312 0.0761719Z" fill="url(#paint19_linear_1_3971)"/>
<rect width="230.043" height="53.5897" transform="matrix(-1 0 0 1 377.618 102.354)" fill="url(#paint20_linear_1_3971)"/>
<rect x="93.9893" y="102.354" width="53.5857" height="53.5859" fill="#FF7500"/>
<rect x="93.9893" y="102.354" width="53.5857" height="53.5859" fill="#0A1E4E"/>
<rect x="93.9893" y="102.354" width="53.5857" height="53.5859" fill="url(#paint21_linear_1_3971)"/>
<rect x="93.9893" y="102.354" width="53.5857" height="53.5859" fill="url(#paint22_linear_1_3971)"/>
<path d="M128.401 107.509C129.822 107.516 131.072 108.452 131.476 109.815L137.633 130.568C138.246 132.633 136.698 134.706 134.544 134.706H123.383V142.831C126.74 143.933 129.16 147.093 129.155 150.817L112.357 150.789C112.362 147.08 114.781 143.935 118.127 142.833V134.706H106.999C104.846 134.706 103.299 132.635 103.91 130.57L110.067 109.75C110.473 108.376 111.738 107.435 113.171 107.441L128.401 107.509Z" fill="url(#paint23_linear_1_3971)"/>
<path d="M109.993 137.412C111.392 137.412 112.526 138.545 112.526 139.942C112.526 141.339 111.392 142.472 109.993 142.472C108.594 142.472 107.46 141.339 107.46 139.942C107.46 138.545 108.594 137.412 109.993 137.412Z" fill="url(#paint24_linear_1_3971)"/>
<path d="M173.731 102.996C159.117 102.996 147.26 114.862 147.26 129.47C147.26 144.085 159.125 155.943 173.731 155.943L173.731 102.989V102.996Z" fill="url(#paint25_linear_1_3971)"/>
<path d="M200.202 102.996C185.588 102.996 173.731 114.862 173.731 129.47C173.731 144.085 185.596 155.943 200.202 155.943L200.202 102.989V102.996Z" fill="url(#paint26_linear_1_3971)"/>
<path d="M309.46 111.145C312.029 111.145 314.112 113.228 314.112 115.797V136.906C314.112 139.476 312.03 141.559 309.46 141.559H186.105L179.633 146.28C179.216 146.585 178.629 146.287 178.629 145.771V115.797C178.629 113.228 180.712 111.145 183.281 111.145H309.46Z" fill="white"/>
<path d="M188.196 117.516C187.323 117.516 187.008 117.877 187.008 118.913V121.637C187.008 122.673 187.323 123.034 188.196 123.034H188.219C189.092 123.034 189.395 122.673 189.395 121.637V118.913C189.395 117.877 189.092 117.516 188.219 117.516H188.196ZM188.196 116.085H188.219C190.093 116.085 190.908 116.946 190.908 118.937V121.614C190.908 123.593 190.093 124.466 188.219 124.466H188.196C186.322 124.466 185.495 123.593 185.495 121.614V118.937C185.495 116.946 186.322 116.085 188.196 116.085ZM191.956 116.201H197.137V124.35H195.623V117.633H193.47V124.35H191.956V116.201ZM198.845 116.201H203.56V124.35H202.047V117.633H200.266L200.161 121.183C200.079 123.826 199.719 124.408 197.937 124.408H197.856V122.918H197.879C198.543 122.918 198.659 122.592 198.706 120.823L198.845 116.201ZM205.967 116.201H208.26L209.936 124.35H208.423L208.097 122.662H206.118L205.804 124.35H204.29L205.967 116.201ZM206.386 121.288H207.829L207.107 117.528L206.386 121.288ZM209.547 116.201H214.727V117.633H212.9V124.35H211.386V117.633H209.547V116.201ZM215.67 116.201H217.125L217.079 122.359L218.988 116.201H220.967V124.35H219.512L219.558 118.192L217.649 124.35H215.67V116.201ZM221.882 116.201H227.062V117.633H225.234V124.35H223.721V117.633H221.882V116.201ZM228.016 116.201H232.906V117.633H229.53V119.589H232.556V120.962H229.53V122.918H232.964V124.35H228.016V116.201ZM239.101 117.633L239.008 120.66C238.973 121.789 238.903 122.499 238.74 122.918H240.8V117.633H239.101ZM237.68 116.201H242.302V122.918H243.117V125.979H241.685V124.35H238.065V125.979H236.633V122.918H236.854C237.413 122.918 237.494 122.627 237.552 120.578L237.68 116.201ZM246.287 117.516C245.414 117.516 245.1 117.877 245.1 118.913V121.637C245.1 122.673 245.414 123.034 246.287 123.034H246.31C247.183 123.034 247.486 122.673 247.486 121.637V118.913C247.486 117.877 247.183 117.516 246.31 117.516H246.287ZM246.287 116.085H246.31C248.185 116.085 248.999 116.946 248.999 118.937V121.614C248.999 123.593 248.185 124.466 246.31 124.466H246.287C244.413 124.466 243.586 123.593 243.586 121.614V118.937C243.586 116.946 244.413 116.085 246.287 116.085ZM255.723 116.085H255.746C257.516 116.085 258.191 116.771 258.191 118.39C258.191 119.647 257.783 120.369 256.724 120.927L255.432 121.602C254.71 121.987 254.489 122.266 254.454 122.976H258.191V124.35H253.011V123.616C253.011 121.87 253.395 121.102 254.594 120.485L255.956 119.763C256.538 119.461 256.759 119.088 256.759 118.448C256.759 117.738 256.48 117.458 255.746 117.458H255.723C254.885 117.458 254.64 117.819 254.64 118.995L253.243 118.96C253.243 116.841 253.895 116.085 255.723 116.085ZM261.643 117.458C260.793 117.458 260.49 117.842 260.49 118.937V121.614C260.49 122.708 260.793 123.093 261.643 123.093H261.666C262.516 123.093 262.807 122.708 262.807 121.614V118.937C262.807 117.842 262.516 117.458 261.666 117.458H261.643ZM261.643 116.085H261.666C263.459 116.085 264.239 116.946 264.239 118.937V121.614C264.239 123.593 263.459 124.466 261.666 124.466H261.643C259.85 124.466 259.058 123.593 259.058 121.614V118.937C259.058 116.946 259.85 116.085 261.643 116.085ZM270.321 116.201H271.288L266.585 124.35H265.618L270.321 116.201ZM270.554 120.206H270.566C271.497 120.206 271.916 120.648 271.916 121.661V122.953C271.916 123.954 271.497 124.408 270.566 124.408H270.554C269.623 124.408 269.204 123.954 269.204 122.953V121.661C269.204 120.648 269.623 120.206 270.554 120.206ZM266.457 116.131H266.468C267.399 116.131 267.819 116.574 267.819 117.586V118.878C267.819 119.88 267.399 120.334 266.468 120.334H266.457C265.525 120.334 265.106 119.88 265.106 118.878V117.586C265.106 116.574 265.525 116.131 266.457 116.131ZM270.554 121.079C270.217 121.079 270.112 121.23 270.112 121.661V122.953C270.112 123.384 270.217 123.535 270.554 123.535H270.566C270.903 123.535 271.008 123.384 271.008 122.953V121.661C271.008 121.23 270.903 121.079 270.566 121.079H270.554ZM266.457 117.004C266.119 117.004 266.014 117.156 266.014 117.586V118.878C266.014 119.309 266.119 119.461 266.457 119.461H266.468C266.806 119.461 266.911 119.309 266.911 118.878V117.586C266.911 117.156 266.806 117.004 266.468 117.004H266.457ZM188.196 129.516C187.323 129.516 187.008 129.877 187.008 130.913V133.637C187.008 134.673 187.323 135.034 188.196 135.034H188.219C189.092 135.034 189.395 134.673 189.395 133.637V130.913C189.395 129.877 189.092 129.516 188.219 129.516H188.196ZM188.196 128.085H188.219C190.093 128.085 190.908 128.946 190.908 130.937V133.614C190.908 135.593 190.093 136.466 188.219 136.466H188.196C186.322 136.466 185.495 135.593 185.495 133.614V130.937C185.495 128.946 186.322 128.085 188.196 128.085ZM191.358 128.201H196.538V129.633H194.711V136.35H193.197V129.633H191.358V128.201ZM203.031 128.085H203.055C204.964 128.085 205.697 128.923 205.697 131.135L204.23 131.169C204.23 129.889 203.963 129.516 203.055 129.516H203.031C202.158 129.516 201.855 129.877 201.855 130.925V133.626C201.855 134.673 202.158 135.034 203.031 135.034H203.055C203.997 135.034 204.242 134.662 204.242 133.265L205.755 133.3C205.755 135.605 205.022 136.466 203.055 136.466H203.031C201.157 136.466 200.342 135.593 200.342 133.614V130.937C200.342 128.946 201.157 128.085 203.031 128.085ZM206.08 128.201H211.26V129.633H209.432V136.35H207.919V129.633H206.08V128.201ZM214.456 129.516C213.583 129.516 213.269 129.877 213.269 130.913V133.637C213.269 134.673 213.583 135.034 214.456 135.034H214.479C215.353 135.034 215.655 134.673 215.655 133.637V130.913C215.655 129.877 215.353 129.516 214.479 129.516H214.456ZM214.456 128.085H214.479C216.354 128.085 217.169 128.946 217.169 130.937V133.614C217.169 135.593 216.354 136.466 214.479 136.466H214.456C212.582 136.466 211.756 135.593 211.756 133.614V130.937C211.756 128.946 212.582 128.085 214.456 128.085ZM218.217 128.201H219.672L219.625 134.359L221.534 128.201H223.513V136.35H222.058L222.105 130.192L220.196 136.35H218.217V128.201ZM224.731 128.201H227.036L228.316 133.963L229.585 128.201H231.89V136.35H230.4L230.446 129.784L228.98 136.35H227.641L226.174 129.784L226.221 136.35H224.731V128.201ZM235.635 129.516C234.762 129.516 234.448 129.877 234.448 130.913V133.637C234.448 134.673 234.762 135.034 235.635 135.034H235.658C236.531 135.034 236.834 134.673 236.834 133.637V130.913C236.834 129.877 236.531 129.516 235.658 129.516H235.635ZM235.635 128.085H235.658C237.533 128.085 238.347 128.946 238.347 130.937V133.614C238.347 135.593 237.533 136.466 235.658 136.466H235.635C233.761 136.466 232.934 135.593 232.934 133.614V130.937C232.934 128.946 233.761 128.085 235.635 128.085ZM241.922 128.085H241.945C243.854 128.085 244.587 128.923 244.587 131.135L243.121 131.169C243.121 129.889 242.853 129.516 241.945 129.516H241.922C241.049 129.516 240.746 129.877 240.746 130.925V133.626C240.746 134.673 241.049 135.034 241.922 135.034H241.945C242.888 135.034 243.132 134.662 243.132 133.265L244.646 133.3C244.646 135.605 243.912 136.466 241.945 136.466H241.922C240.047 136.466 239.233 135.593 239.233 133.614V130.937C239.233 128.946 240.047 128.085 241.922 128.085ZM244.97 128.201H250.15V129.633H248.323V136.35H246.81V129.633H244.97V128.201ZM251.093 128.201H252.549L252.502 134.359L254.411 128.201H256.39V136.35H254.935L254.981 130.192L253.072 136.35H251.093V128.201ZM260.745 128.201H265.925V136.35H264.412V129.633H262.258V136.35H260.745V128.201ZM269.671 129.516C268.798 129.516 268.484 129.877 268.484 130.913V133.637C268.484 134.673 268.798 135.034 269.671 135.034H269.695C270.568 135.034 270.87 134.673 270.87 133.637V130.913C270.87 129.877 270.568 129.516 269.695 129.516H269.671ZM269.671 128.085H269.695C271.569 128.085 272.384 128.946 272.384 130.937V133.614C272.384 135.593 271.569 136.466 269.695 136.466H269.671C267.797 136.466 266.971 135.593 266.971 133.614V130.937C266.971 128.946 267.797 128.085 269.671 128.085ZM273.443 128.189H274.957V131.495H275.69L277.11 128.189H278.682L276.959 132.147L278.915 136.338H277.262L275.69 132.927H274.957V136.338H273.443V128.189ZM279.081 128.201H280.665L282.015 131.915L283.121 128.201H284.669L282.632 134.51C282.131 136.047 281.782 136.35 280.49 136.35H280.222V134.976H280.315C280.828 134.976 280.991 134.848 281.177 134.278L281.293 133.905L279.081 128.201ZM285.402 128.201H290.583V136.35H289.069V129.633H286.916V136.35H285.402V128.201ZM291.814 128.189H293.328V131.495H294.061L295.481 128.189H297.053L295.33 132.147L297.286 136.338H295.633L294.061 132.927H293.328V136.338H291.814V128.189ZM298.01 128.201H299.465L299.418 134.359L301.327 128.201H303.306V136.35H301.851L301.898 130.192L299.989 136.35H298.01V128.201Z" fill="#0A1E4E"/>
<path d="M11.3566 128.201H12.9398L14.2902 131.914L15.3961 128.201H16.9443L14.9071 134.51C14.4066 136.047 14.0574 136.35 12.7652 136.35H12.4975V134.976H12.5906C13.1028 134.976 13.2658 134.848 13.452 134.278L13.5684 133.905L11.3566 128.201ZM19.8514 128.085H19.8747C21.7838 128.085 22.5172 128.923 22.5172 131.134L21.0504 131.169C21.0504 129.889 20.7827 129.516 19.8747 129.516H19.8514C18.9783 129.516 18.6756 129.877 18.6756 130.925V133.626C18.6756 134.673 18.9783 135.034 19.8514 135.034H19.8747C20.8176 135.034 21.062 134.662 21.062 133.265L22.5754 133.3C22.5754 135.605 21.842 136.466 19.8747 136.466H19.8514C17.9772 136.466 17.1623 135.593 17.1623 133.614V130.937C17.1623 128.946 17.9772 128.085 19.8514 128.085ZM23.4982 128.201H28.6784V136.35H27.1651V129.633H25.0115V136.35H23.4982V128.201ZM29.9101 128.201H34.7993V129.633H31.4234V131.588H34.4501V132.962H31.4234V134.918H34.8575V136.35H29.9101V128.201ZM35.8895 128.201H37.3446L37.298 134.359L39.2071 128.201H41.1861V136.35H39.731L39.7776 130.192L37.8684 136.35H35.8895V128.201ZM36.4948 126.094L37.752 125.977C37.752 126.408 37.9266 126.536 38.5553 126.536H38.6367C39.2654 126.536 39.44 126.408 39.44 125.977L40.6972 126.094C40.6157 127.27 40.1384 127.642 38.7415 127.642H38.4505C37.0419 127.642 36.5646 127.27 36.4948 126.094ZM42.1008 128.201H47.281V129.633H45.4534V136.35H43.94V129.633H42.1008V128.201ZM48.2355 128.201H53.1248V129.633H49.7489V131.588H52.7755V132.962H49.7489V134.918H53.183V136.35H48.2355V128.201ZM59.7622 128.085H59.7855C61.5084 128.085 62.3581 128.83 62.3581 130.366C62.3581 131.332 62.0089 131.914 61.2639 132.147C62.0904 132.38 62.4746 132.997 62.4746 134.056C62.4746 135.674 61.6015 136.466 59.7855 136.466H59.7622C57.7949 136.466 57.0615 135.663 57.0615 133.532L58.5515 133.498C58.5515 134.662 58.8426 135.034 59.7622 135.034H59.7739C60.6236 135.034 60.9612 134.72 60.9612 133.928C60.9612 133.148 60.6702 132.881 59.6924 132.881H58.959V131.565H59.6924C60.5538 131.565 60.8448 131.286 60.8448 130.552C60.8448 129.831 60.5305 129.516 59.7739 129.516H59.7622C58.9357 129.516 58.6447 129.889 58.6447 130.937L57.1779 130.902C57.1779 128.888 57.9229 128.085 59.7622 128.085ZM64.3715 128.201H66.6648L68.3411 136.35H66.8277L66.5018 134.662H64.5228L64.2085 136.35H62.6952L64.3715 128.201ZM64.7906 133.288H66.234L65.5123 129.528L64.7906 133.288ZM69.0731 128.201H73.7877V129.633H70.5864V131.484H71.7854C73.6247 131.484 74.3697 132.182 74.3697 133.905C74.3697 135.64 73.6131 136.35 71.7854 136.35H69.0731V128.201ZM70.5864 132.857V134.918H71.6574C72.577 134.918 72.8564 134.685 72.8564 133.882C72.8564 133.078 72.5887 132.857 71.6574 132.857H70.5864ZM75.2576 128.201H77.9583C79.7976 128.201 80.5543 128.923 80.5543 130.704C80.5543 132.473 79.7976 133.207 77.9583 133.207H76.771V136.35H75.2576V128.201ZM76.771 131.775H77.8186C78.7383 131.775 79.0409 131.519 79.0409 130.704C79.0409 129.866 78.7499 129.633 77.8186 129.633H76.771V131.775ZM82.0717 128.201H84.365L86.0413 136.35H84.5279L84.202 134.662H82.223L81.9087 136.35H80.3954L82.0717 128.201ZM82.4908 133.288H83.9343L83.2125 129.528L82.4908 133.288ZM85.6521 128.201H90.8324V129.633H89.0047V136.35H87.4914V129.633H85.6521V128.201ZM91.7753 128.201H93.2886V131.344H94.4876C96.3269 131.344 97.0719 132.066 97.0719 133.835C97.0719 135.616 96.3153 136.35 94.4876 136.35H91.7753V128.201ZM93.2886 132.776V134.918H94.3596C95.2792 134.918 95.5586 134.673 95.5586 133.847C95.5586 133.009 95.2792 132.776 94.3596 132.776H93.2886ZM101.097 128.201H103.589C105.416 128.201 106.161 128.83 106.161 130.413V130.436C106.161 131.414 105.859 131.938 105.114 132.147C106.022 132.38 106.394 132.962 106.394 134.068V134.091C106.394 135.663 105.556 136.35 103.705 136.35H101.097V128.201ZM102.611 132.916V134.976H103.705C104.59 134.976 104.869 134.743 104.869 133.963V133.952C104.869 133.148 104.578 132.916 103.705 132.916H102.611ZM102.611 129.575V131.542H103.624C104.403 131.542 104.671 131.309 104.671 130.564V130.552C104.671 129.807 104.392 129.575 103.624 129.575H102.611ZM110.396 128.201H112.701L113.982 133.963L115.251 128.201H117.556V136.35H116.065L116.112 129.784L114.645 136.35H113.307L111.84 129.784L111.886 136.35H110.396V128.201ZM119.95 128.201H122.244L123.92 136.35H122.407L122.081 134.662H120.102L119.787 136.35H118.274L119.95 128.201ZM120.369 133.288H121.813L121.091 129.528L120.369 133.288ZM124.652 128.201H129.25V129.633H126.165V136.35H124.652V128.201ZM130.5 128.201H132.793L134.47 136.35H132.956L132.63 134.662H130.651L130.337 136.35H128.824L130.5 128.201ZM130.919 133.288H132.363L131.641 129.528L130.919 133.288ZM137.463 128.085H137.487C139.21 128.085 140.059 128.83 140.059 130.366C140.059 131.332 139.71 131.914 138.965 132.147C139.792 132.38 140.176 132.997 140.176 134.056C140.176 135.674 139.303 136.466 137.487 136.466H137.463C135.496 136.466 134.763 135.663 134.763 133.532L136.253 133.498C136.253 134.662 136.544 135.034 137.463 135.034H137.475C138.325 135.034 138.663 134.72 138.663 133.928C138.663 133.148 138.371 132.881 137.394 132.881H136.66V131.565H137.394C138.255 131.565 138.546 131.286 138.546 130.552C138.546 129.831 138.232 129.516 137.475 129.516H137.463C136.637 129.516 136.346 129.889 136.346 130.937L134.879 130.902C134.879 128.888 135.624 128.085 137.463 128.085ZM141.045 128.201H142.5L142.453 134.359L144.362 128.201H146.341V136.35H144.886L144.933 130.192L143.024 136.35H141.045V128.201ZM147.559 128.189H149.072V131.495H151.226V128.189H152.739V136.338H151.226V132.927H149.072V136.338H147.559V128.189ZM153.971 128.201H158.86V129.633H155.484V131.588H158.511V132.962H155.484V134.918H158.918V136.35H153.971V128.201Z" fill="white"/>
<rect x="-40.123" y="53.3594" width="409.446" height="48.994" fill="#0A1E4E"/>
<path d="M153.747 61.9853H158.739V92.6406H152.564V70.1746L148.579 73.4154L145.295 68.8608L153.747 61.9853ZM171.776 67.5033C168.974 67.5033 168.01 68.7295 168.01 72.3643V82.2178C168.01 85.8527 168.974 87.1227 171.776 87.1227H171.864C174.667 87.1227 175.63 85.8527 175.63 82.2178V72.3643C175.63 68.7295 174.667 67.5033 171.864 67.5033H171.776ZM171.776 61.5474H171.864C178.783 61.5474 181.849 64.8757 181.849 72.3643V82.2178C181.849 89.7503 178.783 93.0786 171.864 93.0786H171.776C164.857 93.0786 161.791 89.7503 161.791 82.2178V72.3643C161.791 64.8757 164.857 61.5474 171.776 61.5474ZM194.123 67.5033C191.32 67.5033 190.357 68.7295 190.357 72.3643V82.2178C190.357 85.8527 191.32 87.1227 194.123 87.1227H194.21C197.013 87.1227 197.977 85.8527 197.977 82.2178V72.3643C197.977 68.7295 197.013 67.5033 194.21 67.5033H194.123ZM194.123 61.5474H194.21C201.13 61.5474 204.195 64.8757 204.195 72.3643V82.2178C204.195 89.7503 201.13 93.0786 194.21 93.0786H194.123C187.204 93.0786 184.138 89.7503 184.138 82.2178V72.3643C184.138 64.8757 187.204 61.5474 194.123 61.5474ZM227.654 67.5033C224.851 67.5033 223.888 68.7295 223.888 72.3643V82.2178C223.888 85.8527 224.851 87.1227 227.654 87.1227H227.741C230.544 87.1227 231.508 85.8527 231.508 82.2178V72.3643C231.508 68.7295 230.544 67.5033 227.741 67.5033H227.654ZM227.654 61.5474H227.741C234.661 61.5474 237.726 64.8757 237.726 72.3643V82.2178C237.726 89.7503 234.661 93.0786 227.741 93.0786H227.654C220.735 93.0786 217.669 89.7503 217.669 82.2178V72.3643C217.669 64.8757 220.735 61.5474 227.654 61.5474ZM250 67.5033C247.198 67.5033 246.234 68.7295 246.234 72.3643V82.2178C246.234 85.8527 247.198 87.1227 250 87.1227H250.088C252.891 87.1227 253.854 85.8527 253.854 82.2178V72.3643C253.854 68.7295 252.891 67.5033 250.088 67.5033H250ZM250 61.5474H250.088C257.007 61.5474 260.073 64.8757 260.073 72.3643V82.2178C260.073 89.7503 257.007 93.0786 250.088 93.0786H250C243.081 93.0786 240.016 89.7503 240.016 82.2178V72.3643C240.016 64.8757 243.081 61.5474 250 61.5474ZM272.347 67.5033C269.544 67.5033 268.581 68.7295 268.581 72.3643V82.2178C268.581 85.8527 269.544 87.1227 272.347 87.1227H272.435C275.237 87.1227 276.201 85.8527 276.201 82.2178V72.3643C276.201 68.7295 275.237 67.5033 272.435 67.5033H272.347ZM272.347 61.5474H272.435C279.354 61.5474 282.419 64.8757 282.419 72.3643V82.2178C282.419 89.7503 279.354 93.0786 272.435 93.0786H272.347C265.428 93.0786 262.362 89.7503 262.362 82.2178V72.3643C262.362 64.8757 265.428 61.5474 272.347 61.5474ZM293.835 61.9415H302.637C309.688 61.9415 312.359 64.4377 312.359 70.8315V70.9629C312.359 77.4005 309.688 79.8092 302.637 79.8092H298.477V81.9988H305.747V86.2906H298.477V92.5968H293.835V86.2906H290.331V81.9988H293.835V79.8092H290.331V75.5174H293.835V61.9415ZM298.477 75.5174H302.287C306.579 75.5174 307.717 74.5102 307.717 70.9629V70.8753C307.717 67.3281 306.579 66.3646 302.287 66.3646H298.477V75.5174Z" fill="white"/>
<path d="M15.5968 61.7928H32.5389V88.0201H35.6192V98.8014H30.9987V92.6406H16.3009V98.8014H11.6803V88.0201H12.5164C14.5406 88.0201 14.8927 86.7879 15.1127 79.131L15.5968 61.7928ZM20.1733 66.4134L19.7773 79.439C19.6453 83.7955 19.3812 86.4799 18.7652 88.0201H27.6983V66.4134H20.1733ZM42.021 61.7928H49.0619L55.9267 92.5966H51.0421L49.5899 85.8198H41.4929L40.0408 92.5966H35.1561L42.021 61.7928ZM42.417 81.3312H48.6658L45.5414 66.3254L42.417 81.3312ZM57.4741 61.7928H67.1113C74.1522 61.7928 76.9245 64.4331 76.9245 71.034C76.9245 77.6788 74.1082 80.3191 67.1113 80.3191H62.3147V92.6406H57.4741V61.7928ZM62.3147 75.6985H66.7593C70.8518 75.6985 72.0839 74.6424 72.0839 71.034C72.0839 67.4255 70.8958 66.4134 66.7593 66.4134H62.3147V75.6985ZM79.318 61.8368H84.0266L83.9386 86.0838L92.1676 61.8368H98.7684V92.6406H94.0598L94.1478 68.3496L85.9188 92.6406H79.318V61.8368ZM102.148 61.8368H109.717L115.306 84.7196L120.939 61.8368H128.463V92.6406H123.667L123.755 66.9415L117.418 92.6406H113.194L106.857 66.9415L106.945 92.6406H102.148V61.8368Z" fill="white"/>
<path d="M194.795 111.145C194.795 106.448 190.987 102.64 186.291 102.64C190.987 102.64 194.795 98.8314 194.795 94.1348C194.795 98.8314 198.604 102.64 203.3 102.64C198.604 102.64 194.795 106.448 194.795 111.145Z" fill="#FF7500"/>
<path d="M194.795 111.145C194.795 106.448 190.987 102.64 186.291 102.64C190.987 102.64 194.795 98.8314 194.795 94.1348C194.795 98.8314 198.604 102.64 203.3 102.64C198.604 102.64 194.795 106.448 194.795 111.145Z" fill="url(#paint27_linear_1_3971)"/>
<path d="M194.795 111.145C194.795 106.448 190.987 102.64 186.291 102.64C190.987 102.64 194.795 98.8314 194.795 94.1348C194.795 98.8314 198.604 102.64 203.3 102.64C198.604 102.64 194.795 106.448 194.795 111.145Z" fill="url(#paint28_linear_1_3971)"/>
<path d="M169.281 111.145C169.281 106.448 165.473 102.64 160.776 102.64C165.473 102.64 169.281 98.8314 169.281 94.1348C169.281 98.8314 173.09 102.64 177.786 102.64C173.09 102.64 169.281 106.448 169.281 111.145Z" fill="#FF7500"/>
<path d="M169.281 111.145C169.281 106.448 165.473 102.64 160.776 102.64C165.473 102.64 169.281 98.8314 169.281 94.1348C169.281 98.8314 173.09 102.64 177.786 102.64C173.09 102.64 169.281 106.448 169.281 111.145Z" fill="url(#paint29_linear_1_3971)"/>
<path d="M169.281 111.145C169.281 106.448 165.473 102.64 160.776 102.64C165.473 102.64 169.281 98.8314 169.281 94.1348C169.281 98.8314 173.09 102.64 177.786 102.64C173.09 102.64 169.281 106.448 169.281 111.145Z" fill="url(#paint30_linear_1_3971)"/>
<path d="M143.766 111.145C143.766 106.448 139.958 102.64 135.261 102.64C139.958 102.64 143.766 98.8314 143.766 94.1348C143.766 98.8314 147.574 102.64 152.271 102.64C147.574 102.64 143.766 106.448 143.766 111.145Z" fill="#FF7500"/>
<path d="M143.766 111.145C143.766 106.448 139.958 102.64 135.261 102.64C139.958 102.64 143.766 98.8314 143.766 94.1348C143.766 98.8314 147.574 102.64 152.271 102.64C147.574 102.64 143.766 106.448 143.766 111.145Z" fill="url(#paint31_linear_1_3971)"/>
<path d="M143.766 111.145C143.766 106.448 139.958 102.64 135.261 102.64C139.958 102.64 143.766 98.8314 143.766 94.1348C143.766 98.8314 147.574 102.64 152.271 102.64C147.574 102.64 143.766 106.448 143.766 111.145Z" fill="url(#paint32_linear_1_3971)"/>
</g>
<defs>
<linearGradient id="paint0_linear_1_3971" x1="429.556" y1="208.809" x2="274.901" y2="348.985" gradientUnits="userSpaceOnUse">
<stop stop-color="#FF7500"/>
<stop offset="1" stop-color="#E91A3E"/>
</linearGradient>
<linearGradient id="paint1_linear_1_3971" x1="-75.8789" y1="120.969" x2="15.9161" y2="340.357" gradientUnits="userSpaceOnUse">
<stop stop-color="#FFC400"/>
<stop offset="1" stop-color="#FF7500"/>
</linearGradient>
<linearGradient id="paint2_linear_1_3971" x1="-69.0702" y1="135.221" x2="-13.0676" y2="107.405" gradientUnits="userSpaceOnUse">
<stop offset="0.325254" stop-color="#FF7500"/>
<stop offset="1" stop-color="#FF4000"/>
</linearGradient>
<linearGradient id="paint3_linear_1_3971" x1="261.797" y1="53.2949" x2="218.595" y2="131.885" gradientUnits="userSpaceOnUse">
<stop stop-color="#E91A3E"/>
<stop offset="1" stop-color="#FF7500"/>
</linearGradient>
<linearGradient id="paint4_linear_1_3971" x1="246.37" y1="1.66519" x2="238.586" y2="28.7774" gradientUnits="userSpaceOnUse">
<stop stop-color="#FF7500"/>
<stop offset="1" stop-color="#FF4000"/>
</linearGradient>
<linearGradient id="paint5_linear_1_3971" x1="242.019" y1="3.63724" x2="187.905" y2="23.2285" gradientUnits="userSpaceOnUse">
<stop stop-color="#FFC400"/>
<stop offset="1" stop-color="#FF7500"/>
</linearGradient>
<linearGradient id="paint6_linear_1_3971" x1="246.37" y1="1.66519" x2="238.586" y2="28.7774" gradientUnits="userSpaceOnUse">
<stop stop-color="#FF7500"/>
<stop offset="1" stop-color="#FF4000"/>
</linearGradient>
<linearGradient id="paint7_linear_1_3971" x1="242.019" y1="3.63724" x2="187.905" y2="23.2285" gradientUnits="userSpaceOnUse">
<stop stop-color="#FFC400"/>
<stop offset="1" stop-color="#FF7500"/>
</linearGradient>
<linearGradient id="paint8_linear_1_3971" x1="246.37" y1="1.66519" x2="238.586" y2="28.7774" gradientUnits="userSpaceOnUse">
<stop stop-color="#FF7500"/>
<stop offset="1" stop-color="#FF4000"/>
</linearGradient>
<linearGradient id="paint9_linear_1_3971" x1="242.019" y1="3.63724" x2="187.905" y2="23.2285" gradientUnits="userSpaceOnUse">
<stop stop-color="#FFC400"/>
<stop offset="1" stop-color="#FF7500"/>
</linearGradient>
<linearGradient id="paint10_linear_1_3971" x1="246.37" y1="1.66519" x2="238.586" y2="28.7774" gradientUnits="userSpaceOnUse">
<stop stop-color="#FF7500"/>
<stop offset="1" stop-color="#FF4000"/>
</linearGradient>
<linearGradient id="paint11_linear_1_3971" x1="242.019" y1="3.63724" x2="187.905" y2="23.2285" gradientUnits="userSpaceOnUse">
<stop stop-color="#FFC400"/>
<stop offset="1" stop-color="#FF7500"/>
</linearGradient>
<linearGradient id="paint12_linear_1_3971" x1="246.37" y1="1.66519" x2="238.586" y2="28.7774" gradientUnits="userSpaceOnUse">
<stop stop-color="#FF7500"/>
<stop offset="1" stop-color="#FF4000"/>
</linearGradient>
<linearGradient id="paint13_linear_1_3971" x1="242.019" y1="3.63724" x2="187.905" y2="23.2285" gradientUnits="userSpaceOnUse">
<stop stop-color="#FFC400"/>
<stop offset="1" stop-color="#FF7500"/>
</linearGradient>
<linearGradient id="paint14_linear_1_3971" x1="246.37" y1="1.66519" x2="238.586" y2="28.7774" gradientUnits="userSpaceOnUse">
<stop stop-color="#FF7500"/>
<stop offset="1" stop-color="#FF4000"/>
</linearGradient>
<linearGradient id="paint15_linear_1_3971" x1="242.019" y1="3.63724" x2="187.905" y2="23.2285" gradientUnits="userSpaceOnUse">
<stop stop-color="#FFC400"/>
<stop offset="1" stop-color="#FF7500"/>
</linearGradient>
<linearGradient id="paint16_linear_1_3971" x1="129.002" y1="80.8228" x2="110.083" y2="39.5784" gradientUnits="userSpaceOnUse">
<stop stop-color="#E91A3E"/>
<stop offset="1" stop-color="#FF7500"/>
</linearGradient>
<linearGradient id="paint17_linear_1_3971" x1="234.217" y1="98.1047" x2="209.266" y2="43.7093" gradientUnits="userSpaceOnUse">
<stop stop-color="#E91A3E"/>
<stop offset="1" stop-color="#FF7500"/>
</linearGradient>
<linearGradient id="paint18_linear_1_3971" x1="305.737" y1="49.4053" x2="362.982" y2="-14.2415" gradientUnits="userSpaceOnUse">
<stop stop-color="#FF6416"/>
<stop offset="1" stop-color="#FDAC1F"/>
</linearGradient>
<linearGradient id="paint19_linear_1_3971" x1="347.935" y1="3.63073" x2="287.811" y2="28.7881" gradientUnits="userSpaceOnUse">
<stop stop-color="#FFC400"/>
<stop offset="1" stop-color="#FF7500"/>
</linearGradient>
<linearGradient id="paint20_linear_1_3971" x1="309.627" y1="53.5897" x2="270.155" y2="138.047" gradientUnits="userSpaceOnUse">
<stop stop-color="#E91A3E"/>
<stop offset="1" stop-color="#FF7500"/>
</linearGradient>
<linearGradient id="paint21_linear_1_3971" x1="142.524" y1="106.004" x2="82.0682" y2="131.3" gradientUnits="userSpaceOnUse">
<stop stop-color="#FFC400"/>
<stop offset="1" stop-color="#FF7500"/>
</linearGradient>
<linearGradient id="paint22_linear_1_3971" x1="138.597" y1="107.881" x2="146.262" y2="123.313" gradientUnits="userSpaceOnUse">
<stop offset="0.325254" stop-color="#FF7500"/>
<stop offset="1" stop-color="#FF4000"/>
</linearGradient>
<linearGradient id="paint23_linear_1_3971" x1="134.564" y1="110.397" x2="93.8742" y2="123.739" gradientUnits="userSpaceOnUse">
<stop stop-color="#FFC400"/>
<stop offset="1" stop-color="#FF7500"/>
</linearGradient>
<linearGradient id="paint24_linear_1_3971" x1="134.564" y1="110.397" x2="93.8742" y2="123.739" gradientUnits="userSpaceOnUse">
<stop stop-color="#FFC400"/>
<stop offset="1" stop-color="#FF7500"/>
</linearGradient>
<linearGradient id="paint25_linear_1_3971" x1="131.526" y1="14.5423" x2="84.3612" y2="47.7238" gradientUnits="userSpaceOnUse">
<stop stop-color="#E91A3E"/>
<stop offset="1" stop-color="#FF7500"/>
</linearGradient>
<linearGradient id="paint26_linear_1_3971" x1="157.997" y1="14.5423" x2="110.832" y2="47.7238" gradientUnits="userSpaceOnUse">
<stop stop-color="#E91A3E"/>
<stop offset="1" stop-color="#FF7500"/>
</linearGradient>
<linearGradient id="paint27_linear_1_3971" x1="203.3" y1="94.665" x2="201.111" y2="103.477" gradientUnits="userSpaceOnUse">
<stop stop-color="#FF7500"/>
<stop offset="1" stop-color="#FF4000"/>
</linearGradient>
<linearGradient id="paint28_linear_1_3971" x1="201.697" y1="95.2937" x2="182.506" y2="103.323" gradientUnits="userSpaceOnUse">
<stop stop-color="#FFC400"/>
<stop offset="1" stop-color="#FF7500"/>
</linearGradient>
<linearGradient id="paint29_linear_1_3971" x1="177.786" y1="94.665" x2="175.597" y2="103.477" gradientUnits="userSpaceOnUse">
<stop stop-color="#FF7500"/>
<stop offset="1" stop-color="#FF4000"/>
</linearGradient>
<linearGradient id="paint30_linear_1_3971" x1="176.183" y1="95.2937" x2="156.992" y2="103.323" gradientUnits="userSpaceOnUse">
<stop stop-color="#FFC400"/>
<stop offset="1" stop-color="#FF7500"/>
</linearGradient>
<linearGradient id="paint31_linear_1_3971" x1="152.271" y1="94.665" x2="150.082" y2="103.477" gradientUnits="userSpaceOnUse">
<stop stop-color="#FF7500"/>
<stop offset="1" stop-color="#FF4000"/>
</linearGradient>
<linearGradient id="paint32_linear_1_3971" x1="150.668" y1="95.2937" x2="131.477" y2="103.323" gradientUnits="userSpaceOnUse">
<stop stop-color="#FFC400"/>
<stop offset="1" stop-color="#FF7500"/>
</linearGradient>
<clipPath id="clip0_1_3971">
<rect width="329" height="156" fill="white"/>
</clipPath>
</defs>
</svg>
