<svg width="701" height="282" viewBox="0 0 701 282" fill="none" xmlns="http://www.w3.org/2000/svg">
<g clip-path="url(#clip0_1_3058)">
<rect width="700.406" height="281.073" fill="url(#paint0_linear_1_3058)"/>
<path d="M-19.0566 353.582C-19.0566 264.292 53.3266 191.907 142.616 191.907C231.906 191.907 304.289 264.292 304.289 353.582C304.289 442.872 231.906 515.256 142.616 515.256C53.3267 515.256 -19.0565 442.872 -19.0566 353.582ZM44.4697 353.584C44.4698 407.791 88.4125 451.734 142.619 451.734C196.826 451.734 240.769 407.791 240.77 353.584C240.77 299.377 196.826 255.433 142.619 255.433C88.4124 255.433 44.4697 299.377 44.4697 353.584Z" fill="#FF7500"/>
<path d="M-19.0566 353.582C-19.0566 264.292 53.3266 191.907 142.616 191.907C231.906 191.907 304.289 264.292 304.289 353.582C304.289 442.872 231.906 515.256 142.616 515.256C53.3267 515.256 -19.0565 442.872 -19.0566 353.582ZM44.4697 353.584C44.4698 407.791 88.4125 451.734 142.619 451.734C196.826 451.734 240.769 407.791 240.77 353.584C240.77 299.377 196.826 255.433 142.619 255.433C88.4124 255.433 44.4697 299.377 44.4697 353.584Z" fill="#0A1E4E"/>
<path d="M-19.0566 353.582C-19.0566 264.292 53.3266 191.907 142.616 191.907C231.906 191.907 304.289 264.292 304.289 353.582C304.289 442.872 231.906 515.256 142.616 515.256C53.3267 515.256 -19.0565 442.872 -19.0566 353.582ZM44.4697 353.584C44.4698 407.791 88.4125 451.734 142.619 451.734C196.826 451.734 240.769 407.791 240.77 353.584C240.77 299.377 196.826 255.433 142.619 255.433C88.4124 255.433 44.4697 299.377 44.4697 353.584Z" fill="url(#paint1_linear_1_3058)"/>
<path d="M-19.0566 353.582C-19.0566 264.292 53.3266 191.907 142.616 191.907C231.906 191.907 304.289 264.292 304.289 353.582C304.289 442.872 231.906 515.256 142.616 515.256C53.3267 515.256 -19.0565 442.872 -19.0566 353.582ZM44.4697 353.584C44.4698 407.791 88.4125 451.734 142.619 451.734C196.826 451.734 240.769 407.791 240.77 353.584C240.77 299.377 196.826 255.433 142.619 255.433C88.4124 255.433 44.4697 299.377 44.4697 353.584Z" fill="url(#paint2_linear_1_3058)"/>
<rect x="-84.6445" y="87.9497" width="869.699" height="104.068" fill="#0A1E4E"/>
<path d="M327.152 106.05H337.756V171.165H324.641V123.445L316.176 130.328L309.199 120.654L327.152 106.05ZM365.448 117.771C359.495 117.771 357.449 120.375 357.449 128.096V149.026C357.449 156.746 359.495 159.444 365.448 159.444H365.634C371.588 159.444 373.634 156.746 373.634 149.026V128.096C373.634 120.375 371.588 117.771 365.634 117.771H365.448ZM365.448 105.12H365.634C380.332 105.12 386.843 112.189 386.843 128.096V149.026C386.843 165.025 380.332 172.095 365.634 172.095H365.448C350.751 172.095 344.24 165.025 344.24 149.026V128.096C344.24 112.189 350.751 105.12 365.448 105.12ZM412.914 117.771C406.961 117.771 404.915 120.375 404.915 128.096V149.026C404.915 156.746 406.961 159.444 412.914 159.444H413.101C419.054 159.444 421.1 156.746 421.1 149.026V128.096C421.1 120.375 419.054 117.771 413.101 117.771H412.914ZM412.914 105.12H413.101C427.798 105.12 434.309 112.189 434.309 128.096V149.026C434.309 165.025 427.798 172.095 413.101 172.095H412.914C398.217 172.095 391.706 165.025 391.706 149.026V128.096C391.706 112.189 398.217 105.12 412.914 105.12ZM484.137 117.771C478.184 117.771 476.137 120.375 476.137 128.096V149.026C476.137 156.746 478.184 159.444 484.137 159.444H484.323C490.277 159.444 492.323 156.746 492.323 149.026V128.096C492.323 120.375 490.277 117.771 484.323 117.771H484.137ZM484.137 105.12H484.323C499.021 105.12 505.532 112.189 505.532 128.096V149.026C505.532 165.025 499.021 172.095 484.323 172.095H484.137C469.44 172.095 462.928 165.025 462.928 149.026V128.096C462.928 112.189 469.44 105.12 484.137 105.12ZM531.603 117.771C525.65 117.771 523.604 120.375 523.604 128.096V149.026C523.604 156.746 525.65 159.444 531.603 159.444H531.789C537.743 159.444 539.789 156.746 539.789 149.026V128.096C539.789 120.375 537.743 117.771 531.789 117.771H531.603ZM531.603 105.12H531.789C546.487 105.12 552.998 112.189 552.998 128.096V149.026C552.998 165.025 546.487 172.095 531.789 172.095H531.603C516.906 172.095 510.395 165.025 510.395 149.026V128.096C510.395 112.189 516.906 105.12 531.603 105.12ZM579.069 117.771C573.116 117.771 571.07 120.375 571.07 128.096V149.026C571.07 156.746 573.116 159.444 579.069 159.444H579.255C585.209 159.444 587.255 156.746 587.255 149.026V128.096C587.255 120.375 585.209 117.771 579.255 117.771H579.069ZM579.069 105.12H579.255C593.953 105.12 600.464 112.189 600.464 128.096V149.026C600.464 165.025 593.953 172.095 579.255 172.095H579.069C564.372 172.095 557.861 165.025 557.861 149.026V128.096C557.861 112.189 564.372 105.12 579.069 105.12ZM624.711 105.957H643.409C658.385 105.957 664.059 111.259 664.059 124.84V125.119C664.059 138.793 658.385 143.909 643.409 143.909H634.572V148.56H650.013V157.677H634.572V171.072H624.711V157.677H617.27V148.56H624.711V143.909H617.27V134.793H624.711V105.957ZM634.572 134.793H642.664C651.781 134.793 654.199 132.654 654.199 125.119V124.933C654.199 117.398 651.781 115.352 642.664 115.352H634.572V134.793Z" fill="white"/>
<path d="M44.9607 105.641H80.9472V161.35H87.4902V184.251H77.6757V171.165H46.4562V184.251H36.6417V161.35H38.4177C42.7174 161.35 43.4652 158.733 43.9325 142.469L44.9607 105.641ZM54.6817 115.456L53.8405 143.123C53.5601 152.377 52.9992 158.079 51.6906 161.35H70.6653V115.456H54.6817ZM101.088 105.641H116.044L130.625 171.071H120.25L117.165 156.676H99.9664L96.8819 171.071H86.5066L101.088 105.641ZM101.929 147.142H115.202L108.566 115.269L101.929 147.142ZM133.912 105.641H154.382C169.338 105.641 175.226 111.249 175.226 125.27C175.226 139.384 169.244 144.993 154.382 144.993H144.194V171.165H133.912V105.641ZM144.194 135.178H153.634C162.327 135.178 164.944 132.935 164.944 125.27C164.944 117.605 162.421 115.456 153.634 115.456H144.194V135.178ZM180.31 105.735H190.312L190.125 157.237L207.604 105.735H221.625V171.165H211.623L211.81 119.568L194.331 171.165H180.31V105.735ZM228.804 105.735H244.881L256.752 154.34L268.716 105.735H284.7V171.165H274.511L274.698 116.577L261.238 171.165H252.265L238.805 116.577L238.992 171.165H228.804V105.735Z" fill="white"/>
<path d="M228.533 207.31C228.533 199.118 221.891 192.476 213.699 192.476C221.891 192.476 228.533 185.834 228.533 177.643C228.533 185.834 235.175 192.476 243.366 192.476C235.175 192.476 228.533 199.118 228.533 207.31Z" fill="#FF7500"/>
<path d="M228.533 207.31C228.533 199.118 221.891 192.476 213.699 192.476C221.891 192.476 228.533 185.834 228.533 177.643C228.533 185.834 235.175 192.476 243.366 192.476C235.175 192.476 228.533 199.118 228.533 207.31Z" fill="url(#paint3_linear_1_3058)"/>
<path d="M228.533 207.31C228.533 199.118 221.891 192.476 213.699 192.476C221.891 192.476 228.533 185.834 228.533 177.643C228.533 185.834 235.175 192.476 243.366 192.476C235.175 192.476 228.533 199.118 228.533 207.31Z" fill="url(#paint4_linear_1_3058)"/>
<path d="M184.033 207.31C184.033 199.118 177.391 192.476 169.199 192.476C177.391 192.476 184.033 185.834 184.033 177.643C184.033 185.834 190.675 192.476 198.866 192.476C190.675 192.476 184.033 199.118 184.033 207.31Z" fill="#FF7500"/>
<path d="M184.033 207.31C184.033 199.118 177.391 192.476 169.199 192.476C177.391 192.476 184.033 185.834 184.033 177.643C184.033 185.834 190.675 192.476 198.866 192.476C190.675 192.476 184.033 199.118 184.033 207.31Z" fill="url(#paint5_linear_1_3058)"/>
<path d="M184.033 207.31C184.033 199.118 177.391 192.476 169.199 192.476C177.391 192.476 184.033 185.834 184.033 177.643C184.033 185.834 190.675 192.476 198.866 192.476C190.675 192.476 184.033 199.118 184.033 207.31Z" fill="url(#paint6_linear_1_3058)"/>
<path d="M139.533 207.31C139.533 199.118 132.891 192.476 124.699 192.476C132.891 192.476 139.533 185.834 139.533 177.643C139.533 185.834 146.175 192.476 154.366 192.476C146.175 192.476 139.533 199.118 139.533 207.31Z" fill="#FF7500"/>
<path d="M139.533 207.31C139.533 199.118 132.891 192.476 124.699 192.476C132.891 192.476 139.533 185.834 139.533 177.643C139.533 185.834 146.175 192.476 154.366 192.476C146.175 192.476 139.533 199.118 139.533 207.31Z" fill="url(#paint7_linear_1_3058)"/>
<path d="M139.533 207.31C139.533 199.118 132.891 192.476 124.699 192.476C132.891 192.476 139.533 185.834 139.533 177.643C139.533 185.834 146.175 192.476 154.366 192.476C146.175 192.476 139.533 199.118 139.533 207.31Z" fill="url(#paint8_linear_1_3058)"/>
<rect width="352.823" height="87.7595" transform="matrix(-1 0 0 1 344.898 0.197266)" fill="url(#paint9_linear_1_3058)"/>
<path d="M-0.475883 0.197266C-0.475882 24.4227 19.1933 44.078 43.4081 44.078C67.6353 44.078 87.2921 24.4103 87.2921 0.197262L-0.488281 0.197266L-0.475883 0.197266Z" fill="#FF7500"/>
<path d="M87.3079 87.9556C87.3079 63.7301 67.6388 44.0749 43.4239 44.0749C19.1967 44.0749 -0.460031 63.7425 -0.46003 87.9556L87.3203 87.9556L87.3079 87.9556Z" fill="#FF7500"/>
<path d="M413.089 88.0588H404.093V43.9954H403.035V46.2182C403.035 46.873 402.503 47.4041 401.847 47.4041H367.923C367.267 47.404 366.735 46.873 366.735 46.2182V43.9954H365.372V51.9553L385.087 57.4215C385.118 57.4299 385.148 57.4396 385.177 57.4499C385.806 57.5523 386.287 58.0981 386.287 58.7545V62.6593C388.183 62.8782 389.548 63.388 389.683 63.9923H389.696V82.417H389.695C389.68 83.2679 387.232 83.9563 384.214 83.9563C381.187 83.9563 378.733 83.2636 378.733 82.4091C378.733 82.398 378.734 82.3869 378.735 82.3758V64.125C378.734 64.1139 378.733 64.1028 378.733 64.0917C378.733 64.0805 378.734 64.0694 378.735 64.0584V63.9923H378.744C378.88 63.3872 380.248 62.8768 382.149 62.6584V60.8886L362.08 55.325C361.375 55.1296 360.962 54.4007 361.158 53.6972L361.239 53.4047V41.1954C361.239 41.1725 361.24 41.1498 361.241 41.1272C361.274 40.4269 361.853 39.8693 362.563 39.8693H366.735V37.6462C366.735 36.9914 367.267 36.4606 367.923 36.4606H401.847C402.503 36.4606 403.035 36.9914 403.035 37.6462V39.8693H404.093V0.197266H413.089V88.0588Z" fill="#FF7500"/>
<path d="M413.089 88.0588H404.093V43.9954H403.035V46.2182C403.035 46.873 402.503 47.4041 401.847 47.4041H367.923C367.267 47.404 366.735 46.873 366.735 46.2182V43.9954H365.372V51.9553L385.087 57.4215C385.118 57.4299 385.148 57.4396 385.177 57.4499C385.806 57.5523 386.287 58.0981 386.287 58.7545V62.6593C388.183 62.8782 389.548 63.388 389.683 63.9923H389.696V82.417H389.695C389.68 83.2679 387.232 83.9563 384.214 83.9563C381.187 83.9563 378.733 83.2636 378.733 82.4091C378.733 82.398 378.734 82.3869 378.735 82.3758V64.125C378.734 64.1139 378.733 64.1028 378.733 64.0917C378.733 64.0805 378.734 64.0694 378.735 64.0584V63.9923H378.744C378.88 63.3872 380.248 62.8768 382.149 62.6584V60.8886L362.08 55.325C361.375 55.1296 360.962 54.4007 361.158 53.6972L361.239 53.4047V41.1954C361.239 41.1725 361.24 41.1498 361.241 41.1272C361.274 40.4269 361.853 39.8693 362.563 39.8693H366.735V37.6462C366.735 36.9914 367.267 36.4606 367.923 36.4606H401.847C402.503 36.4606 403.035 36.9914 403.035 37.6462V39.8693H404.093V0.197266H413.089V88.0588Z" fill="url(#paint10_linear_1_3058)"/>
<path d="M413.089 88.0588H404.093V43.9954H403.035V46.2182C403.035 46.873 402.503 47.4041 401.847 47.4041H367.923C367.267 47.404 366.735 46.873 366.735 46.2182V43.9954H365.372V51.9553L385.087 57.4215C385.118 57.4299 385.148 57.4396 385.177 57.4499C385.806 57.5523 386.287 58.0981 386.287 58.7545V62.6593C388.183 62.8782 389.548 63.388 389.683 63.9923H389.696V82.417H389.695C389.68 83.2679 387.232 83.9563 384.214 83.9563C381.187 83.9563 378.733 83.2636 378.733 82.4091C378.733 82.398 378.734 82.3869 378.735 82.3758V64.125C378.734 64.1139 378.733 64.1028 378.733 64.0917C378.733 64.0805 378.734 64.0694 378.735 64.0584V63.9923H378.744C378.88 63.3872 380.248 62.8768 382.149 62.6584V60.8886L362.08 55.325C361.375 55.1296 360.962 54.4007 361.158 53.6972L361.239 53.4047V41.1954C361.239 41.1725 361.24 41.1498 361.241 41.1272C361.274 40.4269 361.853 39.8693 362.563 39.8693H366.735V37.6462C366.735 36.9914 367.267 36.4606 367.923 36.4606H401.847C402.503 36.4606 403.035 36.9914 403.035 37.6462V39.8693H404.093V0.197266H413.089V88.0588Z" fill="url(#paint11_linear_1_3058)"/>
<path d="M425.058 88.0588H416.062V0.197266H425.058V88.0588Z" fill="#FF7500"/>
<path d="M425.058 88.0588H416.062V0.197266H425.058V88.0588Z" fill="url(#paint12_linear_1_3058)"/>
<path d="M425.058 88.0588H416.062V0.197266H425.058V88.0588Z" fill="url(#paint13_linear_1_3058)"/>
<path d="M437.133 88.0588H428.035V0.197266H437.133V88.0588Z" fill="#FF7500"/>
<path d="M437.133 88.0588H428.035V0.197266H437.133V88.0588Z" fill="url(#paint14_linear_1_3058)"/>
<path d="M437.133 88.0588H428.035V0.197266H437.133V88.0588Z" fill="url(#paint15_linear_1_3058)"/>
<path d="M377.408 33.5906H368.412V0.197266H377.408V33.5906Z" fill="#FF7500"/>
<path d="M377.408 33.5906H368.412V0.197266H377.408V33.5906Z" fill="url(#paint16_linear_1_3058)"/>
<path d="M377.408 33.5906H368.412V0.197266H377.408V33.5906Z" fill="url(#paint17_linear_1_3058)"/>
<path d="M389.378 33.5906H380.382V0.197266H389.378V33.5906Z" fill="#FF7500"/>
<path d="M389.378 33.5906H380.382V0.197266H389.378V33.5906Z" fill="url(#paint18_linear_1_3058)"/>
<path d="M389.378 33.5906H380.382V0.197266H389.378V33.5906Z" fill="url(#paint19_linear_1_3058)"/>
<path d="M401.356 0.197266V33.5906H392.359V0.197266H401.356Z" fill="#FF7500"/>
<path d="M401.356 0.197266V33.5906H392.359V0.197266H401.356Z" fill="url(#paint20_linear_1_3058)"/>
<path d="M401.356 0.197266V33.5906H392.359V0.197266H401.356Z" fill="url(#paint21_linear_1_3058)"/>
<path d="M325.564 44.0739C325.564 34.8855 318.118 27.439 308.929 27.439L315.822 20.5465C309.324 14.0484 298.792 14.0484 292.294 20.5465V10.7993C283.106 10.7993 275.659 18.2458 275.659 27.4343L268.767 20.5418C262.269 27.0399 262.269 37.5711 268.767 44.0692H259.02C259.02 53.2577 266.466 60.7042 275.654 60.7042L268.762 67.5967C275.26 74.0948 285.791 74.0948 292.289 67.5967V77.3439C301.478 77.3439 308.924 69.8973 308.924 60.7089L315.817 67.6014C322.315 61.1033 322.315 50.572 315.817 44.0739H325.564ZM292.294 50.0978C288.965 50.0978 286.27 47.3981 286.27 44.0739C286.27 40.7498 288.97 38.0501 292.294 38.0501C295.618 38.0501 298.318 40.7498 298.318 44.0739C298.318 47.3981 295.618 50.0978 292.294 50.0978Z" fill="url(#paint22_linear_1_3058)"/>
<mask id="path-13-inside-1_1_3058" fill="white">
<path d="M296.077 27.3306C300.934 27.3306 304.871 31.268 304.871 36.1245V59.397C304.871 64.2535 300.934 68.1909 296.077 68.1909H51.1074L38.877 77.1118C38.0884 77.687 36.9805 77.124 36.9805 76.1479V36.1245C36.9807 31.268 40.9178 27.3306 45.7744 27.3306H296.077Z"/>
</mask>
<path d="M304.871 36.1245H306.639V36.1244L304.871 36.1245ZM304.871 59.397L306.639 59.397V59.397H304.871ZM51.1074 68.1909V66.4233H50.5313L50.0658 66.7629L51.1074 68.1909ZM38.877 77.1118L37.8353 75.6838L37.8353 75.6838L38.877 77.1118ZM36.9805 76.1479H35.2129V76.1481L36.9805 76.1479ZM36.9805 36.1245L35.2129 36.1244V36.1245H36.9805ZM296.077 27.3306V29.0981C299.957 29.0981 303.103 32.2441 303.104 36.1246L304.871 36.1245L306.639 36.1244C306.638 30.2918 301.91 25.563 296.077 25.563V27.3306ZM304.871 36.1245H303.104V59.397H304.871H306.639V36.1245H304.871ZM304.871 59.397L303.104 59.3969C303.103 63.2774 299.957 66.4233 296.077 66.4233V68.1909V69.9585C301.91 69.9585 306.638 65.2297 306.639 59.397L304.871 59.397ZM296.077 68.1909V66.4233H51.1074V68.1909V69.9585H296.077V68.1909ZM51.1074 68.1909L50.0658 66.7629L37.8353 75.6838L38.877 77.1118L39.9186 78.5399L52.149 69.619L51.1074 68.1909ZM38.877 77.1118L37.8353 75.6838C38.2145 75.4072 38.748 75.6779 38.7481 76.1478L36.9805 76.1479L35.2129 76.1481C35.213 78.5701 37.9623 79.9669 39.9186 78.5399L38.877 77.1118ZM36.9805 76.1479H38.7481V36.1245H36.9805H35.2129V76.1479H36.9805ZM36.9805 36.1245L38.7481 36.1246C38.7482 32.2441 41.8941 29.0981 45.7744 29.0981V27.3306V25.563C39.9416 25.563 35.2131 30.2918 35.2129 36.1244L36.9805 36.1245ZM45.7744 27.3306V29.0981H296.077V27.3306V25.563H45.7744V27.3306Z" fill="white" mask="url(#path-13-inside-1_1_3058)"/>
<path d="M50.251 39.9874H53.5513V46.0159H57.0276V39.9874H60.3278V55.3887H57.0276V49.1401H53.5513V55.3887H50.251V39.9874ZM64.5648 39.9654H69.7132L72.6174 55.3667H69.3392L68.8331 52.3964H65.4448L64.9388 55.3667H61.6605L64.5648 39.9654ZM65.9729 49.4482H68.3051L67.139 42.7376L65.9729 49.4482ZM80.0094 39.9654H85.4218C88.8761 39.9654 90.3062 41.3955 90.3062 44.8058C90.3062 48.2381 88.8541 49.6682 85.4218 49.6682H83.3096V55.3887H80.0094V39.9654ZM83.3096 46.5439H85.0698C86.4779 46.5439 87.006 46.1259 87.006 44.8058C87.006 43.4857 86.4999 43.0896 85.0698 43.0896H83.3096V46.5439ZM91.9987 39.9654H101.525V43.0896H95.2989V46.2139H100.865V49.1621H95.2989V52.2644H101.635V55.3887H91.9987V39.9654ZM103.558 39.9874H108.487L110.511 50.1742L112.557 39.9874H117.485V55.3887H114.273L114.405 43.5077L111.985 55.3887H109.059L106.638 43.5077L106.77 55.3887H103.558V39.9874ZM124.644 42.8696C123.214 42.8696 122.708 43.4637 122.708 45.1358V50.2182C122.708 51.8904 123.214 52.4844 124.644 52.4844H124.688C126.118 52.4844 126.624 51.8904 126.624 50.2182V45.1358C126.624 43.4637 126.118 42.8696 124.688 42.8696H124.644ZM124.644 39.7454H124.688C128.318 39.7454 129.924 41.4175 129.924 45.2018V50.1522C129.924 53.9365 128.318 55.6087 124.688 55.6087H124.644C121.013 55.6087 119.407 53.9365 119.407 50.1522V45.2018C119.407 41.4175 121.013 39.7454 124.644 39.7454ZM131.834 39.9874H135.134V46.0159H138.611V39.9874H141.911V55.3887H138.611V49.1401H135.134V55.3887H131.834V39.9874ZM143.618 39.9654H153.672V43.0896H150.284V55.3667H146.984V43.0896H143.618V39.9654ZM161.206 39.9874H166.112C169.632 39.9874 171.062 41.1535 171.062 44.1677V44.2117C171.062 46.0379 170.534 47.028 169.148 47.446C170.842 47.842 171.503 48.9201 171.503 51.0323V51.0763C171.503 54.0686 169.896 55.3887 166.332 55.3887H161.206V39.9874ZM164.506 49.0521V52.4404H166.332C167.762 52.4404 168.202 52.0884 168.202 50.7683C168.202 49.4262 167.762 49.0521 166.332 49.0521H164.506ZM164.506 42.9356V46.1039H166.2C167.454 46.1039 167.85 45.7519 167.85 44.5198C167.85 43.3097 167.432 42.9356 166.2 42.9356H164.506ZM174.853 39.9654H180.002L182.906 55.3667H179.628L179.122 52.3964H175.733L175.227 55.3667H171.949L174.853 39.9654ZM176.261 49.4482H178.594L177.428 42.7376L176.261 49.4482ZM184.239 39.9654H187.451V52.2644H189.849V39.9654H192.996V52.2644H195.394V39.9654H198.606V55.3887H184.239V39.9654ZM200.848 39.9654H210.374V43.0896H204.148V46.2139H209.714V49.1621H204.148V52.2644H210.484V55.3887H200.848V39.9654ZM212.407 39.9654H221.384V43.0896H215.708V55.3667H212.407V39.9654ZM227.52 42.8696C226.089 42.8696 225.583 43.4637 225.583 45.1358V50.2182C225.583 51.8904 226.089 52.4844 227.52 52.4844H227.564C228.994 52.4844 229.5 51.8904 229.5 50.2182V45.1358C229.5 43.4637 228.994 42.8696 227.564 42.8696H227.52ZM227.52 39.7454H227.564C231.194 39.7454 232.8 41.4175 232.8 45.2018V50.1522C232.8 53.9365 231.194 55.6087 227.564 55.6087H227.52C223.889 55.6087 222.283 53.9365 222.283 50.1522V45.2018C222.283 41.4175 223.889 39.7454 227.52 39.7454ZM241.847 39.9654H250.912V52.2644H252.452V58.4689H249.328V55.3887H242.991V58.4689H239.867V52.2644H240.263C241.363 52.2644 241.495 51.7804 241.605 47.886L241.847 39.9654ZM244.927 43.0896L244.773 48.0401C244.707 50.1082 244.575 51.4503 244.289 52.2644H247.634V43.0896H244.927ZM258.546 42.8696C257.116 42.8696 256.609 43.4637 256.609 45.1358V50.2182C256.609 51.8904 257.116 52.4844 258.546 52.4844H258.59C260.02 52.4844 260.526 51.8904 260.526 50.2182V45.1358C260.526 43.4637 260.02 42.8696 258.59 42.8696H258.546ZM258.546 39.7454H258.59C262.22 39.7454 263.826 41.4175 263.826 45.2018V50.1522C263.826 53.9365 262.22 55.6087 258.59 55.6087H258.546C254.915 55.6087 253.309 53.9365 253.309 50.1522V45.2018C253.309 41.4175 254.915 39.7454 258.546 39.7454ZM265.736 39.9874H270.664L272.689 50.1742L274.735 39.9874H279.663V55.3887H276.451L276.583 43.5077L274.163 55.3887H271.236L268.816 43.5077L268.948 55.3887H265.736V39.9874ZM283.917 39.9654H289.066L291.97 55.3667H288.692L288.186 52.3964H284.797L284.291 55.3667H281.013L283.917 39.9654ZM285.325 49.4482H287.658L286.491 42.7376L285.325 49.4482Z" fill="white"/>
<path d="M524.895 0.197266C500.679 0.197266 481.014 19.8553 481.014 44.0765C505.23 44.0765 524.895 24.4184 524.895 0.197266Z" fill="#FF7500"/>
<path d="M481.014 44.0786C481.014 19.8636 461.355 0.199406 437.133 0.199406C437.133 24.4144 456.792 44.0786 481.014 44.0786Z" fill="#FF7500"/>
<path d="M437.14 87.9507C461.356 87.9507 481.021 68.2927 481.021 44.0715C456.805 44.0715 437.14 63.7295 437.14 87.9507Z" fill="#FF7500"/>
<path d="M481.014 44.0776C481.014 68.2926 500.672 87.9568 524.895 87.9568C524.895 63.7419 505.236 44.0776 481.014 44.0776Z" fill="#FF7500"/>
<path d="M700.406 0.196777C700.406 48.6595 661.119 87.9497 612.657 87.9496L612.657 0.196774L700.406 0.196777Z" fill="url(#paint23_linear_1_3058)"/>
<path d="M677.484 0.197021C677.484 36.0015 648.459 65.0291 612.654 65.0291V0.197021H612.656V44.031C636.864 44.0309 656.488 24.4048 656.488 0.197021L677.484 0.197021Z" fill="#F75614"/>
<path d="M612.645 0.197266V87.9492C588.463 87.949 568.852 68.3882 568.768 44.2266C568.683 68.3884 549.072 87.9502 524.891 87.9502V0.197266H612.645ZM568.768 0.353516C568.684 24.3534 549.334 43.8106 525.376 44.0703H612.159C588.201 43.8105 568.851 24.3533 568.768 0.353516Z" fill="url(#paint24_linear_1_3058)"/>
<path d="M612.645 0.197266V87.9492C588.463 87.949 568.852 68.3882 568.768 44.2266C568.683 68.3884 549.072 87.9502 524.891 87.9502V0.197266H612.645ZM568.768 0.353516C568.684 24.3534 549.334 43.8106 525.376 44.0703H612.159C588.201 43.8105 568.851 24.3533 568.768 0.353516Z" fill="url(#paint25_linear_1_3058)"/>
<rect width="324.153" height="88.055" transform="matrix(-1 0 0 1 700.406 192.48)" fill="url(#paint26_linear_1_3058)"/>
<rect x="288.208" y="192.476" width="88.0555" height="88.0559" fill="#FF7500"/>
<rect x="288.208" y="192.476" width="88.0555" height="88.0559" fill="#0A1E4E"/>
<rect x="288.208" y="192.476" width="88.0555" height="88.0559" fill="url(#paint27_linear_1_3058)"/>
<rect x="288.208" y="192.476" width="88.0555" height="88.0559" fill="url(#paint28_linear_1_3058)"/>
<path d="M344.756 200.95C347.091 200.96 349.144 202.5 349.808 204.738L359.926 238.841C360.933 242.234 358.39 245.641 354.85 245.641H336.511V258.992C342.026 260.804 346.003 265.997 345.994 272.115L318.391 272.07C318.4 265.975 322.375 260.806 327.873 258.996V245.641H309.587C306.049 245.641 303.507 242.238 304.51 238.845L314.628 204.631C315.295 202.373 317.374 200.828 319.729 200.838L344.756 200.95Z" fill="url(#paint29_linear_1_3058)"/>
<path d="M314.507 250.088C316.806 250.088 318.669 251.949 318.669 254.245C318.669 256.541 316.806 258.402 314.507 258.402C312.208 258.402 310.344 256.541 310.344 254.245C310.344 251.949 312.208 250.088 314.507 250.088Z" fill="url(#paint30_linear_1_3058)"/>
<path d="M420.281 192.492C395.981 192.492 376.264 212.222 376.264 236.512C376.264 260.815 395.993 280.532 420.281 280.532L420.281 192.479V192.492Z" fill="url(#paint31_linear_1_3058)"/>
<path d="M464.297 192.492C439.996 192.492 420.28 212.222 420.28 236.512C420.28 260.815 440.009 280.532 464.297 280.532L464.297 192.479V192.492Z" fill="url(#paint32_linear_1_3058)"/>
<path d="M648.045 203.124C652.901 203.124 656.839 207.061 656.839 211.918V254.956C656.839 259.812 652.901 263.749 648.045 263.749H414.903L402.666 272.675C401.877 273.25 400.77 272.687 400.77 271.711V211.918C400.77 207.061 404.707 203.124 409.563 203.124H648.045Z" fill="white"/>
<path d="M418.851 217.144C417.201 217.144 416.606 217.826 416.606 219.784V224.932C416.606 226.89 417.201 227.572 418.851 227.572H418.895C420.545 227.572 421.117 226.89 421.117 224.932V219.784C421.117 217.826 420.545 217.144 418.895 217.144H418.851ZM418.851 214.437H418.895C422.437 214.437 423.977 216.065 423.977 219.828V224.888C423.977 228.628 422.437 230.279 418.895 230.279H418.851C415.308 230.279 413.746 228.628 413.746 224.888V219.828C413.746 216.065 415.308 214.437 418.851 214.437ZM425.958 214.657H435.749V230.059H432.889V217.364H428.818V230.059H425.958V214.657ZM438.979 214.657H447.89V230.059H445.029V217.364H441.663L441.465 224.074C441.311 229.069 440.629 230.169 437.263 230.169H437.109V227.352H437.153C438.407 227.352 438.627 226.736 438.715 223.392L438.979 214.657ZM452.438 214.657H456.773L459.941 230.059H457.081L456.465 226.868H452.724L452.13 230.059H449.27L452.438 214.657ZM453.23 224.272H455.959L454.594 217.166L453.23 224.272ZM459.205 214.657H468.996V217.364H465.542V230.059H462.682V217.364H459.205V214.657ZM470.778 214.657H473.529L473.441 226.296L477.049 214.657H480.789V230.059H478.039L478.127 218.42L474.519 230.059H470.778V214.657ZM482.518 214.657H492.309V217.364H488.854V230.059H485.994V217.364H482.518V214.657ZM494.113 214.657H503.354V217.364H496.973V221.06H502.694V223.656H496.973V227.352H503.464V230.059H494.113V214.657ZM515.063 217.364L514.887 223.084C514.82 225.218 514.688 226.56 514.38 227.352H518.275V217.364H515.063ZM512.378 214.657H521.113V227.352H522.653V233.139H519.947V230.059H513.104V233.139H510.398V227.352H510.816C511.872 227.352 512.026 226.802 512.136 222.93L512.378 214.657ZM528.645 217.144C526.995 217.144 526.401 217.826 526.401 219.784V224.932C526.401 226.89 526.995 227.572 528.645 227.572H528.689C530.339 227.572 530.911 226.89 530.911 224.932V219.784C530.911 217.826 530.339 217.144 528.689 217.144H528.645ZM528.645 214.437H528.689C532.231 214.437 533.771 216.065 533.771 219.828V224.888C533.771 228.628 532.231 230.279 528.689 230.279H528.645C525.103 230.279 523.541 228.628 523.541 224.888V219.828C523.541 216.065 525.103 214.437 528.645 214.437ZM546.479 214.437H546.523C549.867 214.437 551.143 215.735 551.143 218.794C551.143 221.17 550.373 222.534 548.371 223.59L545.929 224.866C544.565 225.592 544.147 226.12 544.081 227.462H551.143V230.059H541.353V228.672C541.353 225.372 542.079 223.92 544.345 222.754L546.919 221.39C548.019 220.818 548.437 220.114 548.437 218.904C548.437 217.562 547.909 217.033 546.523 217.033H546.479C544.895 217.033 544.433 217.716 544.433 219.938L541.793 219.872C541.793 215.867 543.025 214.437 546.479 214.437ZM557.668 217.033C556.062 217.033 555.49 217.76 555.49 219.828V224.888C555.49 226.956 556.062 227.682 557.668 227.682H557.712C559.318 227.682 559.868 226.956 559.868 224.888V219.828C559.868 217.76 559.318 217.033 557.712 217.033H557.668ZM557.668 214.437H557.712C561.1 214.437 562.574 216.065 562.574 219.828V224.888C562.574 228.628 561.1 230.279 557.712 230.279H557.668C554.279 230.279 552.783 228.628 552.783 224.888V219.828C552.783 216.065 554.279 214.437 557.668 214.437ZM574.071 214.657H575.897L567.008 230.059H565.182L574.071 214.657ZM574.511 222.226H574.533C576.293 222.226 577.085 223.062 577.085 224.976V227.418C577.085 229.311 576.293 230.169 574.533 230.169H574.511C572.751 230.169 571.959 229.311 571.959 227.418V224.976C571.959 223.062 572.751 222.226 574.511 222.226ZM566.766 214.525H566.788C568.548 214.525 569.34 215.361 569.34 217.276V219.718C569.34 221.61 568.548 222.468 566.788 222.468H566.766C565.006 222.468 564.214 221.61 564.214 219.718V217.276C564.214 215.361 565.006 214.525 566.766 214.525ZM574.511 223.876C573.873 223.876 573.675 224.162 573.675 224.976V227.418C573.675 228.232 573.873 228.518 574.511 228.518H574.533C575.171 228.518 575.369 228.232 575.369 227.418V224.976C575.369 224.162 575.171 223.876 574.533 223.876H574.511ZM566.766 216.175C566.128 216.175 565.93 216.461 565.93 217.276V219.718C565.93 220.532 566.128 220.818 566.766 220.818H566.788C567.426 220.818 567.624 220.532 567.624 219.718V217.276C567.624 216.461 567.426 216.175 566.788 216.175H566.766ZM418.851 239.144C417.201 239.144 416.606 239.826 416.606 241.784V246.932C416.606 248.89 417.201 249.572 418.851 249.572H418.895C420.545 249.572 421.117 248.89 421.117 246.932V241.784C421.117 239.826 420.545 239.144 418.895 239.144H418.851ZM418.851 236.437H418.895C422.437 236.437 423.977 238.065 423.977 241.828V246.888C423.977 250.628 422.437 252.279 418.895 252.279H418.851C415.308 252.279 413.746 250.628 413.746 246.888V241.828C413.746 238.065 415.308 236.437 418.851 236.437ZM424.827 236.657H434.618V239.364H431.164V252.059H428.304V239.364H424.827V236.657ZM446.89 236.437H446.934C450.542 236.437 451.929 238.021 451.929 242.202L449.156 242.268C449.156 239.848 448.65 239.144 446.934 239.144H446.89C445.24 239.144 444.668 239.826 444.668 241.806V246.91C444.668 248.89 445.24 249.572 446.89 249.572H446.934C448.716 249.572 449.178 248.868 449.178 246.228L452.039 246.294C452.039 250.65 450.652 252.279 446.934 252.279H446.89C443.348 252.279 441.808 250.628 441.808 246.888V241.828C441.808 238.065 443.348 236.437 446.89 236.437ZM452.652 236.657H462.443V239.364H458.989V252.059H456.128V239.364H452.652V236.657ZM468.484 239.144C466.834 239.144 466.24 239.826 466.24 241.784V246.932C466.24 248.89 466.834 249.572 468.484 249.572H468.528C470.178 249.572 470.75 248.89 470.75 246.932V241.784C470.75 239.826 470.178 239.144 468.528 239.144H468.484ZM468.484 236.437H468.528C472.07 236.437 473.61 238.065 473.61 241.828V246.888C473.61 250.628 472.07 252.279 468.528 252.279H468.484C464.941 252.279 463.379 250.628 463.379 246.888V241.828C463.379 238.065 464.941 236.437 468.484 236.437ZM475.591 236.657H478.341L478.253 248.296L481.862 236.657H485.602V252.059H482.852L482.94 240.42L479.332 252.059H475.591V236.657ZM487.903 236.657H492.259L494.679 247.548L497.078 236.657H501.434V252.059H498.618L498.706 239.65L495.933 252.059H493.403L490.631 239.65L490.719 252.059H487.903V236.657ZM508.512 239.144C506.862 239.144 506.268 239.826 506.268 241.784V246.932C506.268 248.89 506.862 249.572 508.512 249.572H508.557C510.207 249.572 510.779 248.89 510.779 246.932V241.784C510.779 239.826 510.207 239.144 508.557 239.144H508.512ZM508.512 236.437H508.557C512.099 236.437 513.639 238.065 513.639 241.828V246.888C513.639 250.628 512.099 252.279 508.557 252.279H508.512C504.97 252.279 503.408 250.628 503.408 246.888V241.828C503.408 238.065 504.97 236.437 508.512 236.437ZM520.394 236.437H520.438C524.047 236.437 525.433 238.021 525.433 242.202L522.661 242.268C522.661 239.848 522.155 239.144 520.438 239.144H520.394C518.744 239.144 518.172 239.826 518.172 241.806V246.91C518.172 248.89 518.744 249.572 520.394 249.572H520.438C522.221 249.572 522.683 248.868 522.683 246.228L525.543 246.294C525.543 250.65 524.157 252.279 520.438 252.279H520.394C516.852 252.279 515.312 250.628 515.312 246.888V241.828C515.312 238.065 516.852 236.437 520.394 236.437ZM526.156 236.657H535.947V239.364H532.493V252.059H529.633V239.364H526.156V236.657ZM537.729 236.657H540.479L540.391 248.296L544 236.657H547.74V252.059H544.99L545.078 240.42L541.47 252.059H537.729V236.657ZM555.971 236.657H565.762V252.059H562.902V239.364H558.831V252.059H555.971V236.657ZM572.842 239.144C571.192 239.144 570.598 239.826 570.598 241.784V246.932C570.598 248.89 571.192 249.572 572.842 249.572H572.886C574.536 249.572 575.108 248.89 575.108 246.932V241.784C575.108 239.826 574.536 239.144 572.886 239.144H572.842ZM572.842 236.437H572.886C576.428 236.437 577.969 238.065 577.969 241.828V246.888C577.969 250.628 576.428 252.279 572.886 252.279H572.842C569.3 252.279 567.738 250.628 567.738 246.888V241.828C567.738 238.065 569.3 236.437 572.842 236.437ZM579.972 236.635H582.832V242.884H584.218L586.902 236.635H589.872L586.616 244.116L590.312 252.037H587.188L584.218 245.59H582.832V252.037H579.972V236.635ZM590.628 236.657H593.62L596.172 243.676L598.262 236.657H601.188L597.338 248.582C596.392 251.487 595.732 252.059 593.29 252.059H592.784V249.462H592.96C593.928 249.462 594.236 249.22 594.588 248.142L594.808 247.438L590.628 236.657ZM602.575 236.657H612.365V252.059H609.505V239.364H605.435V252.059H602.575V236.657ZM614.693 236.635H617.554V242.884H618.94L621.624 236.635H624.594L621.338 244.116L625.034 252.037H621.91L618.94 245.59H617.554V252.037H614.693V236.635ZM626.403 236.657H629.153L629.065 248.296L632.673 236.657H636.414V252.059H633.663L633.751 240.42L630.143 252.059H626.403V236.657Z" fill="#0A1E4E"/>
<path d="M35.927 236.847H39.3593L41.6035 243.316L43.4517 236.847H46.818L43.0997 248.706C42.1536 251.654 41.4495 252.249 38.7873 252.249H38.1052V249.3H38.3473C39.2933 249.3 39.6234 249.102 39.8874 248.266L40.0634 247.738L35.927 236.847ZM52.3282 236.605H52.3722C56.0905 236.605 57.4987 238.233 57.4987 242.436L54.2864 242.502C54.2864 240.39 53.8464 239.729 52.3722 239.729H52.3282C50.8981 239.729 50.3921 240.324 50.3921 242.018V247.034C50.3921 248.75 50.9201 249.344 52.3282 249.344H52.3722C53.9124 249.344 54.3084 248.728 54.3084 246.352L57.6087 246.418C57.6087 250.818 56.1786 252.469 52.3722 252.469H52.3282C48.6979 252.469 47.0918 250.796 47.0918 247.012V242.062C47.0918 238.255 48.6979 236.605 52.3282 236.605ZM59.3037 236.825H69.3805V252.227H66.0802V239.949H62.604V252.227H59.3037V236.825ZM71.6153 236.825H81.1421V239.949H74.9155V243.074H80.482V246.022H74.9155V249.124H81.2521V252.249H71.6153V236.825ZM83.1968 236.847H86.3211L86.1891 247.87L89.2913 236.847H93.4717V252.249H90.3474L90.4794 241.204L87.3772 252.249H83.1968V236.847ZM84.2529 232.711L86.9151 232.491C86.9151 233.283 87.2012 233.503 88.3453 233.503H88.5433C89.6654 233.503 89.9514 233.283 89.9514 232.491L92.6136 232.711C92.4596 235.153 91.5575 235.879 88.6973 235.879H88.1912C85.331 235.879 84.4069 235.153 84.2529 232.711ZM95.1947 236.825H105.25V239.949H101.861V252.227H98.561V239.949H95.1947V236.825ZM106.939 236.825H116.465V239.949H110.239V243.074H115.805V246.022H110.239V249.124H116.575V252.249H106.939V236.825ZM129.244 236.605H129.288C132.676 236.605 134.304 238.013 134.304 240.896C134.304 242.744 133.644 243.866 132.236 244.306C133.798 244.746 134.524 245.912 134.524 247.914C134.524 250.994 132.852 252.469 129.288 252.469H129.244C125.371 252.469 124.007 250.994 124.007 246.88L127.219 246.814C127.219 248.728 127.725 249.344 129.266 249.344H129.288C130.674 249.344 131.224 248.838 131.224 247.584C131.224 246.286 130.696 245.846 129.134 245.846H127.681V243.052H129.134C130.52 243.052 131.004 242.612 131.004 241.424C131.004 240.236 130.498 239.729 129.288 239.729H129.266C127.923 239.729 127.439 240.346 127.439 242.062L124.227 241.996C124.227 238.123 125.635 236.605 129.244 236.605ZM137.883 236.825H143.031L145.935 252.227H142.657L142.151 249.256H138.763L138.257 252.227H134.978L137.883 236.825ZM139.291 246.308H141.623L140.457 239.597L139.291 246.308ZM147.268 236.825H156.465V239.949H150.568V242.986H152.703C156.135 242.986 157.565 244.328 157.565 247.584C157.565 250.884 156.113 252.249 152.703 252.249H147.268V236.825ZM150.568 245.934V249.124H152.395C153.803 249.124 154.265 248.772 154.265 247.496C154.265 246.264 153.825 245.934 152.395 245.934H150.568ZM159.15 236.825H164.562C168.017 236.825 169.447 238.255 169.447 241.666C169.447 245.098 167.995 246.528 164.562 246.528H162.45V252.249H159.15V236.825ZM162.45 243.404H164.21C165.619 243.404 166.147 242.986 166.147 241.666C166.147 240.346 165.641 239.949 164.21 239.949H162.45V243.404ZM172.153 236.825H177.302L180.206 252.227H176.927L176.421 249.256H173.033L172.527 252.227H169.249L172.153 236.825ZM173.561 246.308H175.893L174.727 239.597L173.561 246.308ZM179.571 236.825H189.626V239.949H186.238V252.227H182.937V239.949H179.571V236.825ZM191.315 236.825H194.615V242.546H196.749C200.182 242.546 201.612 243.976 201.612 247.386C201.612 250.818 200.16 252.249 196.749 252.249H191.315V236.825ZM194.615 245.67V249.124H196.441C197.849 249.124 198.311 248.75 198.311 247.386C198.311 246.044 197.849 245.67 196.441 245.67H194.615ZM209.256 236.847H214.162C217.682 236.847 219.113 238.013 219.113 241.028V241.072C219.113 242.898 218.585 243.888 217.198 244.306C218.893 244.702 219.553 245.78 219.553 247.892V247.936C219.553 250.928 217.946 252.249 214.382 252.249H209.256V236.847ZM212.556 245.912V249.3H214.382C215.812 249.3 216.252 248.948 216.252 247.628C216.252 246.286 215.812 245.912 214.382 245.912H212.556ZM212.556 239.795V242.964H214.25C215.504 242.964 215.9 242.612 215.9 241.38C215.9 240.17 215.482 239.795 214.25 239.795H212.556ZM227.197 236.847H232.125L234.149 247.034L236.195 236.847H241.124V252.249H237.912L238.044 240.368L235.623 252.249H232.697L230.277 240.368L230.409 252.249H227.197V236.847ZM245.378 236.825H250.526L253.431 252.227H250.152L249.646 249.256H246.258L245.752 252.227H242.474L245.378 236.825ZM246.786 246.308H249.118L247.952 239.597L246.786 246.308ZM254.763 236.825H263.74V239.949H258.064V252.227H254.763V236.825ZM265.983 236.825H271.132L274.036 252.227H270.758L270.252 249.256H266.863L266.357 252.227H263.079L265.983 236.825ZM267.391 246.308H269.724L268.557 239.597L267.391 246.308ZM279.819 236.605H279.863C283.251 236.605 284.879 238.013 284.879 240.896C284.879 242.744 284.219 243.866 282.811 244.306C284.373 244.746 285.099 245.912 285.099 247.914C285.099 250.994 283.427 252.469 279.863 252.469H279.819C275.946 252.469 274.582 250.994 274.582 246.88L277.795 246.814C277.795 248.728 278.301 249.344 279.841 249.344H279.863C281.249 249.344 281.799 248.838 281.799 247.584C281.799 246.286 281.271 245.846 279.709 245.846H278.257V243.052H279.709C281.095 243.052 281.579 242.612 281.579 241.424C281.579 240.236 281.073 239.729 279.863 239.729H279.841C278.499 239.729 278.015 240.346 278.015 242.062L274.802 241.996C274.802 238.123 276.21 236.605 279.819 236.605ZM286.714 236.847H289.838L289.706 247.87L292.808 236.847H296.989V252.249H293.865L293.997 241.204L290.894 252.249H286.714V236.847ZM299.24 236.847H302.54V242.876H306.016V236.847H309.317V252.249H306.016V246H302.54V252.249H299.24V236.847ZM311.551 236.825H321.078V239.949H314.852V243.074H320.418V246.022H314.852V249.124H321.188V252.249H311.551V236.825Z" fill="white"/>
</g>
<defs>
<linearGradient id="paint0_linear_1_3058" x1="914.48" y1="376.222" x2="635.139" y2="675.38" gradientUnits="userSpaceOnUse">
<stop stop-color="#FF7500"/>
<stop offset="1" stop-color="#E91A3E"/>
</linearGradient>
<linearGradient id="paint1_linear_1_3058" x1="2.97341" y1="222.383" x2="155.613" y2="587.189" gradientUnits="userSpaceOnUse">
<stop stop-color="#FFC400"/>
<stop offset="1" stop-color="#FF7500"/>
</linearGradient>
<linearGradient id="paint2_linear_1_3058" x1="14.2952" y1="246.082" x2="107.418" y2="199.83" gradientUnits="userSpaceOnUse">
<stop offset="0.325254" stop-color="#FF7500"/>
<stop offset="1" stop-color="#FF4000"/>
</linearGradient>
<linearGradient id="paint3_linear_1_3058" x1="243.366" y1="178.568" x2="239.548" y2="193.937" gradientUnits="userSpaceOnUse">
<stop stop-color="#FF7500"/>
<stop offset="1" stop-color="#FF4000"/>
</linearGradient>
<linearGradient id="paint4_linear_1_3058" x1="240.57" y1="179.664" x2="207.099" y2="193.669" gradientUnits="userSpaceOnUse">
<stop stop-color="#FFC400"/>
<stop offset="1" stop-color="#FF7500"/>
</linearGradient>
<linearGradient id="paint5_linear_1_3058" x1="198.866" y1="178.568" x2="195.048" y2="193.937" gradientUnits="userSpaceOnUse">
<stop stop-color="#FF7500"/>
<stop offset="1" stop-color="#FF4000"/>
</linearGradient>
<linearGradient id="paint6_linear_1_3058" x1="196.07" y1="179.664" x2="162.599" y2="193.669" gradientUnits="userSpaceOnUse">
<stop stop-color="#FFC400"/>
<stop offset="1" stop-color="#FF7500"/>
</linearGradient>
<linearGradient id="paint7_linear_1_3058" x1="154.366" y1="178.568" x2="150.548" y2="193.937" gradientUnits="userSpaceOnUse">
<stop stop-color="#FF7500"/>
<stop offset="1" stop-color="#FF4000"/>
</linearGradient>
<linearGradient id="paint8_linear_1_3058" x1="151.57" y1="179.664" x2="118.099" y2="193.669" gradientUnits="userSpaceOnUse">
<stop stop-color="#FFC400"/>
<stop offset="1" stop-color="#FF7500"/>
</linearGradient>
<linearGradient id="paint9_linear_1_3058" x1="474.884" y1="87.7594" x2="407.555" y2="222.68" gradientUnits="userSpaceOnUse">
<stop stop-color="#E91A3E"/>
<stop offset="1" stop-color="#FF7500"/>
</linearGradient>
<linearGradient id="paint10_linear_1_3058" x1="437.133" y1="2.93608" x2="424.315" y2="47.5812" gradientUnits="userSpaceOnUse">
<stop stop-color="#FF7500"/>
<stop offset="1" stop-color="#FF4000"/>
</linearGradient>
<linearGradient id="paint11_linear_1_3058" x1="429.968" y1="6.18341" x2="340.86" y2="38.4438" gradientUnits="userSpaceOnUse">
<stop stop-color="#FFC400"/>
<stop offset="1" stop-color="#FF7500"/>
</linearGradient>
<linearGradient id="paint12_linear_1_3058" x1="437.133" y1="2.93608" x2="424.315" y2="47.5812" gradientUnits="userSpaceOnUse">
<stop stop-color="#FF7500"/>
<stop offset="1" stop-color="#FF4000"/>
</linearGradient>
<linearGradient id="paint13_linear_1_3058" x1="429.968" y1="6.18341" x2="340.86" y2="38.4438" gradientUnits="userSpaceOnUse">
<stop stop-color="#FFC400"/>
<stop offset="1" stop-color="#FF7500"/>
</linearGradient>
<linearGradient id="paint14_linear_1_3058" x1="437.133" y1="2.93608" x2="424.315" y2="47.5812" gradientUnits="userSpaceOnUse">
<stop stop-color="#FF7500"/>
<stop offset="1" stop-color="#FF4000"/>
</linearGradient>
<linearGradient id="paint15_linear_1_3058" x1="429.968" y1="6.18341" x2="340.86" y2="38.4438" gradientUnits="userSpaceOnUse">
<stop stop-color="#FFC400"/>
<stop offset="1" stop-color="#FF7500"/>
</linearGradient>
<linearGradient id="paint16_linear_1_3058" x1="437.133" y1="2.93608" x2="424.315" y2="47.5812" gradientUnits="userSpaceOnUse">
<stop stop-color="#FF7500"/>
<stop offset="1" stop-color="#FF4000"/>
</linearGradient>
<linearGradient id="paint17_linear_1_3058" x1="429.968" y1="6.18341" x2="340.86" y2="38.4438" gradientUnits="userSpaceOnUse">
<stop stop-color="#FFC400"/>
<stop offset="1" stop-color="#FF7500"/>
</linearGradient>
<linearGradient id="paint18_linear_1_3058" x1="437.133" y1="2.93608" x2="424.315" y2="47.5812" gradientUnits="userSpaceOnUse">
<stop stop-color="#FF7500"/>
<stop offset="1" stop-color="#FF4000"/>
</linearGradient>
<linearGradient id="paint19_linear_1_3058" x1="429.968" y1="6.18341" x2="340.86" y2="38.4438" gradientUnits="userSpaceOnUse">
<stop stop-color="#FFC400"/>
<stop offset="1" stop-color="#FF7500"/>
</linearGradient>
<linearGradient id="paint20_linear_1_3058" x1="437.133" y1="2.93608" x2="424.315" y2="47.5812" gradientUnits="userSpaceOnUse">
<stop stop-color="#FF7500"/>
<stop offset="1" stop-color="#FF4000"/>
</linearGradient>
<linearGradient id="paint21_linear_1_3058" x1="429.968" y1="6.18341" x2="340.86" y2="38.4438" gradientUnits="userSpaceOnUse">
<stop stop-color="#FFC400"/>
<stop offset="1" stop-color="#FF7500"/>
</linearGradient>
<linearGradient id="paint22_linear_1_3058" x1="243.844" y1="133.285" x2="212.692" y2="65.3685" gradientUnits="userSpaceOnUse">
<stop stop-color="#E91A3E"/>
<stop offset="1" stop-color="#FF7500"/>
</linearGradient>
<linearGradient id="paint23_linear_1_3058" x1="619.053" y1="10.1936" x2="696.122" y2="101.172" gradientUnits="userSpaceOnUse">
<stop stop-color="#FF6416"/>
<stop offset="1" stop-color="#FDAC1F"/>
</linearGradient>
<linearGradient id="paint24_linear_1_3058" x1="534.888" y1="81.5532" x2="629.153" y2="-23.2519" gradientUnits="userSpaceOnUse">
<stop stop-color="#FF6416"/>
<stop offset="1" stop-color="#FDAC1F"/>
</linearGradient>
<linearGradient id="paint25_linear_1_3058" x1="604.374" y1="6.17601" x2="505.369" y2="47.601" gradientUnits="userSpaceOnUse">
<stop stop-color="#FFC400"/>
<stop offset="1" stop-color="#FF7500"/>
</linearGradient>
<linearGradient id="paint26_linear_1_3058" x1="436.295" y1="88.055" x2="365.247" y2="218.421" gradientUnits="userSpaceOnUse">
<stop stop-color="#E91A3E"/>
<stop offset="1" stop-color="#FF7500"/>
</linearGradient>
<linearGradient id="paint27_linear_1_3058" x1="367.964" y1="198.475" x2="268.618" y2="240.042" gradientUnits="userSpaceOnUse">
<stop stop-color="#FFC400"/>
<stop offset="1" stop-color="#FF7500"/>
</linearGradient>
<linearGradient id="paint28_linear_1_3058" x1="361.51" y1="201.558" x2="374.106" y2="226.918" gradientUnits="userSpaceOnUse">
<stop offset="0.325254" stop-color="#FF7500"/>
<stop offset="1" stop-color="#FF4000"/>
</linearGradient>
<linearGradient id="paint29_linear_1_3058" x1="354.884" y1="205.694" x2="288.019" y2="227.619" gradientUnits="userSpaceOnUse">
<stop stop-color="#FFC400"/>
<stop offset="1" stop-color="#FF7500"/>
</linearGradient>
<linearGradient id="paint30_linear_1_3058" x1="354.884" y1="205.694" x2="288.019" y2="227.619" gradientUnits="userSpaceOnUse">
<stop stop-color="#FFC400"/>
<stop offset="1" stop-color="#FF7500"/>
</linearGradient>
<linearGradient id="paint31_linear_1_3058" x1="350.101" y1="45.4076" x2="271.674" y2="100.583" gradientUnits="userSpaceOnUse">
<stop stop-color="#E91A3E"/>
<stop offset="1" stop-color="#FF7500"/>
</linearGradient>
<linearGradient id="paint32_linear_1_3058" x1="394.116" y1="45.4076" x2="315.689" y2="100.583" gradientUnits="userSpaceOnUse">
<stop stop-color="#E91A3E"/>
<stop offset="1" stop-color="#FF7500"/>
</linearGradient>
<clipPath id="clip0_1_3058">
<rect width="700.406" height="281.073" fill="white"/>
</clipPath>
</defs>
</svg>
