<svg width="330" height="111" viewBox="0 0 330 111" fill="none" xmlns="http://www.w3.org/2000/svg">
<g clip-path="url(#clip0_1_3855)">
<rect width="330" height="111" fill="#FF7500"/>
<rect x="-58.8843" y="112.941" width="115.941" height="206.946" transform="rotate(-90 -58.8843 112.941)" fill="#EFEFEF"/>
<path d="M53 142L53 -32L82 -32C130.049 -32 169 6.95121 169 55C169 103.049 130.049 142 82 142L53 142Z" fill="#EFEFEF"/>
<path fill-rule="evenodd" clip-rule="evenodd" d="M82.4683 55.0565C86.8775 53.2274 86.7221 44.8008 79.7581 44.8008L55.0124 44.8063L54.8169 47.9232C54.8169 47.9232 58.4905 49.7992 59.0357 50.0733C59.0007 50.744 58.5708 58.8773 58.5423 59.4062C58.1202 59.6775 54.1241 62.2945 54.1241 62.2945L53.9351 65.6166H78.7325C86.4968 65.6166 87.3061 57.0013 82.4683 55.0579V55.0565ZM72.2023 59.9461H69.3522C69.3872 59.2698 69.4778 57.5344 69.5102 56.9201H72.4134C74.3596 56.9201 74.2237 59.942 72.2036 59.9461H72.2023ZM72.5817 52.4327C72.5817 52.4327 69.8689 52.4313 69.7303 52.4313C69.7614 51.7826 69.8326 50.295 69.8611 49.7C69.8948 49.7 72.7138 49.7 72.7138 49.7C74.5254 49.7 74.5357 52.434 72.5817 52.434V52.4327Z" fill="#545353"/>
<path fill-rule="evenodd" clip-rule="evenodd" d="M45.3659 44.4902H34.4434C28.8675 44.4902 26.0783 49.2531 25.8504 52.8562C25.8504 52.8714 25.6613 55.9814 25.6613 55.9814C25.2431 59.5984 28.0997 65.7716 33.5318 65.7716H44.365C49.6132 65.7964 52.9774 62.4109 53.4656 56.4828L53.6624 53.4072C53.88 50.2007 52.2704 44.4916 45.3659 44.4916V44.4902ZM41.3958 58.2155C41.3543 59.2692 40.7561 60.3834 39.6593 60.4H38.5612C37.6677 60.3862 37.2909 59.6163 37.3414 58.2678C37.3414 58.2761 37.7182 51.2778 37.7182 51.2778C37.748 50.1966 38.5068 49.187 39.32 49.187H40.4077C41.2999 49.1815 41.8451 49.9611 41.8451 51.1538L41.3945 58.2155H41.3958Z" fill="#545353"/>
<path d="M88.0002 45.0756L87.806 48.1788C87.806 48.1788 92.219 50.6222 92.7538 50.9128C92.7176 51.5533 92.333 58.5171 92.3032 59.0667C91.8396 59.3325 87.1922 62.0362 87.1922 62.0362L87.0459 65.3336H108.355L108.545 62.1423C108.545 62.1423 104.438 59.2609 103.987 58.951C104.014 58.3808 104.342 51.4017 104.37 50.8191C104.864 50.5629 109.311 48.2091 109.311 48.2091L109.456 45.0742H88.0002V45.0756Z" fill="#545353"/>
<path d="M107.908 58.7258L107.546 57.8182H107.239V58.7258H107.04V56.7852H107.51C107.811 56.7852 108.051 56.8265 108.051 57.2094V57.3485C108.051 57.5785 107.958 57.7231 107.756 57.7824L108.13 58.7245H107.906L107.908 58.7258ZM107.851 57.2342C107.851 56.938 107.662 56.967 107.448 56.967H107.239V57.6308H107.441C107.658 57.6308 107.849 57.657 107.849 57.3347V57.2355L107.851 57.2342Z" fill="#545353"/>
<path d="M108.981 57.741C108.981 58.6046 108.324 59.3029 107.512 59.3029C106.7 59.3029 106.042 58.6032 106.042 57.741C106.042 56.8788 106.7 56.1777 107.512 56.1777C108.324 56.1777 108.981 56.8774 108.981 57.741Z" stroke="#545353" stroke-width="0.203919"/>
<path d="M108.498 46.0488C108.476 46.535 108.441 47.2912 108.427 47.5942C108.046 47.7925 103.414 50.2043 103.414 50.2043L102.978 59.4656C102.978 59.4656 107.251 62.4089 107.603 62.6527C107.584 62.9709 107.529 63.8937 107.501 64.3689H88.002C88.0253 63.8552 88.0654 62.9406 88.0783 62.6348C88.4383 62.4282 93.2567 59.6694 93.2567 59.6694L93.7721 50.3434C93.7721 50.3434 89.1725 47.8394 88.7556 47.6121C88.7763 47.276 88.8242 46.5006 88.8527 46.0516H108.496L108.498 46.0488Z" fill="#FF7E21"/>
<path fill-rule="evenodd" clip-rule="evenodd" d="M81.3081 55.5115L80.1012 55.1713L81.2744 54.7182C86.1148 52.8932 85.6059 45.7695 79.7723 45.7695C79.7723 45.7695 56.5741 45.775 55.8645 45.775C55.836 46.2213 55.7894 46.9816 55.7673 47.3259C56.1973 47.5408 60.0535 49.4718 60.0535 49.4718L59.4993 59.9686C59.4993 59.9686 55.3284 62.6489 55.0046 62.8569C54.9878 63.1461 54.9334 64.1144 54.9023 64.6433H78.7312C85.3832 64.6433 86.5305 56.9963 81.3068 55.5101L81.3081 55.5115ZM72.2049 60.8473H68.4574L68.7086 56.0197H72.4121C75.4965 56.0197 75.3425 60.8391 72.2049 60.8473ZM72.6219 53.3325L68.8394 53.3298L69.0544 48.7956H72.6503C75.7866 48.7956 75.5108 53.3325 72.6206 53.3325H72.6219Z" fill="#FF7E21"/>
<path fill-rule="evenodd" clip-rule="evenodd" d="M45.3631 45.4629H34.4431C30.2735 45.4629 27.2149 48.471 26.8329 52.9364C26.8329 52.9364 26.6452 56.0464 26.6452 56.0533C26.2735 59.7997 28.9877 64.805 33.5315 64.805H44.366C50.825 64.8366 52.2235 59.5531 52.4825 56.4004C52.4825 56.4004 52.678 53.3454 52.678 53.3482C52.9137 50.4434 51.5747 45.4629 45.3644 45.4629H45.3631ZM42.7266 51.2822C42.7266 51.2822 42.276 58.2777 42.2773 58.2695C42.21 59.9774 41.0899 61.2817 39.6655 61.3038H38.5544C37.0575 61.2803 36.3945 59.9209 36.458 58.2281C36.458 58.2281 36.8348 51.2298 36.8348 51.2422C36.8775 49.6707 38.0391 48.2906 39.3197 48.2906H40.4049C41.6052 48.2851 42.7771 49.3236 42.7266 51.2657V51.2822Z" fill="#FF7E21"/>
<path d="M289.945 69.2124H291.394V74.863H289.945V72.6627H287.417V74.863H285.968V69.2124H287.417V71.2959H289.945V69.2124ZM292.078 70.6124H293.882V74.863H295.33V70.6124H297.11V69.2124H292.076V70.6144L292.078 70.6124ZM304.142 73.6344V74.8357C303.893 74.9604 303.585 75.0227 303.224 75.0227C302.472 75.0227 302.092 74.6917 301.941 74.162L301.917 74.1971C301.479 74.7501 300.872 75.0227 300.087 75.0227C299.302 75.0227 298.695 74.7403 298.156 74.164C297.626 73.5876 297.357 72.875 297.357 72.0397C297.357 71.2043 297.628 70.5014 298.156 69.927C298.695 69.3507 299.335 69.0566 300.087 69.0566C300.839 69.0566 301.425 69.3059 301.859 69.8102V69.2144H303.308V73.2118C303.308 73.5526 303.463 73.7298 303.771 73.7298C303.917 73.7298 304.037 73.6986 304.142 73.6363M301.916 72.0377C301.916 71.5743 301.768 71.1907 301.468 70.8967C301.175 70.591 300.804 70.443 300.355 70.443C299.905 70.443 299.534 70.591 299.243 70.8967C298.951 71.1888 298.805 71.5743 298.805 72.0377C298.805 72.5011 298.951 72.8847 299.243 73.1924C299.534 73.4844 299.907 73.6324 300.355 73.6324C300.802 73.6324 301.175 73.4844 301.468 73.1924C301.77 72.8867 301.916 72.5031 301.916 72.0377ZM274.031 69.2124L273.986 71.3348C273.977 72.1935 273.946 72.6199 273.824 73.1067C273.711 73.5721 273.494 73.7025 273.155 73.7025C273.042 73.7025 272.939 73.6928 272.856 73.6616V74.863C272.968 74.9253 273.155 74.9565 273.401 74.9565C274.421 74.9253 274.913 74.4424 275.16 73.5721C275.334 72.9509 275.365 72.4739 275.396 71.7612L275.429 70.6163H277.229V74.8669H278.677V69.2163H274.027L274.031 69.2124ZM281.008 72.4193C281.163 73.3832 281.925 73.7006 282.697 73.7006C283.207 73.7006 283.744 73.4981 284.074 73.2002L284.968 74.1056C284.432 74.6994 283.69 75.0246 282.676 75.0246C281.254 75.0246 279.538 74.1796 279.538 72.0397C279.538 69.8998 281.19 69.0566 282.592 69.0566C284.367 69.0566 285.101 69.8939 285.101 70.8363C285.101 72.3746 283.158 73.0833 281.012 72.4213L281.008 72.4193ZM283.525 70.9979C283.525 70.5598 283.094 70.3632 282.61 70.3632C281.871 70.3632 281.233 70.6767 281.039 71.4828C282.544 71.9189 283.525 71.5918 283.525 70.996V70.9979Z" fill="white"/>
<path d="M256.939 75.9418C254.269 69.6954 248.056 65.3143 240.819 65.3143C243.487 71.5627 249.702 75.9457 256.941 75.9457C262.26 75.9457 266.836 72.7952 268.903 68.2604C263.584 68.2604 259.006 71.4108 256.941 75.9438L256.939 75.9418Z" fill="white"/>
<path d="M256.952 40.9353C249.688 40.9353 243.905 46.6404 243.905 54.0357C243.905 61.4309 249.688 67.136 256.952 67.136C264.216 67.136 270.05 61.4289 270.05 54.0357C270.05 46.6424 264.216 40.9353 256.952 40.9353ZM256.952 60.8837C253.192 60.8837 250.277 58.0565 250.277 54.0337C250.277 50.0109 253.145 47.1837 256.952 47.1837C260.758 47.1837 263.675 50.0148 263.675 54.0337C263.675 58.0526 260.712 60.8837 256.952 60.8837Z" fill="white"/>
<path d="M239.859 54.0379C239.859 47.0905 234.129 41.7164 226.954 41.621H226.884C226.851 41.621 226.818 41.619 226.785 41.619L216.184 41.621C215.47 41.621 214.891 42.2032 214.891 42.9197V46.4771C214.891 46.4927 214.891 46.5063 214.893 46.52V65.1502C214.893 65.1502 214.893 65.1521 214.893 65.1541V65.1638C214.893 65.8804 215.472 66.4626 216.186 66.4626H226.958V66.4587C234.129 66.3594 239.859 60.9872 239.859 54.0418V54.0379ZM226.874 60.3057H221.02V47.772H226.954C230.663 47.8538 233.481 50.2916 233.481 54.0359C233.481 57.7803 230.576 60.2531 226.874 60.3057Z" fill="white"/>
<path d="M303.21 42.8944C303.208 42.1895 302.638 41.619 301.936 41.619H298.17C297.72 41.619 297.303 41.8566 297.074 42.246L288.977 55.9714L280.64 42.2324C280.409 41.8507 279.996 41.619 279.552 41.619H275.779C275.075 41.619 274.505 42.1915 274.505 42.8983V65.1814C274.505 65.8882 275.075 66.4606 275.779 66.4606H279.7C280.404 66.4606 280.974 65.8882 280.974 65.1814V53.6484L286.946 63.4309C287.167 63.7911 287.559 64.0111 287.98 64.0111H289.723C290.15 64.0111 290.545 63.7853 290.764 63.4172L296.778 53.2882L296.805 65.1852C296.805 65.8901 297.377 66.4606 298.079 66.4606H302C302.704 66.4606 303.276 65.8862 303.274 65.1775L303.21 42.8944Z" fill="white"/>
<path d="M185.078 44.4902C189.005 44.4902 192.188 47.6732 192.188 51.5996V58.8574C192.188 62.7839 189.005 65.9668 185.078 65.9668H141.7C141.603 65.9668 141.509 65.9976 141.43 66.0546L136.538 69.6232C136.236 69.8436 135.812 69.6278 135.812 69.2538V52.5693C135.812 48.1074 139.429 44.4902 143.891 44.4902H185.078Z" fill="#545353"/>
<path d="M143.93 50.506H149.608V52.0754H147.605V59.4377H145.946V52.0754H143.93V50.506ZM150.655 50.506H156.014V52.0754H152.313V54.219H155.631V55.7246H152.313V57.8682H156.077V59.4377H150.655V50.506ZM157.209 50.506H162.887V59.4377H161.228V52.0754H158.867V59.4377H157.209V50.506ZM164.237 50.506H169.596V52.0754H165.895V54.219H169.213V55.7246H165.895V57.8682H169.659V59.4377H164.237V50.506ZM170.803 50.506H173.763C175.779 50.506 176.609 51.2971 176.609 53.2493C176.609 55.1888 175.779 55.9926 173.763 55.9926H172.462V59.4377H170.803V50.506ZM172.462 54.4232H173.61C174.618 54.4232 174.95 54.1425 174.95 53.2493C174.95 52.3306 174.631 52.0754 173.61 52.0754H172.462V54.4232ZM177.619 50.506H179.277V53.9511H180.592C182.608 53.9511 183.424 54.7422 183.424 56.6816C183.424 58.6338 182.595 59.4377 180.592 59.4377H177.619V50.506ZM179.277 55.5205V57.8682H180.451C181.459 57.8682 181.766 57.6003 181.766 56.6944C181.766 55.7757 181.459 55.5205 180.451 55.5205H179.277Z" fill="white"/>
</g>
<defs>
<clipPath id="clip0_1_3855">
<rect width="330" height="111" fill="white"/>
</clipPath>
</defs>
</svg>
