<svg width="30" height="21" viewBox="0 0 30 21" fill="none" xmlns="http://www.w3.org/2000/svg">
  <path d="M21.7021 16.2273C21.7021 14.6457 20.4161 13.3636 18.8298 13.3636H11.1702C9.58386 13.3636 8.29787 14.6457 8.29787 16.2273C8.29787 17.8088 9.58386 19.0909 11.1702 19.0909H18.8298C20.4161 19.0909 21.7021 17.8088 21.7021 16.2273ZM17.8723 4.77273C17.8723 3.19118 16.5863 1.90909 15 1.90909C13.4137 1.90909 12.1277 3.19118 12.1277 4.77273C12.1277 6.35427 13.4137 7.63636 15 7.63636C16.5863 7.63636 17.8723 6.35427 17.8723 4.77273ZM23.617 16.2273C23.617 18.8632 21.4737 21 18.8298 21H11.1702C8.5263 21 6.38298 18.8632 6.38298 16.2273C6.38298 13.5914 8.5263 11.4545 11.1702 11.4545H18.8298C21.4737 11.4545 23.617 13.5914 23.617 16.2273ZM19.7872 4.77273C19.7872 7.40863 17.6439 9.54545 15 9.54545C12.3561 9.54545 10.2128 7.40863 10.2128 4.77273C10.2128 2.13682 12.3561 0 15 0C17.6439 0 19.7872 2.13682 19.7872 4.77273Z" fill="white" />
  <path d="M9.5772 8.13101C9.37585 7.80853 8.99804 7.63636 8.61702 7.63636C7.03067 7.63636 5.74468 6.35427 5.74468 4.77273C5.74468 3.19118 7.03067 1.90909 8.61702 1.90909C8.99804 1.90909 9.37585 1.73693 9.5772 1.41444C9.58611 1.40018 9.59507 1.38595 9.60408 1.37177C9.93932 0.84421 9.76946 0.0972371 9.14681 0.028895C8.97285 0.00980126 8.79608 0 8.61702 0C5.9731 0 3.82979 2.13682 3.82979 4.77273C3.82979 7.40863 5.9731 9.54545 8.61702 9.54545C8.79608 9.54545 8.97285 9.53565 9.14681 9.51656C9.76946 9.44822 9.93932 8.70125 9.60408 8.17369C9.59507 8.1595 9.58611 8.14528 9.5772 8.13101Z" fill="white" />
  <path d="M5.69143 18.2215C5.54651 17.9804 5.29072 17.8182 5.00883 17.8182H4.78723C3.20088 17.8182 1.91489 16.5361 1.91489 14.9545C1.91489 13.373 3.20088 12.0909 4.78723 12.0909H5.00883C5.29072 12.0909 5.54651 11.9287 5.69143 11.6876C6.04518 11.0992 5.6613 10.1818 4.97322 10.1818H4.78723C2.14332 10.1818 0 12.3186 0 14.9545C0 17.5905 2.14332 19.7273 4.78723 19.7273H4.97322C5.6613 19.7273 6.04518 18.8099 5.69143 18.2215Z" fill="white" />
  <path d="M20.3959 8.17369C20.0607 8.70125 20.2305 9.44822 20.8532 9.51656C21.0271 9.53565 21.2039 9.54545 21.383 9.54545C24.0269 9.54545 26.1702 7.40863 26.1702 4.77273C26.1702 2.13682 24.0269 0 21.383 0C21.2039 0 21.0271 0.00980133 20.8532 0.0288952C20.2305 0.0972374 20.0607 0.844209 20.3959 1.37177C20.4049 1.38595 20.4139 1.40018 20.4228 1.41444C20.6241 1.73692 21.002 1.90909 21.383 1.90909C22.9693 1.90909 24.2553 3.19118 24.2553 4.77273C24.2553 6.35427 22.9693 7.63636 21.383 7.63636C21.002 7.63636 20.6242 7.80853 20.4228 8.13101C20.4139 8.14528 20.4049 8.1595 20.3959 8.17369Z" fill="white" />
  <path d="M24.3086 18.2215C23.9548 18.8099 24.3387 19.7273 25.0268 19.7273H25.2128C27.8567 19.7273 30 17.5905 30 14.9545C30 12.3186 27.8567 10.1818 25.2128 10.1818H25.0268C24.3387 10.1818 23.9548 11.0992 24.3086 11.6876C24.4535 11.9287 24.7093 12.0909 24.9912 12.0909H25.2128C26.7991 12.0909 28.0851 13.373 28.0851 14.9545C28.0851 16.5361 26.7991 17.8182 25.2128 17.8182H24.9912C24.7093 17.8182 24.4535 17.9804 24.3086 18.2215Z" fill="white" />
</svg>