<svg width="42" height="22" viewBox="0 0 42 22" fill="none" xmlns="http://www.w3.org/2000/svg">
<path d="M36.3389 0C38.9282 7.85028e-05 41.027 2.09921 41.0273 4.68848V14.0664C41.0273 16.6559 38.9284 18.7558 36.3389 18.7559H4.38093C4.30283 18.7559 4.22674 18.7807 4.16365 18.8267L0.585962 21.4368C0.34234 21.6145 0 21.4405 0 21.1389V4.68848C0.000323579 2.09929 2.09927 0.000211165 4.68848 0H36.3389Z" fill="#FF7500"/>
<path d="M31.3022 13.5141H31.8158V15.5119H31.3022V14.734H30.4055V15.5119H29.8919V13.5141H30.4055V14.2507H31.3022V13.5141ZM32.0585 14.009H32.698V15.5119H33.2117V14.009H33.8429V13.5141H32.0578V14.0097L32.0585 14.009ZM36.3362 15.0775V15.5023C36.2482 15.5463 36.1389 15.5684 36.011 15.5684C35.7442 15.5684 35.6094 15.4513 35.5558 15.2641L35.5475 15.2765C35.3921 15.472 35.1769 15.5684 34.8984 15.5684C34.6199 15.5684 34.4047 15.4685 34.2135 15.2648C34.0258 15.061 33.9302 14.809 33.9302 14.5137C33.9302 14.2183 34.0265 13.9698 34.2135 13.7667C34.4047 13.5629 34.6316 13.459 34.8984 13.459C35.1652 13.459 35.3728 13.5471 35.5269 13.7254V13.5147H36.0405V14.9281C36.0405 15.0486 36.0955 15.1112 36.2049 15.1112C36.2564 15.1112 36.2991 15.1002 36.3362 15.0782M35.5468 14.513C35.5468 14.3491 35.4946 14.2135 35.388 14.1096C35.2841 14.0015 35.1528 13.9492 34.9933 13.9492C34.8338 13.9492 34.7024 14.0015 34.5993 14.1096C34.4954 14.2128 34.4439 14.3491 34.4439 14.513C34.4439 14.6768 34.4954 14.8125 34.5993 14.9212C34.7024 15.0245 34.8344 15.0768 34.9933 15.0768C35.1521 15.0768 35.2841 15.0245 35.388 14.9212C35.4952 14.8131 35.5468 14.6775 35.5468 14.513ZM25.6589 13.5141L25.6431 14.2645C25.6396 14.5681 25.6286 14.7188 25.5853 14.8909C25.5454 15.0555 25.4684 15.1016 25.3481 15.1016C25.3082 15.1016 25.2718 15.0982 25.2422 15.0871V15.5119C25.2821 15.5339 25.3481 15.545 25.4354 15.545C25.7971 15.5339 25.9717 15.3632 26.0591 15.0555C26.121 14.8359 26.132 14.6672 26.143 14.4152L26.1547 14.0104H26.7928V15.5133H27.3064V13.5154H25.6575L25.6589 13.5141ZM28.1329 14.6479C28.1879 14.9887 28.4582 15.1009 28.7318 15.1009C28.9127 15.1009 29.1032 15.0293 29.2201 14.924L29.537 15.2441C29.3473 15.4541 29.0839 15.569 28.7243 15.569C28.2203 15.569 27.6117 15.2703 27.6117 14.5137C27.6117 13.7571 28.1976 13.459 28.6947 13.459C29.3239 13.459 29.5845 13.755 29.5845 14.0882C29.5845 14.6321 28.8955 14.8827 28.1343 14.6486L28.1329 14.6479ZM29.0255 14.1454C29.0255 13.9905 28.8728 13.9209 28.7009 13.9209C28.4389 13.9209 28.2127 14.0318 28.1439 14.3168C28.6775 14.471 29.0255 14.3553 29.0255 14.1447V14.1454Z" fill="white"/>
<path d="M19.599 15.8932C18.6521 13.6847 16.449 12.1357 13.8828 12.1357C14.829 14.3449 17.0328 15.8946 19.5997 15.8946C21.4858 15.8946 23.1086 14.7807 23.8416 13.1773C21.9554 13.1773 20.332 14.2912 19.5997 15.8939L19.599 15.8932Z" fill="white"/>
<path d="M19.6026 3.5166C17.0268 3.5166 14.9763 5.53373 14.9763 8.14841C14.9763 10.7631 17.0268 12.7802 19.6026 12.7802C22.1784 12.7802 24.2475 10.7624 24.2475 8.14841C24.2475 5.53441 22.1784 3.5166 19.6026 3.5166ZM19.6026 10.5696C18.2693 10.5696 17.2358 9.57004 17.2358 8.14772C17.2358 6.72541 18.2528 5.7258 19.6026 5.7258C20.9524 5.7258 21.9866 6.72679 21.9866 8.14772C21.9866 9.56866 20.9359 10.5696 19.6026 10.5696Z" fill="white"/>
<path d="M13.5413 8.14867C13.5413 5.69232 11.5093 3.79223 8.96516 3.7585H8.94041C8.92872 3.7585 8.91703 3.75781 8.90534 3.75781L5.14614 3.7585C4.8931 3.7585 4.6875 3.96434 4.6875 4.21769V5.47547C4.6875 5.48097 4.6875 5.48579 4.68819 5.49061V12.0776C4.68819 12.0776 4.68819 12.0783 4.68819 12.079V12.0824C4.68819 12.3358 4.89379 12.5416 5.14683 12.5416H8.96654V12.5402C11.5093 12.5051 13.5413 10.6057 13.5413 8.15005V8.14867ZM8.93697 10.3648H6.86106V5.93328H8.96516C10.2806 5.96219 11.2797 6.82412 11.2797 8.14798C11.2797 9.47185 10.2496 10.3462 8.93697 10.3648Z" fill="white"/>
<path d="M36.0069 4.20874C36.0062 3.95952 35.8041 3.75781 35.5552 3.75781H34.2198C34.0603 3.75781 33.9124 3.8418 33.8313 3.97949L30.9598 8.83229L28.0037 3.97467C27.9219 3.83974 27.7755 3.75781 27.618 3.75781H26.2799C26.0303 3.75781 25.8281 3.96021 25.8281 4.21012V12.0886C25.8281 12.3385 26.0303 12.5409 26.2799 12.5409H27.6703C27.9199 12.5409 28.122 12.3385 28.122 12.0886V8.01098L30.2399 11.4697C30.3183 11.5971 30.4572 11.6748 30.6064 11.6748H31.2245C31.3758 11.6748 31.5161 11.595 31.5938 11.4649L33.7261 7.88362L33.7357 12.09C33.7357 12.3392 33.9386 12.5409 34.1875 12.5409H35.5778C35.8274 12.5409 36.0303 12.3378 36.0296 12.0872L36.0069 4.20874Z" fill="white"/>
</svg>
