<svg width="181" height="181" viewBox="0 0 106 106" fill="none" xmlns="http://www.w3.org/2000/svg">
  <path d="M85.3192 0H20C8.9543 0 0 8.95432 0 20V85.3192C0 96.3649 8.95432 105.319 20 105.319H85.3192C96.3649 105.319 105.319 96.3649 105.319 85.3192V20C105.319 8.9543 96.3649 0 85.3192 0Z" fill="#545353" />
  <path d="M25.1318 48.0018V52.5249C25.1318 54.7559 26.9404 56.5645 29.1714 56.5645H42.3709C44.6019 56.5645 46.4104 54.7559 46.4104 52.5249V48.0018C46.4104 45.7708 44.6019 43.9623 42.3709 43.9623H29.1714C26.9404 43.9623 25.1318 45.7708 25.1318 48.0018Z" fill="#FF7500" />
  <path d="M48.8281 45.5482V54.9785C48.8281 55.8544 49.5382 56.5645 50.4141 56.5645H52.1849C53.0608 56.5645 53.7708 55.8544 53.7708 54.9785V45.5482C53.7708 44.6723 53.0608 43.9623 52.1849 43.9623H50.4141C49.5382 43.9623 48.8281 44.6723 48.8281 45.5482Z" fill="white" />
  <path d="M78.598 47.7852H50.4209C49.545 47.7852 48.835 48.4952 48.835 49.3711V51.1419C48.835 52.0178 49.545 52.7279 50.4209 52.7279H78.598C79.4739 52.7279 80.1839 52.0178 80.1839 51.1419V49.3711C80.1839 48.4952 79.4739 47.7852 78.598 47.7852Z" fill="white" />
  <path d="M43.2393 27.1909H64.3259C64.6886 27.1909 65.0087 27.3972 65.1936 27.703C66.7795 30.3912 69.6954 32.1976 73.045 32.1976C76.6152 32.1976 79.6946 30.1494 81.1952 27.1625C81.5366 26.4868 81.0601 25.6832 80.3062 25.6832H75.6408C75.0861 25.6832 74.6381 25.2352 74.6381 24.6804V21.4801C74.6381 20.9254 75.0861 20.4773 75.6408 20.4773H80.3062C81.0672 20.4773 81.5366 19.6737 81.1952 18.9981C79.6946 16.0111 76.6152 13.9629 73.045 13.9629C69.7025 13.9629 66.7795 15.7693 65.1936 18.4576C65.0087 18.7705 64.6886 18.9696 64.3259 18.9696H43.2393C42.8766 18.9696 42.5566 18.7634 42.3717 18.4576C40.7857 15.7693 37.8699 13.9629 34.5202 13.9629C30.9501 13.9629 27.8706 16.0111 26.37 18.9981C26.0287 19.6737 26.5052 20.4773 27.259 20.4773H32.6142C33.169 20.4773 33.617 20.9254 33.617 21.4801V24.6804C33.617 25.2352 33.169 25.6832 32.6142 25.6832H27.259C26.4981 25.6832 26.0287 26.4868 26.37 27.1625C27.8706 30.1494 30.9501 32.1976 34.5202 32.1976C37.8628 32.1976 40.7857 30.3912 42.3717 27.703C42.5566 27.39 42.8766 27.1909 43.2393 27.1909Z" fill="#FF7500" />
  <path d="M26.5601 74.2148H53.4499V84.1856H26.5601C25.7778 84.1856 25.1377 83.5456 25.1377 82.7633V75.6372C25.1377 74.8549 25.7778 74.2148 26.5601 74.2148Z" fill="white" />
  <path d="M70.1007 76.1523H41.0347V82.1974H70.1007V76.1523Z" fill="white" />
  <path d="M67.4331 68.3262H78.7623C79.5446 68.3262 80.1846 68.9662 80.1846 69.7485V84.534H66.0107V69.7485C66.0107 68.9662 66.6508 68.3262 67.4331 68.3262Z" fill="#FF7500" />
  <path d="M66.0107 87.9629H80.1846V92.9839C80.1846 93.7662 79.5446 94.4062 78.7623 94.4062H67.4331C66.6508 94.4062 66.0107 93.7662 66.0107 92.9839V87.9629Z" fill="#FF7500" />
  <path d="M77.4116 83.7188H68.7778V87.9716H77.4116V83.7188Z" fill="#FF7500" />
</svg>